SplineFontDB: 3.2
FontName: ATM642-Regular
FullName: ATM642-Regular
FamilyName: ATM 642
Weight: Book
Version: 1.001
ItalicAngle: -11
UnderlinePosition: -271
UnderlineWidth: 102
Ascent: 1600
Descent: 400
InvalidEm: 0
sfntRevision: 0x00010042
LayerCount: 2
Layer: 0 1 "Back" 1
Layer: 1 1 "Fore" 0
XUID: [1021 192 2086997156 7384]
StyleMap: 0x0040
FSType: 8
OS2Version: 3
OS2_WeightWidthSlopeOnly: 0
OS2_UseTypoMetrics: 0
CreationTime: 1537438994
ModificationTime: 1545717415
PfmFamily: 17
TTFWeight: 400
TTFWidth: 5
LineGap: 0
VLineGap: 0
Panose: 2 0 5 5 0 0 0 2 0 2
OS2TypoAscent: 2000
OS2TypoAOffset: 0
OS2TypoDescent: -1320
OS2TypoDOffset: 0
OS2TypoLinegap: 0
OS2WinAscent: 2000
OS2WinAOffset: 0
OS2WinDescent: 744
OS2WinDOffset: 0
HheadAscent: 2000
HheadAOffset: 0
HheadDescent: -1320
HheadDOffset: 0
OS2SubXSize: 1400
OS2SubYSize: 1300
OS2SubXOff: 0
OS2SubYOff: 0
OS2SupXSize: 1400
OS2SupYSize: 1300
OS2SupXOff: 0
OS2SupYOff: 0
OS2StrikeYSize: 100
OS2StrikeYPos: 518
OS2CapHeight: 1586
OS2XHeight: -200
OS2Vendor: '    '
OS2CodePages: 00000001.00000000
OS2UnicodeRanges: 00100003.00000000.00000000.00000000
Lookup: 4 0 0 "'akhn' Akhand in Tamil2 lookup 0" { "'akhn' Akhand in Tamil2 lookup 0 subtable"  } ['akhn' ('tml2' <'dflt' > ) ]
Lookup: 4 0 0 "'akhn' Akhand in Tamil lookup 1" { "'akhn' Akhand in Tamil lookup 1 subtable"  } ['akhn' ('taml' <'dflt' > ) ]
Lookup: 4 0 0 "'half' Half Forms in Tamil lookup 2" { "'half' Half Forms in Tamil lookup 2 subtable"  } ['half' ('taml' <'dflt' > ) ]
Lookup: 4 0 0 "'haln' Halant Forms in Tamil2 lookup 3" { "'haln' Halant Forms in Tamil2 lookup 3 subtable"  } ['haln' ('tml2' <'dflt' > ) ]
Lookup: 4 0 0 "'haln' Halant Forms in Tamil lookup 4" { "'haln' Halant Forms in Tamil lookup 4 subtable"  } ['haln' ('taml' <'dflt' > ) ]
Lookup: 4 0 0 "'abvs' Above Base Substitutions lookup 5" { "'abvs' Above Base Substitutions lookup 5 subtable"  } ['abvs' ('taml' <'dflt' > 'tml2' <'dflt' > ) ]

StartChar: exclam
Encoding: 33 33 4
Width: 366
GlyphClass: 2
Flags: W
LayerCount: 2
Fore
SplineSet
236 822 m 1,0,-1
 230 148 l 1,1,-1
 106 260 l 1,2,-1
 108 962 l 1,3,4
 208 906 208 906 236 822 c 1,0,-1
284 12 m 0,5,6
 284 -134 284 -134 184 -134 c 0,7,8
 142 -134 142 -134 114 -92 c 128,-1,9
 86 -50 86 -50 86 2 c 0,10,11
 86 56 86 56 115 97 c 128,-1,12
 144 138 144 138 194 138 c 0,13,14
 284 138 284 138 284 12 c 0,5,6
EndSplineSet
EndChar

StartChar: quotedbl
Encoding: 34 34 5
Width: 606
GlyphClass: 2
Flags: W
LayerCount: 2
Fore
SplineSet
109 647 m 1,0,-1
 63 912 l 1,1,-1
 63 1140 l 1,2,-1
 257 1140 l 1,3,-1
 257 912 l 1,4,-1
 214 647 l 1,5,-1
 109 647 l 1,0,-1
423 647 m 1,6,-1
 378 912 l 1,7,-1
 378 1140 l 1,8,-1
 572 1140 l 1,9,-1
 572 912 l 1,10,-1
 527 647 l 1,11,-1
 423 647 l 1,6,-1
EndSplineSet
EndChar

StartChar: numbersign
Encoding: 35 35 6
Width: 1203
GlyphClass: 2
Flags: W
LayerCount: 2
Fore
SplineSet
179 22 m 1,0,-1
 264 356 l 1,1,-1
 103 356 l 1,2,-1
 103 473 l 1,3,-1
 288 473 l 1,4,-1
 358 761 l 1,5,-1
 103 761 l 1,6,-1
 103 876 l 1,7,-1
 386 876 l 1,8,-1
 471 1218 l 1,9,-1
 609 1218 l 1,10,-1
 526 876 l 1,11,-1
 817 876 l 1,12,-1
 903 1218 l 1,13,-1
 1041 1218 l 1,14,-1
 962 876 l 1,15,-1
 1124 876 l 1,16,-1
 1124 761 l 1,17,-1
 932 761 l 1,18,-1
 861 473 l 1,19,-1
 1124 473 l 1,20,-1
 1124 356 l 1,21,-1
 832 356 l 1,22,-1
 755 22 l 1,23,-1
 611 22 l 1,24,-1
 688 356 l 1,25,-1
 401 356 l 1,26,-1
 322 22 l 1,27,-1
 179 22 l 1,0,-1
435 473 m 1,28,-1
 724 473 l 1,29,-1
 792 761 l 1,30,-1
 501 761 l 1,31,-1
 435 473 l 1,28,-1
EndSplineSet
EndChar

StartChar: dollar
Encoding: 36 36 7
Width: 908
GlyphClass: 2
Flags: W
LayerCount: 2
Fore
SplineSet
766 302 m 0,0,1
 744 187 744 187 654 120 c 0,2,3
 572 60 572 60 456 60 c 1,4,-1
 456 -52 l 1,5,-1
 383 -52 l 1,6,-1
 383 60 l 1,7,8
 372 60 372 60 357 60 c 0,9,10
 336 65 336 65 330 71 c 2,11,-1
 264 92 l 2,12,13
 242 95 242 95 229.5 102.5 c 128,-1,14
 217 110 217 110 188 131 c 2,15,-1
 146 156 l 1,16,-1
 180 232 l 1,17,-1
 217 204 l 2,18,19
 259 169 259 169 284 156 c 2,20,-1
 336 137 l 1,21,-1
 383 134 l 1,22,-1
 383 518 l 1,23,24
 230 560 230 560 169 630 c 0,25,26
 99 710 99 710 99 838 c 2,27,-1
 99 872 l 1,28,-1
 104 912 l 2,29,30
 119 1045 119 1045 217 1126 c 0,31,32
 299 1192 299 1192 383 1192 c 1,33,-1
 383 1289 l 1,34,-1
 456 1289 l 1,35,-1
 456 1197 l 1,36,-1
 510 1191 l 2,37,38
 531 1191 531 1191 541.5 1190 c 128,-1,39
 552 1189 552 1189 578 1176 c 1,40,41
 688 1140 688 1140 688 1126 c 1,42,-1
 659 1037 l 1,43,-1
 646 1048 l 2,44,45
 615 1079 615 1079 563 1101 c 0,46,47
 537 1112 537 1112 517.5 1116.5 c 128,-1,48
 498 1121 498 1121 491 1121 c 0,49,50
 466 1121 466 1121 456 1126 c 1,51,-1
 456 739 l 1,52,53
 561 717 561 717 615 686 c 0,54,55
 773 594 773 594 773 404 c 2,56,-1
 772 355 l 2,57,58
 772 330 772 330 766 302 c 0,0,1
383 770 m 1,59,-1
 383 1126 l 1,60,61
 330 1121 330 1121 281 1080 c 0,62,63
 219 1030 219 1030 219 964 c 0,64,65
 219 872 219 872 283 819 c 0,66,67
 297 807 297 807 322.5 796 c 128,-1,68
 348 785 348 785 383 770 c 1,59,-1
653 317 m 0,69,70
 653 404 653 404 573 448 c 1,71,-1
 456 493 l 1,72,-1
 456 134 l 1,73,74
 547 134 547 134 600 185 c 128,-1,75
 653 236 653 236 653 317 c 0,69,70
EndSplineSet
EndChar

StartChar: percent
Encoding: 37 37 8
Width: 764
GlyphClass: 2
Flags: W
LayerCount: 2
Fore
SplineSet
360 766 m 0,0,1
 360 696 360 696 322 646 c 0,2,3
 282 590 282 590 218 590 c 0,4,5
 156 590 156 590 120 634 c 128,-1,6
 84 678 84 678 84 740 c 0,7,8
 84 806 84 806 128 854 c 128,-1,9
 172 902 172 902 236 902 c 0,10,11
 292 902 292 902 326 863 c 128,-1,12
 360 824 360 824 360 766 c 0,0,1
682 924 m 1,13,14
 682 754 682 754 670 584 c 1,15,16
 608 498 608 498 94 -44 c 1,17,18
 84 58 84 58 84 138 c 0,19,20
 84 268 84 268 110 340 c 1,21,-1
 682 924 l 1,13,14
672 170 m 0,22,23
 672 102 672 102 628 51 c 128,-1,24
 584 0 584 0 520 0 c 0,25,26
 464 0 464 0 429 41 c 128,-1,27
 394 82 394 82 394 150 c 0,28,29
 394 216 394 216 440 265 c 128,-1,30
 486 314 486 314 552 314 c 0,31,32
 600 314 600 314 636 274 c 128,-1,33
 672 234 672 234 672 170 c 0,22,23
EndSplineSet
EndChar

StartChar: ampersand
Encoding: 38 38 9
Width: 1026
GlyphClass: 2
Flags: W
LayerCount: 2
Fore
SplineSet
582 672 m 0,0,1
 582 580 582 580 525 518 c 128,-1,2
 468 456 468 456 386 456 c 0,3,4
 320 456 320 456 280 508 c 0,5,6
 246 554 246 554 246 620 c 0,7,8
 246 698 246 698 295 769 c 128,-1,9
 344 840 344 840 412 840 c 0,10,11
 482 840 482 840 532 791 c 128,-1,12
 582 742 582 742 582 672 c 0,0,1
942 150 m 0,13,14
 942 34 942 34 896 -54 c 0,15,16
 848 -148 848 -148 770 -148 c 0,17,18
 660 -148 660 -148 488 96 c 0,19,20
 326 326 326 326 326 416 c 0,21,22
 326 426 326 426 328 430 c 1,23,24
 372 402 372 402 448 424 c 1,25,26
 474 372 474 372 538 284 c 1,27,28
 614 332 614 332 680 454 c 128,-1,29
 746 576 746 576 746 672 c 0,30,31
 746 698 746 698 740 720 c 1,32,33
 864 604 864 604 864 558 c 0,34,35
 864 510 864 510 774 370 c 0,36,37
 690 238 690 238 636 190 c 1,38,39
 688 148 688 148 694 142 c 0,40,41
 734 118 734 118 780 118 c 0,42,43
 866 118 866 118 922 236 c 1,44,45
 942 184 942 184 942 150 c 0,13,14
468 82 m 1,46,47
 408 2 408 2 268 2 c 0,48,49
 190 2 190 2 140 42 c 0,50,51
 84 88 84 88 84 168 c 0,52,53
 84 244 84 244 140 333 c 128,-1,54
 196 422 196 422 278 466 c 1,55,56
 288 374 288 374 356 246 c 0,57,58
 416 128 416 128 468 82 c 1,46,47
EndSplineSet
EndChar

StartChar: quotesingle
Encoding: 39 39 10
Width: 368
GlyphClass: 2
Flags: W
LayerCount: 2
Fore
SplineSet
137 647 m 1,0,-1
 91 912 l 1,1,-1
 91 1140 l 1,2,-1
 285 1140 l 1,3,-1
 285 912 l 1,4,-1
 242 647 l 1,5,-1
 137 647 l 1,0,-1
EndSplineSet
EndChar

StartChar: parenleft
Encoding: 40 40 11
Width: 562
GlyphClass: 2
Flags: W
LayerCount: 2
Fore
SplineSet
478 -136 m 0,0,1
 478 -364 478 -364 406 -364 c 0,2,3
 268 -364 268 -364 168 -54 c 0,4,5
 84 200 84 200 84 400 c 0,6,7
 84 602 84 602 168 860 c 0,8,9
 268 1168 268 1168 402 1168 c 0,10,11
 478 1168 478 1168 478 940 c 0,12,13
 478 784 478 784 442 742 c 1,14,15
 424 766 424 766 406 792 c 0,16,17
 390 810 390 810 364 810 c 0,18,19
 276 810 276 810 200 648 c 0,20,21
 132 506 132 506 132 404 c 0,22,23
 132 276 132 276 204 138 c 0,24,25
 278 -6 278 -6 360 -6 c 0,26,27
 392 -6 392 -6 409 14 c 128,-1,28
 426 34 426 34 444 58 c 1,29,30
 478 -10 478 -10 478 -136 c 0,0,1
EndSplineSet
EndChar

StartChar: parenright
Encoding: 41 41 12
Width: 562
GlyphClass: 2
Flags: W
LayerCount: 2
Fore
SplineSet
478 398 m 0,0,1
 478 186 478 186 390 -70 c 0,2,3
 288 -370 288 -370 156 -370 c 0,4,5
 84 -370 84 -370 84 -138 c 0,6,7
 84 24 84 24 118 56 c 1,8,9
 162 -12 162 -12 196 -12 c 0,10,11
 286 -12 286 -12 360 142 c 0,12,13
 426 280 426 280 426 398 c 0,14,15
 426 526 426 526 351 666 c 128,-1,16
 276 806 276 806 198 806 c 0,17,18
 168 806 168 806 151 783 c 128,-1,19
 134 760 134 760 118 736 c 1,20,21
 84 792 84 792 84 938 c 0,22,23
 84 1164 84 1164 154 1164 c 0,24,25
 298 1164 298 1164 398 836 c 0,26,27
 478 578 478 578 478 398 c 0,0,1
EndSplineSet
EndChar

StartChar: asterisk
Encoding: 42 42 13
Width: 705
GlyphClass: 2
Flags: W
LayerCount: 2
Fore
SplineSet
646 1169 m 1,0,-1
 414 1121 l 1,1,-1
 592 981 l 1,2,-1
 451 875 l 1,3,-1
 346 1073 l 1,4,-1
 267 873 l 1,5,-1
 114 954 l 1,6,-1
 280 1125 l 1,7,-1
 48 1154 l 1,8,-1
 99 1307 l 1,9,-1
 300 1207 l 1,10,-1
 261 1434 l 1,11,-1
 432 1434 l 1,12,-1
 390 1212 l 1,13,-1
 594 1317 l 1,14,-1
 646 1169 l 1,0,-1
EndSplineSet
EndChar

StartChar: plus
Encoding: 43 43 14
Width: 1098
GlyphClass: 2
Flags: W
LayerCount: 2
Fore
SplineSet
1014 262 m 1,0,-1
 650 262 l 1,1,-1
 650 -12 l 1,2,3
 602 22 602 22 526 106 c 1,4,-1
 526 258 l 1,5,-1
 330 262 l 1,6,7
 276 292 276 292 202 370 c 0,8,9
 104 472 104 472 84 490 c 1,10,-1
 528 500 l 1,11,-1
 528 798 l 1,12,13
 562 772 562 772 594 748 c 0,14,15
 636 710 636 710 656 666 c 1,16,-1
 656 502 l 1,17,-1
 756 512 l 1,18,19
 818 492 818 492 914 388 c 0,20,21
 982 312 982 312 1014 262 c 1,0,-1
EndSplineSet
EndChar

StartChar: comma
Encoding: 44 44 15
Width: 396
GlyphClass: 2
Flags: W
LayerCount: 2
Fore
SplineSet
352 158 m 0,0,1
 352 -26 352 -26 148 -238 c 1,2,3
 92 -226 92 -226 92 -190 c 0,4,5
 92 -184 92 -184 131 -139 c 128,-1,6
 170 -94 170 -94 170 -36 c 0,7,8
 170 68 170 68 30 130 c 1,9,10
 26 220 26 220 72 284 c 128,-1,11
 118 348 118 348 200 348 c 0,12,13
 268 348 268 348 310 292 c 128,-1,14
 352 236 352 236 352 158 c 0,0,1
EndSplineSet
EndChar

StartChar: hyphen
Encoding: 45 45 16
Width: 1058
GlyphClass: 2
Flags: W
LayerCount: 2
Fore
SplineSet
988 242 m 1,0,-1
 310 242 l 1,1,2
 272 258 272 258 184 340 c 0,3,4
 72 442 72 442 70 444 c 2,5,-1
 776 444 l 1,6,7
 826 418 826 418 988 242 c 1,0,-1
EndSplineSet
EndChar

StartChar: period
Encoding: 46 46 17
Width: 396
GlyphClass: 2
Flags: W
LayerCount: 2
Fore
SplineSet
352 212 m 0,0,1
 352 124 352 124 304 61 c 128,-1,2
 256 -2 256 -2 178 -2 c 0,3,4
 106 -2 106 -2 66 58 c 0,5,6
 30 110 30 110 30 186 c 0,7,8
 30 272 30 272 71 337 c 128,-1,9
 112 402 112 402 186 402 c 0,10,11
 270 402 270 402 314 344 c 0,12,13
 352 292 352 292 352 212 c 0,0,1
EndSplineSet
EndChar

StartChar: slash
Encoding: 47 47 18
Width: 596
GlyphClass: 2
Flags: W
LayerCount: 2
Fore
SplineSet
652 834 m 1,0,1
 502 444 502 444 122 -274 c 1,2,3
 100 -228 100 -228 36 -172 c 0,4,5
 -18 -126 -18 -126 -32 -50 c 1,6,7
 162 336 162 336 490 1032 c 1,8,9
 518 980 518 980 586 936 c 0,10,11
 642 900 642 900 652 834 c 1,0,1
EndSplineSet
EndChar

StartChar: zero
Encoding: 48 48 19
Width: 888
GlyphClass: 2
Flags: W
LayerCount: 2
Fore
SplineSet
808 434 m 0,0,1
 808 264 808 264 706 136 c 0,2,3
 597 0 597 0 440 0 c 0,4,5
 287 0 287 0 184 114.5 c 128,-1,6
 81 229 81 229 81 390 c 0,7,8
 81 579 81 579 186.5 704 c 128,-1,9
 292 829 292 829 459 829 c 0,10,11
 611 829 611 829 709.5 717.5 c 128,-1,12
 808 606 808 606 808 434 c 0,0,1
EndSplineSet
EndChar

StartChar: one
Encoding: 49 49 20
Width: 312
GlyphClass: 2
Flags: W
LayerCount: 2
Fore
SplineSet
231 741 m 0,0,1
 231 606 231 606 225 351.5 c 128,-1,2
 219 97 219 97 219 -2 c 1,3,-1
 81 123 l 1,4,-1
 81 934 l 1,5,6
 231 850 231 850 231 741 c 0,0,1
EndSplineSet
EndChar

StartChar: two
Encoding: 50 50 21
Width: 850
GlyphClass: 2
Flags: W
LayerCount: 2
Fore
SplineSet
450 642 m 0,0,1
 450 551 450 551 390.5 485 c 128,-1,2
 331 419 331 419 243 419 c 0,3,4
 171 419 171 419 126 474.5 c 128,-1,5
 81 530 81 530 81 613 c 0,6,7
 81 706 81 706 140 767.5 c 128,-1,8
 199 829 199 829 285 829 c 0,9,10
 361 829 361 829 405.5 776.5 c 128,-1,11
 450 724 450 724 450 642 c 0,0,1
790 392 m 1,12,13
 798 375 798 375 798 327 c 0,14,15
 798 150 798 150 752 61 c 1,16,17
 518 19 518 19 259 19 c 0,18,19
 139 19 139 19 109 44 c 0,20,21
 86 61 86 61 86 127 c 0,22,23
 86 269 86 269 127 301 c 0,24,25
 148 317 148 317 214 332.5 c 128,-1,26
 280 348 280 348 296 354 c 0,27,28
 511 459 511 459 511 659 c 0,29,30
 511 734 511 734 456.5 794.5 c 128,-1,31
 402 855 402 855 338 863 c 1,32,33
 390 888 390 888 455 888 c 0,34,35
 558 888 558 888 643.5 830.5 c 128,-1,36
 729 773 729 773 729 686 c 0,37,38
 729 570 729 570 503 361 c 1,39,40
 613 348 613 348 790 392 c 1,12,13
EndSplineSet
EndChar

StartChar: three
Encoding: 51 51 22
Width: 865
GlyphClass: 2
Flags: W
LayerCount: 2
Fore
SplineSet
442 697 m 0,0,1
 442 616 442 616 388.5 557 c 128,-1,2
 335 498 335 498 257 498 c 0,3,4
 190 498 190 498 148 542 c 0,5,6
 99 590 99 590 99 671 c 0,7,8
 99 759 99 759 150.5 813 c 128,-1,9
 202 867 202 867 280 867 c 0,10,11
 352 867 352 867 397 819 c 128,-1,12
 442 771 442 771 442 697 c 0,0,1
785 333 m 0,13,14
 785 208 785 208 670 118.5 c 128,-1,15
 555 29 555 29 404 29 c 0,16,17
 273 29 273 29 208 69 c 1,18,19
 324 65 324 65 407 133.5 c 128,-1,20
 490 202 490 202 490 310 c 0,21,22
 490 375 490 375 461 423 c 0,23,24
 423 478 423 478 366 474 c 1,25,26
 404 513 404 513 442 553 c 0,27,28
 484 604 484 604 484 686 c 0,29,30
 484 806 484 806 375 870 c 1,31,32
 432 897 432 897 490 897 c 0,33,34
 586 897 586 897 659 844.5 c 128,-1,35
 732 792 732 792 732 727 c 0,36,37
 732 623 732 623 597 544 c 1,38,39
 659 530 659 530 718 474 c 0,40,41
 785 411 785 411 785 333 c 0,13,14
448 299 m 0,42,43
 448 225 448 225 385 171.5 c 128,-1,44
 322 118 322 118 250 118 c 0,45,46
 176 118 176 118 128.5 166.5 c 128,-1,47
 81 215 81 215 81 301 c 0,48,49
 81 369 81 369 133 418 c 128,-1,50
 185 467 185 467 257 467 c 0,51,52
 333 467 333 467 390.5 419 c 128,-1,53
 448 371 448 371 448 299 c 0,42,43
EndSplineSet
EndChar

StartChar: four
Encoding: 52 52 23
Width: 930
GlyphClass: 2
Flags: W
LayerCount: 2
Fore
SplineSet
880 450 m 0,0,1
 880 183 880 183 671 169 c 1,2,-1
 669 0 l 1,3,4
 495 6 495 6 518 153 c 1,5,6
 379 146 379 146 358 146 c 0,7,8
 81 146 81 146 81 324 c 0,9,10
 81 509 81 509 273 703 c 0,11,12
 478 909 478 909 692 888 c 1,13,14
 671 826 671 826 671 474 c 1,15,16
 832 513 832 513 838 560 c 1,17,18
 880 501 880 501 880 450 c 0,0,1
526 734 m 1,19,20
 455 699 455 699 390 642 c 0,21,22
 308 572 308 572 308 526 c 0,23,24
 308 474 308 474 377 465 c 1,25,26
 448 465 448 465 518 463 c 1,27,-1
 526 734 l 1,19,20
EndSplineSet
EndChar

StartChar: five
Encoding: 53 53 24
Width: 766
GlyphClass: 2
Flags: W
LayerCount: 2
Fore
SplineSet
686 411 m 0,0,1
 686 238 686 238 518 111 c 0,2,3
 371 0 371 0 227 0 c 0,4,5
 81 0 81 0 81 234 c 0,6,7
 81 271 81 271 86 315 c 1,8,9
 196 296 196 296 196 296 c 1,10,11
 271 296 271 296 366 343 c 0,12,13
 471 394 471 394 471 446 c 0,14,15
 471 518 471 518 384 518 c 0,16,17
 350 518 350 518 294 477 c 128,-1,18
 238 436 238 436 238 396 c 0,19,20
 238 384 238 384 246 373 c 1,21,22
 213 371 213 371 194 371 c 0,23,24
 136 371 136 371 116.5 399 c 128,-1,25
 97 427 97 427 97 516 c 0,26,27
 97 808 97 808 129.5 845 c 128,-1,28
 162 882 162 882 287 905 c 0,29,30
 396 926 396 926 501 926 c 0,31,32
 588 926 588 926 619 891.5 c 128,-1,33
 650 857 650 857 650 778 c 0,34,35
 650 678 650 678 621 623 c 1,36,37
 576 671 576 671 455 671 c 0,38,39
 340 671 340 671 234 634 c 1,40,-1
 234 558 l 1,41,42
 301 625 301 625 432 625 c 0,43,44
 547 625 547 625 616.5 567 c 128,-1,45
 686 509 686 509 686 411 c 0,0,1
EndSplineSet
EndChar

StartChar: six
Encoding: 54 54 25
Width: 806
GlyphClass: 2
Flags: W
LayerCount: 2
Fore
SplineSet
627 655 m 1,0,1
 448 671 448 671 310 572 c 0,2,3
 160 465 160 465 160 278 c 0,4,5
 160 273 160 273 178 173 c 1,6,7
 81 206 81 206 81 415 c 0,8,9
 81 606 81 606 194.5 747 c 128,-1,10
 308 888 308 888 471 888 c 0,11,12
 539 888 539 888 583 811 c 128,-1,13
 627 734 627 734 627 655 c 1,0,1
724 324 m 0,14,15
 724 211 724 211 637.5 123 c 128,-1,16
 551 35 551 35 432 35 c 0,17,18
 338 35 338 35 273 108 c 128,-1,19
 208 181 208 181 208 278 c 0,20,21
 208 400 208 400 303 490 c 0,22,23
 390 572 390 572 484 572 c 0,24,25
 590 572 590 572 657 507 c 128,-1,26
 724 442 724 442 724 324 c 0,14,15
EndSplineSet
EndChar

StartChar: seven
Encoding: 55 55 26
Width: 762
GlyphClass: 2
Flags: W
LayerCount: 2
Fore
SplineSet
727 840 m 0,0,1
 727 832 727 832 653 724 c 0,2,3
 560 595 560 595 511 492 c 0,4,5
 438 335 438 335 438 204 c 0,6,7
 438 146 438 146 444 120 c 128,-1,8
 450 94 450 94 450 84 c 0,9,10
 450 63 450 63 423 42 c 128,-1,11
 396 21 396 21 343 21 c 0,12,13
 271 21 271 21 202.5 53.5 c 128,-1,14
 134 86 134 86 134 123 c 0,15,16
 134 185 134 185 255 354 c 0,17,18
 338 467 338 467 421 579 c 1,19,20
 306 565 306 565 278 560 c 0,21,22
 171 542 171 542 134 507 c 1,23,24
 99 547 99 547 65 650 c 0,25,26
 35 748 35 748 35 794 c 0,27,28
 35 836 35 836 64.5 846.5 c 128,-1,29
 94 857 94 857 245 872.5 c 128,-1,30
 396 888 396 888 467 888 c 0,31,32
 727 888 727 888 727 840 c 0,0,1
EndSplineSet
EndChar

StartChar: eight
Encoding: 56 56 27
Width: 782
GlyphClass: 2
Flags: W
LayerCount: 2
Fore
SplineSet
701 324 m 0,0,1
 701 196 701 196 594.5 107.5 c 128,-1,2
 488 19 488 19 352 19 c 0,3,4
 243 19 243 19 162 80 c 128,-1,5
 81 141 81 141 81 238 c 0,6,7
 81 402 81 402 322 490 c 1,8,9
 141 505 141 505 141 644 c 0,10,11
 141 724 141 724 225.5 801 c 128,-1,12
 310 878 310 878 425 878 c 0,13,14
 511 878 511 878 575 825.5 c 128,-1,15
 639 773 639 773 639 694 c 0,16,17
 639 553 639 553 438 505 c 1,18,19
 537 511 537 511 613 465 c 0,20,21
 701 413 701 413 701 324 c 0,0,1
EndSplineSet
EndChar

StartChar: nine
Encoding: 57 57 28
Width: 811
GlyphClass: 2
Flags: W
LayerCount: 2
Fore
SplineSet
604 606 m 0,0,1
 604 490 604 490 507 398 c 0,2,3
 417 315 417 315 327 315 c 0,4,5
 223 315 223 315 152 381.5 c 128,-1,6
 81 448 81 448 81 549 c 0,7,8
 81 669 81 669 166.5 764 c 128,-1,9
 252 859 252 859 371 859 c 0,10,11
 467 859 467 859 535.5 784 c 128,-1,12
 604 709 604 709 604 606 c 0,0,1
729 459 m 0,13,14
 729 257 729 257 590 118 c 0,15,16
 469 0 469 0 348 0 c 0,17,18
 208 0 208 0 178 231 c 1,19,20
 354 227 354 227 484 308 c 0,21,22
 646 407 646 407 646 602 c 0,23,24
 646 653 646 653 634 711 c 1,25,26
 678 713 678 713 706 623 c 0,27,28
 729 547 729 547 729 459 c 0,13,14
EndSplineSet
EndChar

StartChar: colon
Encoding: 58 58 29
Width: 410
GlyphClass: 2
Flags: W
LayerCount: 2
Fore
SplineSet
366 742 m 0,0,1
 366 654 366 654 318 591 c 128,-1,2
 270 528 270 528 192 528 c 0,3,4
 120 528 120 528 80 588 c 0,5,6
 44 640 44 640 44 716 c 0,7,8
 44 802 44 802 85 867 c 128,-1,9
 126 932 126 932 200 932 c 0,10,11
 284 932 284 932 328 874 c 0,12,13
 366 822 366 822 366 742 c 0,0,1
366 212 m 0,14,15
 366 124 366 124 318 61 c 128,-1,16
 270 -2 270 -2 192 -2 c 0,17,18
 120 -2 120 -2 80 58 c 0,19,20
 44 110 44 110 44 186 c 0,21,22
 44 272 44 272 85 337 c 128,-1,23
 126 402 126 402 200 402 c 0,24,25
 284 402 284 402 328 344 c 0,26,27
 366 292 366 292 366 212 c 0,14,15
EndSplineSet
EndChar

StartChar: semicolon
Encoding: 59 59 30
Width: 410
GlyphClass: 2
Flags: W
LayerCount: 2
Fore
SplineSet
366 740 m 0,0,1
 366 652 366 652 318 589 c 128,-1,2
 270 526 270 526 192 526 c 0,3,4
 120 526 120 526 80 586 c 0,5,6
 44 638 44 638 44 714 c 0,7,8
 44 800 44 800 85 865 c 128,-1,9
 126 930 126 930 200 930 c 0,10,11
 284 930 284 930 328 872 c 0,12,13
 366 820 366 820 366 740 c 0,0,1
366 216 m 0,14,15
 366 34 366 34 162 -180 c 1,16,17
 106 -168 106 -168 106 -132 c 0,18,19
 106 -126 106 -126 145 -81 c 128,-1,20
 184 -36 184 -36 184 22 c 0,21,22
 184 126 184 126 44 188 c 1,23,24
 40 278 40 278 86 342 c 128,-1,25
 132 406 132 406 214 406 c 0,26,27
 282 406 282 406 324 350 c 128,-1,28
 366 294 366 294 366 216 c 0,14,15
EndSplineSet
EndChar

StartChar: less
Encoding: 60 60 31
Width: 1240
GlyphClass: 2
Flags: W
LayerCount: 2
Fore
SplineSet
993 0 m 1,0,-1
 4 471 l 1,1,-1
 4 589 l 1,2,-1
 993 1070 l 1,3,-1
 993 859 l 1,4,-1
 261 531 l 1,5,-1
 993 202 l 1,6,-1
 993 0 l 1,0,-1
EndSplineSet
EndChar

StartChar: equal
Encoding: 61 61 32
Width: 1086
GlyphClass: 2
Flags: W
LayerCount: 2
Fore
SplineSet
1002 442 m 1,0,-1
 324 442 l 1,1,2
 286 458 286 458 198 540 c 0,3,4
 86 642 86 642 84 644 c 2,5,-1
 790 644 l 1,6,7
 840 618 840 618 1002 442 c 1,0,-1
1002 82 m 1,8,-1
 324 82 l 1,9,10
 286 98 286 98 198 180 c 0,11,12
 86 282 86 282 84 284 c 2,13,-1
 790 284 l 1,14,15
 840 258 840 258 1002 82 c 1,8,-1
EndSplineSet
EndChar

StartChar: greater
Encoding: 62 62 33
Width: 1306
GlyphClass: 2
Flags: W
LayerCount: 2
Fore
SplineSet
242 202 m 1,0,-1
 974 531 l 1,1,-1
 242 859 l 1,2,-1
 242 1070 l 1,3,-1
 1231 589 l 1,4,-1
 1231 471 l 1,5,-1
 242 0 l 1,6,-1
 242 202 l 1,0,-1
EndSplineSet
EndChar

StartChar: question
Encoding: 63 63 34
Width: 692
GlyphClass: 2
Flags: W
LayerCount: 2
Fore
SplineSet
376 784 m 0,0,1
 376 698 376 698 334 632 c 0,2,3
 290 556 290 556 220 556 c 0,4,5
 158 556 158 556 121 599 c 128,-1,6
 84 642 84 642 84 714 c 0,7,8
 84 818 84 818 138 878 c 0,9,10
 182 928 182 928 240 928 c 0,11,12
 306 928 306 928 341 887 c 128,-1,13
 376 846 376 846 376 784 c 0,0,1
608 906 m 0,14,15
 608 820 608 820 496 646 c 128,-1,16
 384 472 384 472 384 390 c 0,17,18
 384 304 384 304 440 304 c 0,19,20
 460 304 460 304 482 320 c 1,21,22
 404 192 404 192 286 192 c 0,23,24
 192 192 192 192 192 286 c 0,25,26
 192 376 192 376 307 550 c 128,-1,27
 422 724 422 724 422 798 c 0,28,29
 422 950 422 950 250 950 c 0,30,31
 220 950 220 950 188 944 c 1,32,33
 192 986 192 986 263 1035 c 128,-1,34
 334 1084 334 1084 402 1084 c 0,35,36
 488 1084 488 1084 548 1034 c 128,-1,37
 608 984 608 984 608 906 c 0,14,15
406 0 m 0,38,39
 406 -146 406 -146 306 -146 c 0,40,41
 264 -146 264 -146 236 -104 c 128,-1,42
 208 -62 208 -62 208 -10 c 0,43,44
 208 44 208 44 237 85 c 128,-1,45
 266 126 266 126 316 126 c 0,46,47
 406 126 406 126 406 0 c 0,38,39
EndSplineSet
EndChar

StartChar: at
Encoding: 64 64 35
Width: 1619
GlyphClass: 2
Flags: W
LayerCount: 2
Fore
SplineSet
877 71 m 0,0,1
 870 83 870 83 867 104 c 1,2,3
 849 87 849 87 827.5 71 c 128,-1,4
 806 55 806 55 783 41 c 0,5,6
 711 -2 711 -2 640 -2 c 0,7,8
 564 -2 564 -2 495 41 c 128,-1,9
 426 84 426 84 381 178 c 0,10,11
 336 269 336 269 336 371 c 0,12,13
 336 493 336 493 401 626 c 0,14,15
 467 758 467 758 568 824 c 0,16,17
 668 890 668 890 764 890 c 0,18,19
 843 890 843 890 903 851 c 0,20,21
 929 837 929 837 950.5 818.5 c 128,-1,22
 972 800 972 800 991 774 c 1,23,24
 996 798 996 798 1002 821.5 c 128,-1,25
 1008 845 1008 845 1013 865 c 1,26,-1
 1190 865 l 1,27,-1
 1073 320 l 1,28,-1
 1050 195 l 2,29,30
 1051 190 1051 190 1054 185.5 c 128,-1,31
 1057 181 1057 181 1062 176 c 2,32,-1
 1060 178 l 2,33,34
 1072 168 1072 168 1085 168 c 0,35,36
 1122 168 1122 168 1181 210 c 0,37,38
 1263 267 1263 267 1316 371 c 0,39,40
 1370 474 1370 474 1370 583 c 0,41,42
 1370 702 1370 702 1304 813 c 0,43,44
 1272 869 1272 869 1223.5 913 c 128,-1,45
 1175 957 1175 957 1112 991 c 0,46,47
 1048 1021 1048 1021 977.5 1040.5 c 128,-1,48
 907 1060 907 1060 829 1060 c 0,49,50
 648 1060 648 1060 503 976 c 0,51,52
 429 934 429 934 372.5 874 c 128,-1,53
 316 814 316 814 274 733 c 0,54,55
 191 570 191 570 191 402 c 0,56,57
 191 311 191 311 211 230.5 c 128,-1,58
 231 150 231 150 271 83.5 c 128,-1,59
 311 17 311 17 369 -34 c 128,-1,60
 427 -85 427 -85 504 -118 c 0,61,62
 582 -152 582 -152 668 -168 c 128,-1,63
 754 -184 754 -184 849 -184 c 0,64,65
 1050 -184 1050 -184 1181 -119 c 0,66,67
 1315 -54 1315 -54 1393 54 c 1,68,-1
 1574 54 l 1,69,70
 1519 -65 1519 -65 1421 -148 c 0,71,72
 1374 -188 1374 -188 1310.5 -223.5 c 128,-1,73
 1247 -259 1247 -259 1181 -285 c 0,74,75
 1152 -295 1152 -295 1113 -305.5 c 128,-1,76
 1074 -316 1074 -316 1031 -324 c 0,77,78
 993 -331 993 -331 951 -334.5 c 128,-1,79
 909 -338 909 -338 852 -338 c 0,80,81
 716 -338 716 -338 599 -312 c 128,-1,82
 482 -286 482 -286 387 -235.5 c 128,-1,83
 292 -185 292 -185 220.5 -110.5 c 128,-1,84
 149 -36 149 -36 104 61 c 0,85,86
 37 219 37 219 37 388 c 0,87,88
 37 488 37 488 57.5 580 c 128,-1,89
 78 672 78 672 117 760 c 0,90,91
 217 973 217 973 394 1091 c 0,92,93
 575 1210 575 1210 835 1210 c 0,94,95
 935 1210 935 1210 1022 1190.5 c 128,-1,96
 1109 1171 1109 1171 1191 1129 c 0,97,98
 1272 1090 1272 1090 1335.5 1029 c 128,-1,99
 1399 968 1399 968 1448 883 c 0,100,101
 1523 740 1523 740 1523 581 c 0,102,103
 1523 464 1523 464 1480.5 359 c 128,-1,104
 1438 254 1438 254 1358 163 c 0,105,106
 1285 85 1285 85 1202.5 41.5 c 128,-1,107
 1120 -2 1120 -2 1033 -2 c 2,108,-1
 1012 -2 l 1,109,-1
 977 0 l 2,110,111
 954 4 954 4 933 18 c 1,112,-1
 934 18 l 1,113,114
 917 27 917 27 903.5 40.5 c 128,-1,115
 890 54 890 54 877 71 c 0,0,1
521 360 m 0,116,117
 521 261 521 261 566 207 c 0,118,119
 610 154 610 154 667 154 c 0,120,121
 707 154 707 154 753.5 178.5 c 128,-1,122
 800 203 800 203 839 251 c 0,123,124
 859 274 859 274 876.5 305.5 c 128,-1,125
 894 337 894 337 907 376 c 0,126,127
 936 455 936 455 936 530 c 0,128,129
 936 627 936 627 889 682 c 0,130,131
 844 735 844 735 774 735 c 0,132,133
 751 735 751 735 730 729.5 c 128,-1,134
 709 724 709 724 690 711 c 0,135,136
 646 687 646 687 611 636 c 128,-1,137
 576 585 576 585 545 500 c 1,138,-1
 545 501 l 1,139,140
 521 427 521 427 521 360 c 0,116,117
EndSplineSet
EndChar

StartChar: bracketleft
Encoding: 91 91 36
Width: 426
GlyphClass: 2
Flags: W
LayerCount: 2
Fore
SplineSet
89 1496 m 1,0,-1
 404 1496 l 1,1,-1
 404 1328 l 1,2,-1
 252 1328 l 1,3,-1
 252 -81 l 1,4,-1
 404 -81 l 1,5,-1
 404 -259 l 1,6,-1
 89 -259 l 1,7,-1
 89 1496 l 1,0,-1
EndSplineSet
EndChar

StartChar: backslash
Encoding: 92 92 37
Width: 865
GlyphClass: 2
Flags: W
LayerCount: 2
Fore
SplineSet
184 1239 m 1,0,-1
 838 -119 l 1,1,-1
 674 -119 l 1,2,-1
 16 1239 l 1,3,-1
 184 1239 l 1,0,-1
EndSplineSet
EndChar

StartChar: bracketright
Encoding: 93 93 38
Width: 428
GlyphClass: 2
Flags: W
LayerCount: 2
Fore
SplineSet
331 -259 m 1,0,-1
 16 -259 l 1,1,-1
 16 -81 l 1,2,-1
 169 -81 l 1,3,-1
 169 1328 l 1,4,-1
 16 1328 l 1,5,-1
 16 1496 l 1,6,-1
 331 1496 l 1,7,-1
 331 -259 l 1,0,-1
EndSplineSet
EndChar

StartChar: asciicircum
Encoding: 94 94 39
Width: 719
GlyphClass: 2
Flags: W
LayerCount: 2
Fore
SplineSet
180 450 m 1,0,-1
 43 450 l 1,1,-1
 306 1234 l 1,2,-1
 414 1234 l 1,3,-1
 674 450 l 1,4,-1
 540 450 l 1,5,-1
 358 1032 l 1,6,-1
 180 450 l 1,0,-1
EndSplineSet
EndChar

StartChar: underscore
Encoding: 95 95 40
Width: 1192
GlyphClass: 2
Flags: W
LayerCount: 2
Fore
SplineSet
108 -333 m 1,0,-1
 108 -226 l 1,1,-1
 1083 -226 l 1,2,-1
 1083 -333 l 1,3,-1
 108 -333 l 1,0,-1
EndSplineSet
EndChar

StartChar: braceleft
Encoding: 123 123 41
Width: 623
GlyphClass: 2
Flags: W
LayerCount: 2
Fore
SplineSet
124 705 m 1,0,1
 178 705 178 705 213.5 737.5 c 128,-1,2
 249 770 249 770 260 823 c 1,3,-1
 260 820 l 1,4,-1
 265 921 l 2,5,6
 267 948 267 948 269 977.5 c 128,-1,7
 271 1007 271 1007 273 1034 c 0,8,9
 273 1111 273 1111 274 1164.5 c 128,-1,10
 275 1218 275 1218 277 1247 c 0,11,12
 279 1277 279 1277 284.5 1305.5 c 128,-1,13
 290 1334 290 1334 299 1358 c 0,14,15
 318 1407 318 1407 345 1437.5 c 128,-1,16
 372 1468 372 1468 420 1485 c 0,17,18
 460 1500 460 1500 518 1500 c 2,19,-1
 578 1500 l 1,20,-1
 578 1319 l 1,21,-1
 533 1319 l 2,22,23
 473 1319 473 1319 451 1287 c 1,24,-1
 452 1288 l 1,25,26
 432 1259 432 1259 432 1151 c 2,27,-1
 432 960 l 1,28,-1
 429 892 l 2,29,30
 429 867 429 867 423 851 c 0,31,32
 417 804 417 804 404.5 764.5 c 128,-1,33
 392 725 392 725 376 698 c 0,34,35
 363 678 363 678 342 655.5 c 128,-1,36
 321 633 321 633 297 613 c 1,37,38
 363 567 363 567 394 494 c 0,39,40
 412 449 412 449 422 376 c 128,-1,41
 432 303 432 303 432 203 c 2,42,-1
 434 -5 l 2,43,44
 437 -58 437 -58 454 -78 c 1,45,-1
 482 -93 l 1,46,47
 501 -97 501 -97 533 -97 c 2,48,-1
 578 -97 l 1,49,-1
 578 -275 l 1,50,-1
 518 -275 l 2,51,52
 442 -275 442 -275 409 -261 c 0,53,54
 363 -237 363 -237 324 -189 c 1,55,56
 298 -148 298 -148 281 -64 c 0,57,58
 277 -29 277 -29 275 31.5 c 128,-1,59
 273 92 273 92 273 177 c 0,60,61
 273 258 273 258 270 313.5 c 128,-1,62
 267 369 267 369 260 399 c 0,63,64
 248 454 248 454 220 485 c 1,65,66
 200 499 200 499 176.5 507 c 128,-1,67
 153 515 153 515 124 515 c 1,68,-1
 124 705 l 1,0,1
EndSplineSet
EndChar

StartChar: bar
Encoding: 124 124 42
Width: 313
GlyphClass: 2
Flags: W
LayerCount: 2
Fore
SplineSet
70 -259 m 1,0,-1
 70 1586 l 1,1,-1
 242 1586 l 1,2,-1
 239 -259 l 1,3,-1
 70 -259 l 1,0,-1
EndSplineSet
EndChar

StartChar: braceright
Encoding: 125 125 43
Width: 547
GlyphClass: 2
Flags: W
LayerCount: 2
Fore
SplineSet
489 517 m 1,0,1
 458 517 458 517 435 510 c 128,-1,2
 412 503 412 503 395 489 c 0,3,4
 379 472 379 472 368 451 c 128,-1,5
 357 430 357 430 351 401 c 0,6,7
 339 341 339 341 339 179 c 0,8,9
 339 11 339 11 330 -59 c 0,10,11
 316 -146 316 -146 289 -187 c 0,12,13
 270 -210 270 -210 248.5 -228.5 c 128,-1,14
 227 -247 227 -247 203 -259 c 0,15,16
 170 -273 170 -273 94 -273 c 2,17,-1
 33 -273 l 1,18,-1
 33 -95 l 1,19,-1
 79 -95 l 2,20,21
 96 -95 96 -95 108 -93.5 c 128,-1,22
 120 -92 120 -92 131 -90 c 2,23,-1
 158 -76 l 1,24,25
 176 -55 176 -55 179 -2 c 0,26,27
 179 49 179 49 180 101 c 128,-1,28
 181 153 181 153 181 205 c 0,29,30
 181 306 181 306 190 378.5 c 128,-1,31
 199 451 199 451 218 496 c 0,32,33
 252 572 252 572 315 615 c 1,34,35
 290 635 290 635 269 657.5 c 128,-1,36
 248 680 248 680 235 700 c 0,37,38
 219 726 219 726 207.5 767 c 128,-1,39
 196 808 196 808 188 853 c 0,40,41
 185 861 185 861 184.5 870.5 c 128,-1,42
 184 880 184 880 184 894 c 2,43,-1
 181 962 l 1,44,-1
 181 1153 l 2,45,46
 181 1261 181 1261 161 1290 c 1,47,-1
 162 1289 l 1,48,49
 140 1321 140 1321 79 1321 c 2,50,-1
 33 1321 l 1,51,-1
 33 1502 l 1,52,-1
 94 1502 l 2,53,54
 153 1502 153 1502 191 1487 c 0,55,56
 237 1470 237 1470 265.5 1439 c 128,-1,57
 294 1408 294 1408 311 1360 c 0,58,59
 321 1336 321 1336 326.5 1307.5 c 128,-1,60
 332 1279 332 1279 334 1249 c 0,61,62
 336 1220 336 1220 337.5 1166 c 128,-1,63
 339 1112 339 1112 339 1037 c 1,64,-1
 348 923 l 1,65,-1
 352 825 l 1,66,67
 364 773 364 773 399 740 c 128,-1,68
 434 707 434 707 489 707 c 1,69,-1
 489 517 l 1,0,1
EndSplineSet
EndChar

StartChar: asciitilde
Encoding: 126 126 44
Width: 1161
GlyphClass: 2
Flags: W
LayerCount: 2
Fore
SplineSet
1045 747 m 1,0,-1
 1086 747 l 1,1,2
 1082 571 1082 571 1014 469.5 c 128,-1,3
 946 368 946 368 850 368 c 0,4,5
 807 368 807 368 757.5 389 c 128,-1,6
 708 410 708 410 503 535 c 0,7,8
 356 620 356 620 294 620 c 0,9,10
 229 620 229 620 183.5 562 c 128,-1,11
 138 504 138 504 118 371 c 1,12,-1
 75 371 l 1,13,14
 83 557 83 557 148.5 654.5 c 128,-1,15
 214 752 214 752 302 752 c 0,16,17
 342 752 342 752 387 732 c 0,18,19
 484 691 484 691 642.5 592.5 c 128,-1,20
 801 494 801 494 867 494 c 0,21,22
 936 494 936 494 985 559.5 c 128,-1,23
 1034 625 1034 625 1045 747 c 1,0,-1
EndSplineSet
EndChar

StartChar: cent
Encoding: 162 162 45
Width: 721
GlyphClass: 2
Flags: W
LayerCount: 2
Fore
SplineSet
598 156 m 1,0,1
 537 71 537 71 467 31 c 128,-1,2
 397 -9 397 -9 304 -17 c 1,3,-1
 228 -265 l 1,4,-1
 187 -265 l 1,5,-1
 262 -17 l 1,6,7
 177 -8 177 -8 128.5 47 c 128,-1,8
 80 102 80 102 80 188 c 0,9,10
 80 345 80 345 191.5 478.5 c 128,-1,11
 303 612 303 612 457 638 c 1,12,-1
 541 917 l 1,13,-1
 580 917 l 1,14,-1
 499 638 l 1,15,16
 580 638 580 638 616.5 607 c 128,-1,17
 653 576 653 576 653 523 c 0,18,19
 653 482 653 482 631.5 455.5 c 128,-1,20
 610 429 610 429 580 429 c 0,21,22
 557 429 557 429 544 442 c 128,-1,23
 531 455 531 455 531 476 c 0,24,25
 531 491 531 491 536 502 c 128,-1,26
 541 513 541 513 560.5 534.5 c 128,-1,27
 580 556 580 556 580 570 c 0,28,29
 580 578 580 578 575 585 c 0,30,31
 565 596 565 596 549.5 601 c 128,-1,32
 534 606 534 606 489 606 c 1,33,-1
 322 49 l 1,34,-1
 352 47 l 1,35,36
 470 47 470 47 580 173 c 1,37,-1
 598 156 l 1,0,1
284 57 m 1,38,-1
 445 598 l 1,39,40
 383 570 383 570 342 533 c 0,41,42
 274 467 274 467 237 380.5 c 128,-1,43
 200 294 200 294 200 205 c 0,44,45
 200 146 200 146 224 108 c 0,46,47
 243 81 243 81 284 57 c 1,38,-1
EndSplineSet
EndChar

StartChar: multiply
Encoding: 215 215 46
Width: 975
GlyphClass: 2
Flags: W
LayerCount: 2
Fore
SplineSet
267 230 m 1,0,-1
 515 479 l 1,1,-1
 267 728 l 1,2,-1
 308 768 l 1,3,-1
 556 520 l 1,4,-1
 805 768 l 1,5,-1
 844 728 l 1,6,-1
 595 480 l 1,7,-1
 845 230 l 1,8,-1
 805 190 l 1,9,-1
 555 439 l 1,10,-1
 307 190 l 1,11,-1
 267 230 l 1,0,-1
EndSplineSet
EndChar

StartChar: divide
Encoding: 247 247 47
Width: 1086
GlyphClass: 2
Flags: W
LayerCount: 2
Fore
SplineSet
672 738 m 0,0,1
 672 670 672 670 625 621 c 128,-1,2
 578 572 578 572 514 572 c 0,3,4
 462 572 462 572 427 617 c 128,-1,5
 392 662 392 662 392 720 c 0,6,7
 392 786 392 786 438 836 c 128,-1,8
 484 886 484 886 548 886 c 0,9,10
 602 886 602 886 637 842 c 128,-1,11
 672 798 672 798 672 738 c 0,0,1
1002 342 m 1,12,-1
 324 342 l 1,13,14
 286 358 286 358 198 440 c 0,15,16
 86 542 86 542 84 544 c 2,17,-1
 790 544 l 1,18,19
 840 518 840 518 1002 342 c 1,12,-1
682 176 m 0,20,21
 682 104 682 104 639 52 c 128,-1,22
 596 0 596 0 532 0 c 0,23,24
 478 0 478 0 442 44 c 128,-1,25
 406 88 406 88 406 146 c 0,26,27
 406 214 406 214 449 263 c 128,-1,28
 492 312 492 312 556 312 c 0,29,30
 610 312 610 312 646 272 c 128,-1,31
 682 232 682 232 682 176 c 0,20,21
EndSplineSet
EndChar

StartChar: tm_visarga
Encoding: 2947 2947 48
Width: 742
GlyphClass: 2
Flags: W
LayerCount: 2
Fore
SplineSet
534 608 m 0,0,1
 534 526 534 526 485 462 c 128,-1,2
 436 398 436 398 362 398 c 0,3,4
 298 398 298 398 256 460 c 0,5,6
 220 514 220 514 220 588 c 0,7,8
 220 668 220 668 263 728 c 128,-1,9
 306 788 306 788 376 788 c 0,10,11
 444 788 444 788 489 734 c 128,-1,12
 534 680 534 680 534 608 c 0,0,1
712 210 m 0,13,14
 712 128 712 128 668 66 c 0,15,16
 618 0 618 0 544 0 c 0,17,18
 478 0 478 0 436 62 c 0,19,20
 398 116 398 116 398 190 c 0,21,22
 398 268 398 268 443 329 c 128,-1,23
 488 390 488 390 558 390 c 256,24,25
 628 390 628 390 670 337 c 128,-1,26
 712 284 712 284 712 210 c 0,13,14
344 210 m 0,27,28
 344 128 344 128 295 64 c 128,-1,29
 246 0 246 0 172 0 c 0,30,31
 106 0 106 0 66 60 c 0,32,33
 30 114 30 114 30 190 c 0,34,35
 30 268 30 268 73 329 c 128,-1,36
 116 390 116 390 184 390 c 256,37,38
 252 390 252 390 298 336 c 128,-1,39
 344 282 344 282 344 210 c 0,27,28
EndSplineSet
EndChar

StartChar: tm_a
Encoding: 2949 2949 49
Width: 1066
GlyphClass: 2
Flags: W
LayerCount: 2
Fore
SplineSet
498 638 m 0,0,1
 498 546 498 546 445 480 c 128,-1,2
 392 414 392 414 310 414 c 0,3,4
 244 414 244 414 206 470 c 0,5,6
 174 518 174 518 174 586 c 0,7,8
 174 680 174 680 227 742 c 128,-1,9
 280 804 280 804 362 804 c 0,10,11
 422 804 422 804 460 755 c 128,-1,12
 498 706 498 706 498 638 c 0,0,1
996 686 m 2,13,-1
 984 -228 l 1,14,15
 910 -206 910 -206 882 -170 c 0,16,17
 844 -124 844 -124 844 -20 c 0,18,19
 844 12 844 12 850 80 c 0,20,21
 856 156 856 156 856 186 c 1,22,-1
 726 186 l 1,23,24
 670 -36 670 -36 578 -164 c 0,25,26
 480 -300 480 -300 362 -300 c 0,27,28
 228 -300 228 -300 120 -124 c 0,29,30
 30 24 30 24 30 130 c 0,31,32
 30 388 30 388 254 388 c 2,33,-1
 560 388 l 1,34,35
 580 428 580 428 580 488 c 0,36,37
 580 656 580 656 518 752 c 0,38,39
 464 836 464 836 366 836 c 0,40,41
 314 836 314 836 274 814 c 1,42,43
 284 870 284 870 386 922 c 0,44,45
 474 966 474 966 522 966 c 0,46,47
 636 966 636 966 700 836 c 0,48,49
 752 726 752 726 752 572 c 2,50,-1
 752 388 l 1,51,-1
 860 388 l 1,52,-1
 866 860 l 1,53,54
 920 844 920 844 958 796 c 128,-1,55
 996 748 996 748 996 686 c 2,13,-1
496 186 m 1,56,-1
 218 186 l 2,57,58
 138 186 138 186 138 120 c 0,59,60
 138 82 138 82 194 41 c 128,-1,61
 250 0 250 0 310 0 c 0,62,63
 354 0 354 0 425 66 c 128,-1,64
 496 132 496 132 496 186 c 1,56,-1
EndSplineSet
EndChar

StartChar: tm_aa
Encoding: 2950 2950 50
Width: 1326
GlyphClass: 2
Flags: W
LayerCount: 2
Fore
SplineSet
498 638 m 0,0,1
 498 546 498 546 444 480 c 128,-1,2
 390 414 390 414 306 414 c 0,3,4
 242 414 242 414 204 470 c 0,5,6
 170 518 170 518 170 586 c 0,7,8
 170 678 170 678 226 742 c 128,-1,9
 282 806 282 806 354 806 c 0,10,11
 416 806 416 806 457 756 c 128,-1,12
 498 706 498 706 498 638 c 0,0,1
1296 120 m 0,13,14
 1296 -30 1296 -30 1172 -232 c 0,15,16
 1056 -422 1056 -422 894 -556 c 0,17,18
 720 -700 720 -700 590 -700 c 0,19,20
 534 -700 534 -700 534 -612 c 0,21,22
 534 -554 534 -554 562 -466 c 0,23,24
 596 -364 596 -364 638 -346 c 1,25,26
 724 -398 724 -398 788 -398 c 0,27,28
 910 -398 910 -398 1038 -268 c 128,-1,29
 1166 -138 1166 -138 1166 -30 c 0,30,31
 1166 36 1166 36 1106 36 c 0,32,33
 996 36 996 36 986 -94 c 2,34,-1
 976 -224 l 1,35,36
 902 -206 902 -206 871 -161 c 128,-1,37
 840 -116 840 -116 840 -16 c 0,38,39
 840 26 840 26 856 186 c 1,40,-1
 720 186 l 1,41,42
 598 -300 598 -300 352 -300 c 0,43,44
 236 -300 236 -300 130 -142 c 0,45,46
 30 6 30 6 30 136 c 0,47,48
 30 388 30 388 238 388 c 2,49,-1
 556 388 l 1,50,51
 572 414 572 414 572 494 c 0,52,53
 572 674 572 674 504 764 c 0,54,55
 448 836 448 836 364 836 c 0,56,57
 328 836 328 836 266 816 c 1,58,59
 282 866 282 866 376 918 c 0,60,61
 464 966 464 966 518 966 c 0,62,63
 624 966 624 966 690 846 c 0,64,65
 748 734 748 734 748 576 c 2,66,-1
 748 388 l 1,67,-1
 856 388 l 1,68,-1
 862 862 l 1,69,70
 992 818 992 818 992 670 c 2,71,-1
 990 250 l 1,72,73
 1038 344 1038 344 1152 344 c 0,74,75
 1218 344 1218 344 1257 281 c 128,-1,76
 1296 218 1296 218 1296 120 c 0,13,14
494 186 m 1,77,-1
 228 186 l 2,78,79
 136 186 136 186 136 116 c 0,80,81
 136 86 136 86 192 43 c 128,-1,82
 248 0 248 0 300 0 c 0,83,84
 350 0 350 0 424 73 c 128,-1,85
 498 146 498 146 494 186 c 1,77,-1
EndSplineSet
EndChar

StartChar: tm_i
Encoding: 2951 2951 51
Width: 1022
GlyphClass: 2
Flags: W
LayerCount: 2
Fore
SplineSet
1008 34 m 0,0,1
 1008 -98 1008 -98 935 -188 c 128,-1,2
 862 -278 862 -278 746 -278 c 0,3,4
 612 -278 612 -278 488 -154 c 1,5,6
 362 -284 362 -284 234 -284 c 0,7,8
 130 -284 130 -284 72 -207 c 128,-1,9
 14 -130 14 -130 14 6 c 0,10,11
 14 118 14 118 46 194 c 0,12,13
 72 258 72 258 160 382 c 1,14,15
 140 440 140 440 140 574 c 0,16,17
 140 860 140 860 312 1056 c 0,18,19
 458 1222 458 1222 606 1222 c 0,20,21
 676 1222 676 1222 704 1164 c 0,22,23
 722 1122 722 1122 722 1026 c 0,24,25
 722 904 722 904 684 890 c 1,26,27
 626 942 626 942 550 942 c 0,28,29
 408 942 408 942 308 802 c 0,30,31
 218 676 218 676 218 536 c 0,32,33
 218 416 218 416 270 308 c 0,34,35
 324 192 324 192 414 146 c 1,36,37
 448 162 448 162 493 254 c 128,-1,38
 538 346 538 346 538 382 c 0,39,40
 538 412 538 412 504 412 c 0,41,42
 478 412 478 412 425 376 c 128,-1,43
 372 340 372 340 336 340 c 0,44,45
 292 340 292 340 266 385 c 128,-1,46
 240 430 240 430 240 500 c 0,47,48
 240 580 240 580 283 646 c 128,-1,49
 326 712 326 712 390 712 c 0,50,51
 524 712 524 712 510 530 c 1,52,-1
 554 530 l 1,53,54
 552 660 552 660 500 712 c 0,55,56
 460 750 460 750 368 754 c 1,57,58
 418 844 418 844 534 844 c 0,59,60
 636 844 636 844 692 744 c 0,61,62
 740 658 740 658 740 530 c 0,63,64
 740 504 740 504 738 480 c 1,65,66
 852 432 852 432 930 306 c 128,-1,67
 1008 180 1008 180 1008 34 c 0,0,1
788 178 m 0,68,69
 788 220 788 220 766 268 c 128,-1,70
 744 316 744 316 712 340 c 1,71,-1
 622 68 l 1,72,73
 642 60 642 60 662 60 c 0,74,75
 712 60 712 60 750 96 c 128,-1,76
 788 132 788 132 788 178 c 0,68,69
300 60 m 1,77,78
 232 156 232 156 192 252 c 1,79,80
 160 208 160 208 160 138 c 0,81,82
 160 56 160 56 258 56 c 0,83,84
 278 56 278 56 300 60 c 1,77,78
EndSplineSet
EndChar

StartChar: tm_ii
Encoding: 2952 2952 52
Width: 760
GlyphClass: 2
Flags: W
LayerCount: 2
Fore
SplineSet
746 284 m 0,0,1
 746 188 746 188 658 188 c 0,2,3
 566 188 566 188 566 278 c 0,4,5
 566 380 566 380 648 380 c 0,6,7
 690 380 690 380 718 353 c 128,-1,8
 746 326 746 326 746 284 c 0,0,1
374 288 m 0,9,10
 374 188 374 188 284 188 c 0,11,12
 196 188 196 188 196 282 c 0,13,14
 196 380 196 380 284 380 c 0,15,16
 322 380 322 380 348 354 c 128,-1,17
 374 328 374 328 374 288 c 0,9,10
534 708 m 1,18,-1
 508 -190 l 2,19,20
 506 -250 506 -250 524 -314 c 1,21,22
 386 -278 386 -278 388 -158 c 2,23,-1
 394 388 l 2,24,25
 394 440 394 440 396 428 c 1,26,27
 394 450 394 450 372 450 c 0,28,29
 302 450 302 450 244 416 c 0,30,31
 170 372 170 372 170 294 c 0,32,33
 170 186 170 186 280 66 c 1,34,-1
 192 2 l 1,35,36
 30 136 30 136 30 428 c 0,37,38
 30 618 30 618 118 682 c 0,39,40
 182 728 182 728 358 728 c 0,41,42
 498 728 498 728 534 708 c 1,18,-1
EndSplineSet
EndChar

StartChar: tm_u
Encoding: 2953 2953 53
Width: 884
GlyphClass: 2
Flags: W
LayerCount: 2
Fore
SplineSet
396 546 m 0,0,1
 396 450 396 450 326 373 c 128,-1,2
 256 296 256 296 160 296 c 0,3,4
 108 296 108 296 69 336 c 128,-1,5
 30 376 30 376 30 430 c 0,6,7
 30 508 30 508 98 589 c 128,-1,8
 166 670 166 670 258 670 c 0,9,10
 314 670 314 670 355 633 c 128,-1,11
 396 596 396 596 396 546 c 0,0,1
874 -280 m 1,12,-1
 310 -280 l 2,13,14
 186 -280 186 -280 108 -232 c 0,15,16
 14 -174 14 -174 14 -56 c 0,17,18
 14 60 14 60 126 164 c 1,19,20
 230 248 230 248 336 334 c 1,21,22
 448 436 448 436 448 550 c 0,23,24
 448 630 448 630 392 670 c 0,25,26
 348 702 348 702 278 702 c 0,27,28
 234 702 234 702 200 690 c 1,29,30
 230 720 230 720 294 752 c 0,31,32
 374 790 374 790 440 790 c 0,33,34
 538 790 538 790 610 735 c 128,-1,35
 682 680 682 680 682 586 c 0,36,37
 682 458 682 458 546 328 c 0,38,39
 484 268 484 268 296 136 c 0,40,41
 160 40 160 40 160 0 c 0,42,43
 160 -42 160 -42 252 -48 c 1,44,45
 242 -48 242 -48 422 -48 c 0,46,47
 478 -48 478 -48 577 -45 c 128,-1,48
 676 -42 676 -42 718 -42 c 0,49,50
 774 -42 774 -42 814 -116 c 0,51,52
 842 -164 842 -164 874 -280 c 1,12,-1
EndSplineSet
EndChar

StartChar: tm_uu
Encoding: 2954 2954 54
Width: 1680
GlyphClass: 2
Flags: W
LayerCount: 2
Fore
SplineSet
390 548 m 0,0,1
 390 450 390 450 320 373 c 128,-1,2
 250 296 250 296 154 296 c 0,3,4
 102 296 102 296 64 336 c 128,-1,5
 26 376 26 376 26 430 c 0,6,7
 26 508 26 508 90 586 c 0,8,9
 160 672 160 672 250 672 c 0,10,11
 306 672 306 672 348 634 c 128,-1,12
 390 596 390 596 390 548 c 0,0,1
1084 280 m 0,13,14
 1084 194 1084 194 1042 130 c 0,15,16
 996 60 996 60 922 60 c 256,17,18
 848 60 848 60 805 118 c 128,-1,19
 762 176 762 176 762 254 c 0,20,21
 762 338 762 338 806 404 c 128,-1,22
 850 470 850 470 924 470 c 0,23,24
 1084 470 1084 470 1084 280 c 0,13,14
1666 642 m 0,25,26
 1666 604 1666 604 1654 440 c 1,27,28
 1606 466 1606 466 1552 466 c 0,29,30
 1516 466 1516 466 1514 398 c 2,31,-1
 1490 -256 l 1,32,-1
 1368 -148 l 1,33,-1
 1380 436 l 1,34,35
 1326 436 1326 436 1290 377 c 128,-1,36
 1254 318 1254 318 1254 242 c 2,37,-1
 1254 -18 l 1,38,-1
 1126 82 l 1,39,-1
 1132 296 l 2,40,41
 1138 512 1138 512 964 512 c 0,42,43
 906 512 906 512 860 488 c 0,44,45
 828 470 828 470 756 410 c 1,46,47
 758 520 758 520 832 620 c 0,48,49
 916 732 916 732 1036 732 c 0,50,51
 1110 732 1110 732 1180 686 c 128,-1,52
 1250 640 1250 640 1254 596 c 1,53,54
 1332 768 1332 768 1568 768 c 0,55,56
 1630 768 1630 768 1652 734 c 0,57,58
 1666 708 1666 708 1666 642 c 0,25,26
1390 -280 m 1,59,-1
 304 -280 l 2,60,61
 182 -280 182 -280 104 -230 c 0,62,63
 10 -170 10 -170 10 -54 c 256,64,65
 10 62 10 62 122 166 c 1,66,67
 226 250 226 250 330 334 c 1,68,69
 442 436 442 436 442 550 c 0,70,71
 442 626 442 626 390 668 c 0,72,73
 346 704 346 704 280 704 c 0,74,75
 226 704 226 704 186 680 c 1,76,77
 200 710 200 710 278 748 c 0,78,79
 364 792 364 792 434 792 c 0,80,81
 530 792 530 792 602 736 c 128,-1,82
 674 680 674 680 674 586 c 0,83,84
 674 460 674 460 540 330 c 0,85,86
 480 270 480 270 290 136 c 0,87,88
 156 42 156 42 156 0 c 256,89,90
 156 -42 156 -42 250 -50 c 0,91,92
 272 -52 272 -52 420 -52 c 0,93,94
 484 -52 484 -52 847 -47 c 128,-1,95
 1210 -42 1210 -42 1234 -42 c 0,96,97
 1336 -42 1336 -42 1390 -280 c 1,59,-1
EndSplineSet
EndChar

StartChar: tm_e
Encoding: 2958 2958 55
Width: 708
GlyphClass: 2
Flags: W
LayerCount: 2
Fore
SplineSet
694 532 m 0,0,1
 694 490 694 490 688 424 c 1,2,-1
 576 470 l 1,3,-1
 564 -58 l 1,4,-1
 454 20 l 1,5,-1
 454 476 l 1,6,7
 408 480 408 480 368 480 c 0,8,9
 82 480 82 480 30 294 c 1,10,11
 14 314 14 314 14 346 c 0,12,13
 14 726 14 726 538 726 c 0,14,15
 650 726 650 726 676 684 c 0,16,17
 694 656 694 656 694 532 c 0,0,1
366 212 m 0,18,19
 366 124 366 124 316 62 c 128,-1,20
 266 0 266 0 186 0 c 0,21,22
 120 0 120 0 80 58 c 128,-1,23
 40 116 40 116 40 190 c 0,24,25
 40 270 40 270 85 337 c 128,-1,26
 130 404 130 404 202 404 c 0,27,28
 366 404 366 404 366 212 c 0,18,19
EndSplineSet
EndChar

StartChar: tm_ee
Encoding: 2959 2959 56
Width: 704
GlyphClass: 2
Flags: W
LayerCount: 2
Fore
SplineSet
364 212 m 0,0,1
 364 124 364 124 314 62 c 128,-1,2
 264 0 264 0 186 0 c 0,3,4
 120 0 120 0 78 60 c 0,5,6
 42 114 42 114 42 188 c 0,7,8
 42 270 42 270 84 332 c 0,9,10
 130 404 130 404 202 404 c 0,11,12
 364 404 364 404 364 212 c 0,0,1
690 530 m 0,13,14
 690 446 690 446 688 422 c 1,15,-1
 574 472 l 1,16,-1
 566 -136 l 1,17,18
 226 -216 226 -216 102 -416 c 1,19,20
 30 -280 30 -280 30 -176 c 0,21,22
 30 -26 30 -26 452 20 c 1,23,-1
 452 474 l 1,24,25
 410 478 410 478 370 478 c 0,26,27
 80 478 80 478 30 290 c 1,28,29
 14 310 14 310 14 348 c 0,30,31
 14 472 14 472 82 563 c 128,-1,32
 150 654 150 654 266 692 c 0,33,34
 370 726 370 726 538 726 c 0,35,36
 650 726 650 726 676 680 c 0,37,38
 690 654 690 654 690 530 c 0,13,14
EndSplineSet
EndChar

StartChar: tm_ai
Encoding: 2960 2960 57
Width: 856
GlyphClass: 2
Flags: W
LayerCount: 2
Fore
SplineSet
332 488 m 0,0,1
 332 432 332 432 281 390 c 128,-1,2
 230 348 230 348 174 348 c 0,3,4
 116 348 116 348 83 386 c 128,-1,5
 50 424 50 424 50 482 c 0,6,7
 50 544 50 544 85 588 c 128,-1,8
 120 632 120 632 184 632 c 0,9,10
 244 632 244 632 288 592 c 128,-1,11
 332 552 332 552 332 488 c 0,0,1
842 110 m 0,12,13
 842 -6 842 -6 762 -128 c 0,14,15
 676 -256 676 -256 576 -256 c 0,16,17
 504 -256 504 -256 440 -161 c 128,-1,18
 376 -66 376 -66 366 54 c 1,19,20
 294 -30 294 -30 268 -54 c 0,21,22
 202 -112 202 -112 138 -112 c 0,23,24
 84 -112 84 -112 49 -73 c 128,-1,25
 14 -34 14 -34 14 26 c 0,26,27
 14 182 14 182 160 280 c 0,28,29
 238 334 238 334 416 392 c 0,30,31
 482 414 482 414 534 458 c 0,32,33
 578 496 578 496 578 516 c 256,34,35
 578 536 578 536 555 556 c 128,-1,36
 532 576 532 576 508 576 c 0,37,38
 482 576 482 576 468 547 c 128,-1,39
 454 518 454 518 454 494 c 0,40,41
 454 462 454 462 474 456 c 1,42,43
 460 438 460 438 408 432 c 0,44,45
 360 426 360 426 340 436 c 1,46,47
 356 478 356 478 356 512 c 0,48,49
 356 578 356 578 304 620 c 128,-1,50
 252 662 252 662 184 662 c 0,51,52
 134 662 134 662 92 634 c 128,-1,53
 50 606 50 606 46 562 c 1,54,55
 28 576 28 576 28 604 c 0,56,57
 28 666 28 666 90 732 c 0,58,59
 158 806 158 806 242 806 c 0,60,61
 386 806 386 806 416 722 c 1,62,63
 426 750 426 750 468 781 c 128,-1,64
 510 812 510 812 552 812 c 0,65,66
 626 812 626 812 681 755 c 128,-1,67
 736 698 736 698 736 626 c 0,68,69
 736 472 736 472 492 350 c 0,70,71
 408 310 408 310 326 269 c 128,-1,72
 244 228 244 228 244 180 c 0,73,74
 244 122 244 122 274 122 c 0,75,76
 296 122 296 122 316 156 c 128,-1,77
 336 190 336 190 336 224 c 0,78,79
 336 240 336 240 332 250 c 1,80,81
 362 280 362 280 416 280 c 0,82,83
 468 280 468 280 489 150 c 128,-1,84
 510 20 510 20 542 20 c 0,85,86
 576 20 576 20 597 56 c 128,-1,87
 618 92 618 92 618 134 c 0,88,89
 618 172 618 172 602 188 c 1,90,91
 626 218 626 218 704 218 c 0,92,93
 770 218 770 218 798 202 c 0,94,95
 842 178 842 178 842 110 c 0,12,13
EndSplineSet
EndChar

StartChar: tm_o
Encoding: 2962 2962 58
Width: 850
GlyphClass: 2
Flags: W
LayerCount: 2
Fore
SplineSet
424 426 m 0,0,1
 424 330 424 330 359 270 c 128,-1,2
 294 210 294 210 200 210 c 0,3,4
 132 210 132 210 81 273 c 128,-1,5
 30 336 30 336 30 414 c 0,6,7
 30 508 30 508 86 572 c 128,-1,8
 142 636 142 636 234 636 c 0,9,10
 316 636 316 636 370 574 c 128,-1,11
 424 512 424 512 424 426 c 0,0,1
834 160 m 1,12,13
 728 162 728 162 636 10 c 1,14,15
 558 -132 558 -132 480 -274 c 1,16,17
 378 -426 378 -426 246 -426 c 0,18,19
 116 -426 116 -426 36 -328 c 0,20,21
 -36 -240 -36 -240 -36 -124 c 0,22,23
 -36 -48 -36 -48 30 4 c 0,24,25
 90 52 90 52 178 64 c 1,26,27
 148 14 148 14 148 -52 c 0,28,29
 148 -100 148 -100 186 -148 c 0,30,31
 234 -208 234 -208 310 -208 c 0,32,33
 398 -208 398 -208 458 -114 c 1,34,35
 512 -18 512 -18 564 80 c 1,36,37
 538 76 538 76 516 76 c 0,38,39
 428 76 428 76 376 116 c 0,40,41
 334 146 334 146 334 178 c 0,42,43
 334 186 334 186 372 218 c 0,44,45
 418 256 418 256 444 300 c 0,46,47
 482 368 482 368 482 460 c 0,48,49
 482 662 482 662 260 662 c 0,50,51
 200 662 200 662 138 646 c 1,52,53
 260 788 260 788 482 788 c 0,54,55
 606 788 606 788 692 734 c 0,56,57
 790 674 790 674 790 572 c 0,58,59
 790 460 790 460 674 342 c 0,60,61
 578 244 578 244 488 212 c 1,62,63
 516 194 516 194 596 194 c 0,64,65
 658 194 658 194 774 284 c 1,66,67
 798 276 798 276 820 229 c 128,-1,68
 842 182 842 182 834 160 c 1,12,13
EndSplineSet
EndChar

StartChar: tm_oo
Encoding: 2963 2963 59
Width: 854
GlyphClass: 2
Flags: W
LayerCount: 2
Fore
SplineSet
428 426 m 0,0,1
 428 332 428 332 356 268 c 0,2,3
 292 210 292 210 210 210 c 0,4,5
 134 210 134 210 83 270 c 128,-1,6
 32 330 32 330 32 410 c 0,7,8
 32 500 32 500 89 569 c 128,-1,9
 146 638 146 638 230 638 c 256,10,11
 314 638 314 638 371 575 c 128,-1,12
 428 512 428 512 428 426 c 0,0,1
838 156 m 1,13,14
 732 166 732 166 640 16 c 1,15,16
 564 -126 564 -126 486 -270 c 1,17,18
 382 -426 382 -426 244 -426 c 0,19,20
 122 -426 122 -426 38 -322 c 0,21,22
 -36 -230 -36 -230 -36 -122 c 0,23,24
 -36 -46 -36 -46 32 4 c 0,25,26
 90 50 90 50 182 64 c 1,27,28
 150 10 150 10 150 -46 c 0,29,30
 150 -98 150 -98 188 -148 c 0,31,32
 234 -212 234 -212 314 -212 c 0,33,34
 402 -212 402 -212 470 -98 c 1,35,36
 518 -8 518 -8 566 82 c 1,37,38
 540 78 540 78 518 78 c 0,39,40
 432 78 432 78 380 116 c 0,41,42
 340 146 340 146 340 176 c 0,43,44
 340 186 340 186 376 218 c 0,45,46
 422 258 422 258 446 300 c 0,47,48
 482 366 482 366 482 456 c 0,49,50
 482 666 482 666 262 666 c 0,51,52
 200 666 200 666 136 646 c 1,53,54
 180 698 180 698 272 738 c 0,55,56
 372 782 372 782 474 782 c 0,57,58
 618 782 618 782 706 727 c 128,-1,59
 794 672 794 672 794 574 c 0,60,61
 794 462 794 462 680 346 c 0,62,63
 588 252 588 252 488 210 c 1,64,65
 548 190 548 190 600 190 c 0,66,67
 642 190 642 190 778 284 c 1,68,69
 802 276 802 276 824 227 c 128,-1,70
 846 178 846 178 838 156 c 1,13,14
416 -52 m 0,71,72
 416 -102 416 -102 386 -142 c 128,-1,73
 356 -182 356 -182 312 -182 c 0,74,75
 194 -182 194 -182 194 -30 c 0,76,77
 194 84 194 84 286 84 c 0,78,79
 342 84 342 84 379 46 c 128,-1,80
 416 8 416 8 416 -52 c 0,71,72
EndSplineSet
EndChar

StartChar: tm_au
Encoding: 2964 2964 60
Width: 1754
GlyphClass: 2
Flags: W
LayerCount: 2
Fore
SplineSet
426 430 m 0,0,1
 426 332 426 332 366 271 c 128,-1,2
 306 210 306 210 214 210 c 0,3,4
 138 210 138 210 85 273 c 128,-1,5
 32 336 32 336 32 416 c 0,6,7
 32 504 32 504 92 571 c 128,-1,8
 152 638 152 638 236 638 c 256,9,10
 320 638 320 638 373 578 c 128,-1,11
 426 518 426 518 426 430 c 0,0,1
1176 276 m 0,12,13
 1176 190 1176 190 1134 128 c 0,14,15
 1088 56 1088 56 1014 56 c 0,16,17
 944 56 944 56 900 118 c 0,18,19
 862 174 862 174 862 250 c 0,20,21
 862 332 862 332 904 395 c 128,-1,22
 946 458 946 458 1018 458 c 0,23,24
 1176 458 1176 458 1176 276 c 0,12,13
1740 626 m 0,25,26
 1740 598 1740 598 1734 526 c 0,27,28
 1728 442 1728 442 1728 428 c 1,29,30
 1692 454 1692 454 1628 454 c 0,31,32
 1592 454 1592 454 1590 396 c 2,33,-1
 1570 -250 l 1,34,-1
 1448 -146 l 1,35,-1
 1458 428 l 1,36,37
 1408 428 1408 428 1373 369 c 128,-1,38
 1338 310 1338 310 1338 236 c 2,39,-1
 1338 -20 l 1,40,-1
 1214 76 l 1,41,-1
 1220 292 l 2,42,43
 1226 500 1226 500 1058 500 c 0,44,45
 974 500 974 500 856 404 c 1,46,47
 858 510 858 510 930 608 c 0,48,49
 1012 720 1012 720 1126 720 c 0,50,51
 1198 720 1198 720 1267 673 c 128,-1,52
 1336 626 1336 626 1338 582 c 1,53,54
 1418 752 1418 752 1644 752 c 0,55,56
 1708 752 1708 752 1728 710 c 0,57,58
 1740 686 1740 686 1740 626 c 0,25,26
836 158 m 1,59,60
 728 162 728 162 638 10 c 1,61,62
 562 -132 562 -132 484 -272 c 1,63,64
 382 -426 382 -426 244 -426 c 0,65,66
 124 -426 124 -426 42 -324 c 0,67,68
 -32 -234 -32 -234 -32 -126 c 0,69,70
 -32 -50 -32 -50 34 4 c 0,71,72
 94 54 94 54 184 66 c 1,73,74
 154 18 154 18 154 -44 c 0,75,76
 154 -96 154 -96 190 -146 c 0,77,78
 238 -210 238 -210 318 -210 c 0,79,80
 382 -210 382 -210 430 -154 c 0,81,82
 460 -120 460 -120 503 -34 c 128,-1,83
 546 52 546 52 568 80 c 1,84,85
 544 78 544 78 522 78 c 0,86,87
 436 78 436 78 382 116 c 0,88,89
 338 148 338 148 338 178 c 0,90,91
 338 184 338 184 376 218 c 0,92,93
 422 260 422 260 448 304 c 0,94,95
 486 370 486 370 486 458 c 0,96,97
 486 562 486 562 420 616 c 0,98,99
 362 664 362 664 268 664 c 0,100,101
 202 664 202 664 136 640 c 1,102,103
 180 700 180 700 280 743 c 128,-1,104
 380 786 380 786 484 786 c 0,105,106
 604 786 604 786 692 736 c 0,107,108
 794 678 794 678 794 576 c 0,109,110
 794 456 794 456 672 334 c 0,111,112
 576 240 576 240 494 210 c 1,113,114
 534 192 534 192 598 192 c 0,115,116
 660 192 660 192 780 286 c 1,117,118
 798 278 798 278 819 239 c 128,-1,119
 840 200 840 200 840 174 c 0,120,121
 840 164 840 164 836 158 c 1,59,60
EndSplineSet
EndChar

StartChar: tm_ka
Encoding: 2965 2965 61
Width: 838
GlyphClass: 2
Flags: W
LayerCount: 2
Fore
SplineSet
808 324 m 0,0,1
 808 170 808 170 744 76 c 0,2,3
 686 -10 686 -10 606 -10 c 0,4,5
 560 -10 560 -10 534 69 c 128,-1,6
 508 148 508 148 512 272 c 1,7,8
 564 264 564 264 614 295 c 128,-1,9
 664 326 664 326 664 380 c 1,10,-1
 502 380 l 1,11,12
 490 200 490 200 430 94 c 0,13,14
 364 -24 364 -24 252 -24 c 0,15,16
 146 -24 146 -24 84 88 c 0,17,18
 30 188 30 188 30 334 c 0,19,20
 30 426 30 426 56 526 c 1,21,-1
 98 548 l 1,22,-1
 140 548 l 1,23,24
 104 626 104 626 104 714 c 0,25,26
 104 810 104 810 188 864 c 0,27,28
 260 910 260 910 366 910 c 0,29,30
 446 910 446 910 471 895 c 128,-1,31
 496 880 496 880 498 816 c 2,32,-1
 506 558 l 1,33,34
 660 564 660 564 724 526 c 0,35,36
 808 474 808 474 808 324 c 0,0,1
384 614 m 0,37,38
 384 670 384 670 356 670 c 0,39,40
 326 670 326 670 260 632 c 0,41,42
 184 588 184 588 190 552 c 1,43,-1
 372 552 l 1,44,45
 384 576 384 576 384 614 c 0,37,38
326 374 m 1,46,-1
 184 374 l 2,47,48
 140 374 140 374 140 350 c 0,49,50
 140 334 140 334 174 311 c 128,-1,51
 208 288 208 288 228 288 c 0,52,53
 246 288 246 288 281 321 c 128,-1,54
 316 354 316 354 326 374 c 1,46,-1
EndSplineSet
EndChar

StartChar: tm_nga
Encoding: 2969 2969 62
Width: 1090
GlyphClass: 2
Flags: W
LayerCount: 2
Fore
SplineSet
1020 88 m 2,0,1
 1020 -478 1020 -478 732 -478 c 0,2,3
 596 -478 596 -478 500 -354 c 0,4,5
 420 -252 420 -252 388 -102 c 1,6,7
 458 -72 458 -72 562 16 c 0,8,9
 698 136 698 136 698 230 c 0,10,11
 698 282 698 282 638 282 c 0,12,13
 600 282 600 282 548 222 c 0,14,15
 492 156 492 156 492 90 c 2,16,-1
 492 10 l 2,17,18
 492 -40 492 -40 456 -40 c 0,19,20
 358 -40 358 -40 362 90 c 2,21,-1
 372 442 l 1,22,23
 186 442 186 442 186 306 c 0,24,25
 186 196 186 196 278 68 c 1,26,-1
 154 2 l 1,27,28
 30 184 30 184 30 410 c 0,29,30
 30 602 30 602 152 678 c 0,31,32
 258 744 258 744 506 744 c 0,33,34
 624 744 624 744 652 719 c 128,-1,35
 680 694 680 694 680 598 c 2,36,-1
 680 466 l 1,37,38
 658 442 658 442 498 442 c 1,39,-1
 498 296 l 1,40,41
 526 330 526 330 576 362 c 0,42,43
 642 404 642 404 698 404 c 0,44,45
 752 404 752 404 786 364 c 128,-1,46
 820 324 820 324 820 256 c 0,47,48
 820 148 820 148 720 28 c 1,49,50
 648 -46 648 -46 576 -118 c 1,51,52
 652 -156 652 -156 700 -156 c 0,53,54
 770 -156 770 -156 826 -88 c 128,-1,55
 882 -20 882 -20 882 52 c 2,56,-1
 882 686 l 1,57,-1
 898 736 l 1,58,-1
 1020 658 l 1,59,-1
 1020 88 l 2,0,1
EndSplineSet
EndChar

StartChar: tm_ca
Encoding: 2970 2970 63
Width: 844
GlyphClass: 2
Flags: W
LayerCount: 2
Fore
SplineSet
830 556 m 1,0,1
 804 504 804 504 778 454 c 1,2,3
 730 380 730 380 664 380 c 2,4,-1
 494 380 l 1,5,6
 494 204 494 204 425 90 c 128,-1,7
 356 -24 356 -24 250 -24 c 0,8,9
 152 -24 152 -24 91 81 c 128,-1,10
 30 186 30 186 30 338 c 0,11,12
 30 458 30 458 52 530 c 1,13,-1
 94 552 l 1,14,-1
 136 552 l 1,15,16
 104 622 104 622 104 722 c 0,17,18
 104 814 104 814 186 866 c 0,19,20
 258 914 258 914 374 914 c 0,21,22
 448 914 448 914 473 895 c 128,-1,23
 498 876 498 876 498 806 c 2,24,-1
 498 556 l 1,25,-1
 830 556 l 1,0,1
380 618 m 0,26,27
 380 670 380 670 352 670 c 0,28,29
 322 670 322 670 256 634 c 0,30,31
 180 592 180 592 186 556 c 1,32,-1
 370 556 l 1,33,34
 380 576 380 576 380 618 c 0,26,27
322 380 m 1,35,-1
 178 380 l 2,36,37
 136 380 136 380 136 354 c 0,38,39
 136 338 136 338 172 315 c 128,-1,40
 208 292 208 292 228 292 c 0,41,42
 266 292 266 292 322 380 c 1,35,-1
EndSplineSet
EndChar

StartChar: tm_ja
Encoding: 2972 2972 64
Width: 876
GlyphClass: 2
Flags: W
LayerCount: 2
Fore
SplineSet
338 498 m 0,0,1
 338 440 338 440 283 396 c 128,-1,2
 228 352 228 352 168 352 c 0,3,4
 114 352 114 352 81 394 c 128,-1,5
 48 436 48 436 48 494 c 0,6,7
 48 564 48 564 85 606 c 128,-1,8
 122 648 122 648 184 648 c 256,9,10
 246 648 246 648 292 604 c 128,-1,11
 338 560 338 560 338 498 c 0,0,1
862 134 m 0,12,13
 862 4 862 4 734 -138 c 0,14,15
 614 -270 614 -270 532 -270 c 0,16,17
 468 -270 468 -270 386 -190 c 0,18,19
 312 -120 312 -120 312 -92 c 0,20,21
 312 -60 312 -60 365 -38 c 128,-1,22
 418 -16 418 -16 474 6 c 0,23,24
 644 84 644 84 644 176 c 0,25,26
 644 228 644 228 594 228 c 0,27,28
 540 228 540 228 470 152 c 0,29,30
 408 80 408 80 344 8 c 1,31,32
 260 -68 260 -68 172 -68 c 0,33,34
 112 -68 112 -68 66 -24 c 0,35,36
 14 26 14 26 14 104 c 0,37,38
 14 256 14 256 166 318 c 1,39,40
 294 358 294 358 424 396 c 1,41,42
 590 468 590 468 590 528 c 0,43,44
 590 548 590 548 569 567 c 128,-1,45
 548 586 548 586 522 586 c 256,46,47
 496 586 496 586 480 556 c 128,-1,48
 464 526 464 526 464 502 c 0,49,50
 464 468 464 468 490 458 c 1,51,52
 470 448 470 448 422 442 c 0,53,54
 368 434 368 434 354 442 c 1,55,56
 360 532 360 532 360 520 c 1,57,58
 360 592 360 592 308 634 c 0,59,60
 260 670 260 670 188 670 c 0,61,62
 134 670 134 670 91 643 c 128,-1,63
 48 616 48 616 44 572 c 1,64,65
 28 582 28 582 28 608 c 0,66,67
 28 682 28 682 92 750 c 0,68,69
 162 826 162 826 256 826 c 0,70,71
 312 826 312 826 362 800 c 128,-1,72
 412 774 412 774 424 738 c 1,73,74
 436 768 436 768 480 800 c 128,-1,75
 524 832 524 832 568 832 c 0,76,77
 644 832 644 832 699 770 c 128,-1,78
 754 708 754 708 754 638 c 0,79,80
 754 482 754 482 484 344 c 0,81,82
 404 304 404 304 322 264 c 1,83,84
 250 222 250 222 250 182 c 0,85,86
 250 156 250 156 292 156 c 0,87,88
 320 156 320 156 437 249 c 128,-1,89
 554 342 554 342 634 342 c 0,90,91
 722 342 722 342 790 286 c 0,92,93
 862 224 862 224 862 134 c 0,12,13
EndSplineSet
EndChar

StartChar: tm_nya
Encoding: 2974 2974 65
Width: 830
GlyphClass: 2
Flags: W
LayerCount: 2
Fore
SplineSet
376 246 m 0,0,1
 376 164 376 164 330 106 c 0,2,3
 282 42 282 42 204 42 c 0,4,5
 132 42 132 42 94 102 c 0,6,7
 60 152 60 152 60 230 c 0,8,9
 60 312 60 312 103 377 c 128,-1,10
 146 442 146 442 218 442 c 0,11,12
 376 442 376 442 376 246 c 0,0,1
800 278 m 0,13,14
 800 156 800 156 698 0 c 0,15,16
 610 -130 610 -130 502 -216 c 0,17,18
 452 -256 452 -256 382 -288 c 0,19,20
 322 -318 322 -318 302 -318 c 0,21,22
 246 -318 246 -318 246 -254 c 0,23,24
 246 -212 246 -212 270 -144 c 0,25,26
 296 -64 296 -64 326 -64 c 0,27,28
 340 -64 340 -64 359 -79 c 128,-1,29
 378 -94 378 -94 428 -94 c 0,30,31
 526 -94 526 -94 618 2 c 0,32,33
 704 90 704 90 704 168 c 0,34,35
 704 220 704 220 662 220 c 0,36,37
 640 220 640 220 614 200 c 0,38,39
 582 174 582 174 582 142 c 2,40,-1
 582 -20 l 1,41,-1
 466 62 l 1,42,-1
 466 512 l 1,43,44
 300 518 300 518 214 492 c 0,45,46
 80 452 80 452 50 328 c 1,47,48
 30 382 30 382 30 380 c 1,49,50
 30 564 30 564 162 672 c 0,51,52
 270 760 270 760 556 760 c 0,53,54
 646 760 646 760 674 733 c 128,-1,55
 702 706 702 706 702 622 c 2,56,-1
 702 462 l 1,57,-1
 592 506 l 1,58,-1
 584 386 l 1,59,60
 634 442 634 442 696 442 c 0,61,62
 746 442 746 442 776 390 c 0,63,64
 800 344 800 344 800 278 c 0,13,14
EndSplineSet
EndChar

StartChar: tm_tta
Encoding: 2975 2975 66
Width: 610
GlyphClass: 2
Flags: W
LayerCount: 2
Fore
SplineSet
596 262 m 0,0,1
 596 92 596 92 540 30 c 0,2,3
 494 -20 494 -20 366 -20 c 0,4,5
 210 -20 210 -20 134 32 c 0,6,7
 30 100 30 100 30 274 c 0,8,9
 30 378 30 378 76 556 c 0,10,11
 118 712 118 712 144 758 c 0,12,13
 162 782 162 782 228 782 c 2,14,-1
 330 782 l 1,15,16
 274 724 274 724 226 613 c 128,-1,17
 178 502 178 502 178 420 c 0,18,19
 178 284 178 284 330 284 c 0,20,21
 456 284 456 284 576 334 c 1,22,23
 596 316 596 316 596 262 c 0,0,1
EndSplineSet
EndChar

StartChar: tm_nna
Encoding: 2979 2979 67
Width: 1416
GlyphClass: 2
Flags: W
LayerCount: 2
Fore
SplineSet
496 692 m 1,0,1
 372 522 372 522 356 474 c 1,2,3
 330 508 330 508 276 508 c 0,4,5
 208 508 208 508 140 458 c 0,6,7
 64 404 64 404 38 324 c 1,8,9
 34 344 34 344 34 368 c 0,10,11
 34 490 34 490 132 599 c 128,-1,12
 230 708 230 708 360 708 c 0,13,14
 428 708 428 708 496 692 c 1,0,1
1072 388 m 0,15,16
 1072 244 1072 244 1014 122 c 0,17,18
 948 -14 948 -14 848 -14 c 0,19,20
 808 -14 808 -14 773 16 c 128,-1,21
 738 46 738 46 738 74 c 1,22,23
 738 72 738 72 767 163 c 128,-1,24
 796 254 796 254 796 344 c 256,25,26
 796 434 796 434 768 499 c 128,-1,27
 740 564 740 564 740 588 c 0,28,29
 740 626 740 626 787 654 c 128,-1,30
 834 682 834 682 884 682 c 0,31,32
 964 682 964 682 1018 594 c 128,-1,33
 1072 506 1072 506 1072 388 c 0,15,16
748 320 m 256,34,35
 748 188 748 188 700 100 c 0,36,37
 642 -8 642 -8 532 -8 c 0,38,39
 450 -8 450 -8 410 76 c 0,40,41
 376 144 376 144 376 246 c 0,42,43
 376 396 376 396 422 512 c 0,44,45
 474 646 474 646 562 646 c 0,46,47
 662 646 662 646 710 538 c 0,48,49
 748 452 748 452 748 320 c 256,34,35
1402 572 m 0,50,51
 1402 500 1402 500 1388 392 c 1,52,53
 1286 408 1286 408 1284 408 c 0,54,55
 1264 408 1264 408 1260 400 c 128,-1,56
 1256 392 1256 392 1256 362 c 2,57,-1
 1252 -48 l 2,58,59
 1252 -96 1252 -96 1232 -96 c 0,60,61
 1214 -96 1214 -96 1171 -62 c 128,-1,62
 1128 -28 1128 -28 1116 2 c 1,63,-1
 1124 406 l 1,64,-1
 1112 406 l 1,65,66
 1112 490 1112 490 1098 536 c 0,67,68
 1074 610 1074 610 998 688 c 1,69,-1
 1274 688 l 2,70,71
 1360 688 1360 688 1386 652 c 0,72,73
 1402 632 1402 632 1402 572 c 0,50,51
356 232 m 0,74,75
 356 142 356 142 306 70 c 0,76,77
 254 -8 254 -8 182 -8 c 256,78,79
 110 -8 110 -8 74 68 c 0,80,81
 44 128 44 128 44 216 c 0,82,83
 44 300 44 300 82 360 c 0,84,85
 124 428 124 428 194 428 c 0,86,87
 270 428 270 428 316 366 c 0,88,89
 356 312 356 312 356 232 c 0,74,75
EndSplineSet
EndChar

StartChar: tm_ta
Encoding: 2980 2980 68
Width: 844
GlyphClass: 2
Flags: W
LayerCount: 2
Fore
SplineSet
814 260 m 0,0,1
 814 144 814 144 770 -4 c 128,-1,2
 726 -152 726 -152 666 -246 c 0,3,4
 576 -386 576 -386 446 -468 c 128,-1,5
 316 -550 316 -550 188 -550 c 0,6,7
 102 -550 102 -550 46 -444 c 0,8,9
 -2 -354 -2 -354 -2 -260 c 0,10,11
 -2 -208 -2 -208 34 -176 c 1,12,13
 106 -210 106 -210 162 -210 c 0,14,15
 354 -210 354 -210 514 -80 c 0,16,17
 682 60 682 60 682 248 c 0,18,19
 682 338 682 338 578 338 c 0,20,21
 548 338 548 338 506 332 c 1,22,23
 508 210 508 210 456 90 c 0,24,25
 390 -64 390 -64 270 -64 c 0,26,27
 146 -64 146 -64 82 68 c 0,28,29
 30 174 30 174 30 318 c 0,30,31
 30 426 30 426 51 469 c 128,-1,32
 72 512 72 512 144 516 c 1,33,34
 108 578 108 578 108 662 c 0,35,36
 108 882 108 882 412 882 c 0,37,38
 472 882 472 882 486 842 c 1,39,40
 500 816 500 816 514 522 c 1,41,42
 656 528 656 528 716 494 c 0,43,44
 814 438 814 438 814 260 c 0,0,1
394 562 m 0,45,46
 394 582 394 582 383 606 c 128,-1,47
 372 630 372 630 354 630 c 0,48,49
 316 630 316 630 251 589 c 128,-1,50
 186 548 186 548 196 516 c 1,51,-1
 376 516 l 1,52,53
 394 526 394 526 394 562 c 0,45,46
332 332 m 1,54,-1
 194 332 l 2,55,56
 184 332 184 332 169 324 c 128,-1,57
 154 316 154 316 154 308 c 0,58,59
 154 256 154 256 226 256 c 0,60,61
 272 256 272 256 332 332 c 1,54,-1
EndSplineSet
EndChar

StartChar: tm_na
Encoding: 2984 2984 69
Width: 854
GlyphClass: 2
Flags: W
LayerCount: 2
Fore
SplineSet
824 248 m 0,0,1
 824 38 824 38 430 -224 c 1,2,3
 394 -130 394 -130 394 -108 c 0,4,5
 394 -104 394 -104 472 -54 c 0,6,7
 566 8 566 8 620 62 c 0,8,9
 698 146 698 146 698 228 c 0,10,11
 698 248 698 248 682 266 c 128,-1,12
 666 284 666 284 646 284 c 0,13,14
 606 284 606 284 556 222 c 0,15,16
 492 146 492 146 492 40 c 0,17,18
 492 -10 492 -10 490 -18 c 0,19,20
 484 -42 484 -42 456 -42 c 0,21,22
 414 -42 414 -42 391 -11 c 128,-1,23
 368 20 368 20 368 62 c 2,24,-1
 372 440 l 1,25,26
 190 440 190 440 190 300 c 0,27,28
 190 238 190 238 226 164 c 0,29,30
 252 116 252 116 278 68 c 1,31,-1
 156 0 l 1,32,33
 30 170 30 170 30 416 c 0,34,35
 30 608 30 608 168 686 c 0,36,37
 276 746 276 746 492 746 c 0,38,39
 606 746 606 746 643 726 c 128,-1,40
 680 706 680 706 680 628 c 2,41,-1
 680 452 l 1,42,43
 630 440 630 440 506 440 c 1,44,-1
 502 286 l 1,45,46
 582 400 582 400 714 400 c 0,47,48
 764 400 764 400 794 354 c 128,-1,49
 824 308 824 308 824 248 c 0,0,1
EndSplineSet
EndChar

StartChar: tm_nnna
Encoding: 2985 2985 70
Width: 1080
GlyphClass: 2
Flags: W
LayerCount: 2
Fore
SplineSet
500 700 m 1,0,1
 470 668 470 668 426 604 c 0,2,3
 366 520 366 520 360 482 c 1,4,5
 330 516 330 516 274 516 c 0,6,7
 202 516 202 516 136 464 c 1,8,9
 60 410 60 410 34 322 c 1,10,11
 30 342 30 342 30 366 c 0,12,13
 30 490 30 490 128 600 c 0,14,15
 232 718 232 718 364 718 c 0,16,17
 424 718 424 718 500 700 c 1,0,1
748 332 m 0,18,19
 748 198 748 198 700 106 c 0,20,21
 642 -6 642 -6 532 -6 c 0,22,23
 450 -6 450 -6 410 82 c 0,24,25
 376 152 376 152 376 256 c 0,26,27
 376 406 376 406 422 520 c 0,28,29
 474 650 474 650 562 650 c 0,30,31
 662 650 662 650 710 546 c 0,32,33
 748 462 748 462 748 332 c 0,18,19
1066 578 m 0,34,35
 1066 544 1066 544 1058 481 c 128,-1,36
 1050 418 1050 418 1050 400 c 1,37,38
 944 416 944 416 950 416 c 1,39,40
 916 416 916 416 916 374 c 2,41,-1
 916 12 l 2,42,43
 916 -92 916 -92 894 -92 c 0,44,45
 870 -92 870 -92 828 -52 c 0,46,47
 780 -6 780 -6 780 36 c 0,48,49
 780 110 780 110 785 230 c 128,-1,50
 790 350 790 350 790 404 c 1,51,52
 784 404 784 404 766 504 c 0,53,54
 744 618 744 618 686 660 c 1,55,-1
 686 692 l 1,56,-1
 932 692 l 2,57,58
 1022 692 1022 692 1050 658 c 0,59,60
 1066 638 1066 638 1066 578 c 0,34,35
356 238 m 0,61,62
 356 144 356 144 306 72 c 128,-1,63
 256 0 256 0 178 0 c 0,64,65
 44 0 44 0 44 220 c 0,66,67
 44 304 44 304 82 364 c 0,68,69
 124 432 124 432 194 432 c 0,70,71
 270 432 270 432 316 372 c 0,72,73
 356 316 356 316 356 238 c 0,61,62
EndSplineSet
EndChar

StartChar: tm_pa
Encoding: 2986 2986 71
Width: 660
GlyphClass: 2
Flags: W
LayerCount: 2
Fore
SplineSet
384 716 m 1,0,1
 334 668 334 668 271 552 c 128,-1,2
 208 436 208 436 208 380 c 0,3,4
 208 326 208 326 248 296 c 128,-1,5
 288 266 288 266 340 266 c 0,6,7
 400 266 400 266 458 288 c 1,8,-1
 458 722 l 1,9,10
 592 678 592 678 590 580 c 2,11,-1
 578 4 l 1,12,13
 408 -24 408 -24 320 -24 c 0,14,15
 30 -24 30 -24 30 218 c 0,16,17
 30 334 30 334 108 510 c 0,18,19
 180 670 180 670 234 710 c 1,20,-1
 384 716 l 1,21,-1
 384 716 l 1,0,1
EndSplineSet
EndChar

StartChar: tm_ma
Encoding: 2990 2990 72
Width: 808
GlyphClass: 2
Flags: W
LayerCount: 2
Fore
SplineSet
778 448 m 0,0,1
 778 268 778 268 664 136 c 0,2,3
 542 -4 542 -4 358 -4 c 0,4,5
 204 -4 204 -4 117 82 c 128,-1,6
 30 168 30 168 30 312 c 0,7,8
 30 522 30 522 218 754 c 1,9,-1
 418 770 l 1,10,11
 336 722 336 722 269 613 c 128,-1,12
 202 504 202 504 202 422 c 0,13,14
 202 354 202 354 254 314 c 0,15,16
 298 280 298 280 358 280 c 0,17,18
 392 280 392 280 392 328 c 2,19,-1
 392 618 l 2,20,21
 392 672 392 672 448 710 c 0,22,23
 498 744 498 744 554 744 c 0,24,25
 658 744 658 744 720 654 c 0,26,27
 778 572 778 572 778 448 c 0,0,1
668 394 m 0,28,29
 668 422 668 422 640 443 c 128,-1,30
 612 464 612 464 580 464 c 0,31,32
 542 464 542 464 486 416 c 0,33,34
 420 358 420 358 410 276 c 1,35,36
 508 272 508 272 588 313 c 128,-1,37
 668 354 668 354 668 394 c 0,28,29
EndSplineSet
EndChar

StartChar: tm_ya
Encoding: 2991 2991 73
Width: 884
GlyphClass: 2
Flags: W
LayerCount: 2
Fore
SplineSet
814 610 m 1,0,-1
 808 -2 l 1,1,2
 778 -12 778 -12 686 -28 c 0,3,4
 582 -44 582 -44 512 -44 c 0,5,6
 434 -44 434 -44 414 -32 c 0,7,8
 382 -14 382 -14 382 58 c 0,9,10
 382 86 382 86 388 156 c 0,11,12
 394 216 394 216 392 246 c 1,13,14
 358 168 358 168 322 88 c 1,15,16
 260 -34 260 -34 206 -34 c 0,17,18
 136 -34 136 -34 86 30 c 0,19,20
 30 98 30 98 30 198 c 0,21,22
 30 302 30 302 76 436 c 0,23,24
 128 592 128 592 212 698 c 1,25,-1
 378 698 l 1,26,27
 316 654 316 654 250 524 c 0,28,29
 190 402 190 402 190 344 c 0,30,31
 190 250 190 250 290 250 c 0,32,33
 402 250 402 250 404 338 c 2,34,-1
 414 688 l 1,35,-1
 522 614 l 1,36,37
 522 532 522 532 512 320 c 0,38,39
 510 276 510 276 570 276 c 0,40,41
 672 276 672 276 694 294 c 1,42,-1
 698 678 l 1,43,-1
 814 610 l 1,0,-1
EndSplineSet
EndChar

StartChar: tm_ra
Encoding: 2992 2992 74
Width: 620
GlyphClass: 2
Flags: W
LayerCount: 2
Fore
SplineSet
590 220 m 0,0,1
 590 -178 590 -178 438 -418 c 0,2,3
 300 -634 300 -634 102 -634 c 0,4,5
 52 -634 52 -634 14 -552 c 128,-1,6
 -24 -470 -24 -470 -24 -364 c 0,7,8
 -24 -260 -24 -260 14 -260 c 0,9,10
 30 -260 30 -260 54 -276 c 128,-1,11
 78 -292 78 -292 108 -292 c 0,12,13
 264 -292 264 -292 382 -149 c 128,-1,14
 500 -6 500 -6 500 210 c 0,15,16
 500 296 500 296 467 362 c 128,-1,17
 434 428 434 428 388 428 c 0,18,19
 314 428 314 428 252 396 c 0,20,21
 166 354 166 354 166 270 c 0,22,23
 166 182 166 182 276 44 c 1,24,-1
 184 -18 l 1,25,26
 30 110 30 110 30 398 c 0,27,28
 30 510 30 510 60 585 c 128,-1,29
 90 660 90 660 138 678 c 0,30,31
 214 706 214 706 352 706 c 0,32,33
 488 706 488 706 532 682 c 1,34,35
 590 454 590 454 590 220 c 0,0,1
EndSplineSet
EndChar

StartChar: tm_rra
Encoding: 2993 2993 75
Width: 760
GlyphClass: 2
Flags: W
LayerCount: 2
Fore
SplineSet
730 362 m 0,0,1
 730 8 730 8 540 -278 c 0,2,3
 336 -586 336 -586 48 -586 c 0,4,5
 -36 -586 -36 -586 -68 -544 c 0,6,7
 -106 -496 -106 -496 -106 -374 c 0,8,9
 -106 -300 -106 -300 -86 -249 c 128,-1,10
 -66 -198 -66 -198 -38 -198 c 0,11,12
 -24 -198 -24 -198 18 -226 c 128,-1,13
 60 -254 60 -254 118 -254 c 0,14,15
 328 -254 328 -254 482 -86 c 0,16,17
 630 76 630 76 630 274 c 0,18,19
 630 336 630 336 594 374 c 0,20,21
 564 406 564 406 532 406 c 0,22,23
 496 406 496 406 476 326 c 0,24,25
 458 256 458 256 458 160 c 0,26,27
 458 132 458 132 460 88 c 0,28,29
 460 44 460 44 460 32 c 0,30,31
 460 -12 460 -12 440 -12 c 0,32,33
 414 -12 414 -12 370 23 c 128,-1,34
 326 58 326 58 326 82 c 0,35,36
 326 120 326 120 331 214 c 128,-1,37
 336 308 336 308 336 354 c 0,38,39
 336 406 336 406 274 406 c 0,40,41
 236 406 236 406 210 364 c 128,-1,42
 184 322 184 322 184 270 c 0,43,44
 184 188 184 188 168 -20 c 1,45,46
 130 6 130 6 92 32 c 0,47,48
 44 68 44 68 44 94 c 2,49,-1
 44 354 l 2,50,51
 44 684 44 684 216 684 c 0,52,53
 352 684 352 684 376 590 c 1,54,55
 434 700 434 700 516 700 c 0,56,57
 730 700 730 700 730 362 c 0,0,1
EndSplineSet
EndChar

StartChar: tm_la
Encoding: 2994 2994 76
Width: 762
GlyphClass: 2
Flags: W
LayerCount: 2
Fore
SplineSet
706 544 m 0,0,1
 706 490 706 490 679 448 c 128,-1,2
 652 406 652 406 610 406 c 0,3,4
 552 406 552 406 518 460 c 0,5,6
 488 506 488 506 488 572 c 0,7,8
 488 618 488 618 520 659 c 128,-1,9
 552 700 552 700 590 700 c 0,10,11
 642 700 642 700 674 652 c 128,-1,12
 706 604 706 604 706 544 c 0,0,1
732 352 m 0,13,14
 732 238 732 238 684 130 c 0,15,16
 622 -10 622 -10 514 -10 c 0,17,18
 412 -10 412 -10 386 110 c 1,19,20
 370 220 370 220 352 332 c 1,21,22
 322 452 322 452 208 452 c 0,23,24
 134 452 134 452 56 374 c 1,25,26
 52 458 52 458 126 570 c 0,27,28
 208 696 208 696 304 696 c 0,29,30
 412 696 412 696 458 606 c 1,31,32
 486 522 486 522 514 438 c 0,33,34
 544 348 544 348 616 348 c 0,35,36
 638 348 638 348 670 378 c 0,37,38
 710 416 710 416 720 468 c 1,39,40
 732 424 732 424 732 352 c 0,13,14
332 232 m 0,41,42
 332 134 332 134 290 64 c 0,43,44
 242 -14 242 -14 160 -14 c 0,45,46
 96 -14 96 -14 60 54 c 0,47,48
 30 112 30 112 30 196 c 256,49,50
 30 280 30 280 74 343 c 128,-1,51
 118 406 118 406 190 406 c 0,52,53
 256 406 256 406 294 353 c 128,-1,54
 332 300 332 300 332 232 c 0,41,42
EndSplineSet
EndChar

StartChar: tm_lla
Encoding: 2995 2995 77
Width: 952
GlyphClass: 2
Flags: W
LayerCount: 2
Fore
SplineSet
356 320 m 0,0,1
 356 232 356 232 316 168 c 0,2,3
 270 96 270 96 194 96 c 0,4,5
 120 96 120 96 76 158 c 0,6,7
 34 214 34 214 34 294 c 0,8,9
 34 378 34 378 78 443 c 128,-1,10
 122 508 122 508 196 508 c 0,11,12
 356 508 356 508 356 320 c 0,0,1
938 682 m 0,13,14
 938 572 938 572 922 480 c 1,15,16
 896 506 896 506 822 506 c 0,17,18
 782 506 782 506 780 414 c 2,19,-1
 760 -220 l 1,20,-1
 640 -110 l 1,21,-1
 650 476 l 1,22,23
 596 476 596 476 562 415 c 128,-1,24
 528 354 528 354 526 280 c 2,25,-1
 522 20 l 1,26,-1
 398 118 l 1,27,-1
 406 336 l 2,28,29
 414 554 414 554 236 554 c 0,30,31
 132 554 132 554 28 446 c 1,32,33
 36 562 36 562 108 660 c 0,34,35
 190 776 190 776 308 776 c 0,36,37
 380 776 380 776 454 728 c 0,38,39
 522 682 522 682 526 636 c 1,40,41
 606 812 606 812 842 812 c 0,42,43
 906 812 906 812 926 768 c 0,44,45
 938 744 938 744 938 682 c 0,13,14
EndSplineSet
EndChar

StartChar: tm_llla
Encoding: 2996 2996 78
Width: 802
GlyphClass: 2
Flags: W
LayerCount: 2
Fore
SplineSet
772 446 m 0,0,1
 772 282 772 282 676 154 c 128,-1,2
 580 26 580 26 430 0 c 1,3,4
 446 -28 446 -28 492 -46 c 0,5,6
 532 -60 532 -60 564 -60 c 0,7,8
 578 -60 578 -60 607 -43 c 128,-1,9
 636 -26 636 -26 648 -26 c 0,10,11
 682 -26 682 -26 682 -86 c 0,12,13
 682 -296 682 -296 544 -296 c 0,14,15
 496 -296 496 -296 444 -258 c 128,-1,16
 392 -220 392 -220 382 -186 c 1,17,18
 274 -492 274 -492 64 -492 c 0,19,20
 12 -492 12 -492 -12 -462 c 0,21,22
 -44 -418 -44 -418 -44 -296 c 0,23,24
 -44 -154 -44 -154 2 -154 c 0,25,26
 20 -154 20 -154 43 -175 c 128,-1,27
 66 -196 66 -196 112 -196 c 0,28,29
 196 -196 196 -196 257 -143 c 128,-1,30
 318 -90 318 -90 330 -4 c 1,31,32
 188 6 188 6 109 91 c 128,-1,33
 30 176 30 176 30 308 c 0,34,35
 30 518 30 518 220 752 c 1,36,-1
 418 764 l 1,37,38
 332 722 332 722 267 611 c 128,-1,39
 202 500 202 500 202 410 c 0,40,41
 202 346 202 346 256 308 c 0,42,43
 300 278 300 278 354 278 c 0,44,45
 380 278 380 278 392 286 c 1,46,-1
 392 648 l 1,47,48
 432 738 432 738 568 738 c 0,49,50
 640 738 640 738 700 670 c 0,51,52
 772 588 772 588 772 446 c 0,0,1
666 390 m 0,53,54
 666 418 666 418 637 438 c 128,-1,55
 608 458 608 458 578 458 c 0,56,57
 538 458 538 458 486 414 c 0,58,59
 420 358 420 358 412 276 c 1,60,61
 508 268 508 268 592 312 c 0,62,63
 666 350 666 350 666 390 c 0,53,54
EndSplineSet
EndChar

StartChar: tm_va
Encoding: 2997 2997 79
Width: 878
GlyphClass: 2
Flags: W
LayerCount: 2
Fore
SplineSet
808 586 m 0,0,1
 808 506 808 506 803 343 c 128,-1,2
 798 180 798 180 798 80 c 0,3,4
 798 -70 798 -70 450 -70 c 0,5,6
 326 -70 326 -70 326 -22 c 1,7,8
 326 -22 326 -22 372 66 c 128,-1,9
 418 154 418 154 418 242 c 0,10,11
 418 438 418 438 234 438 c 0,12,13
 106 438 106 438 34 280 c 1,14,15
 20 420 20 420 102 550 c 0,16,17
 192 688 192 688 326 688 c 0,18,19
 428 688 428 688 494 608 c 128,-1,20
 560 528 560 528 560 420 c 0,21,22
 560 372 560 372 522 220 c 1,23,-1
 600 220 l 2,24,25
 658 220 658 220 658 272 c 0,26,27
 658 336 658 336 664 512 c 0,28,29
 670 674 670 674 668 726 c 1,30,31
 712 708 712 708 758 666 c 0,32,33
 808 618 808 618 808 586 c 0,0,1
356 222 m 0,34,35
 356 124 356 124 312 44 c 0,36,37
 260 -48 260 -48 180 -48 c 0,38,39
 112 -48 112 -48 71 8 c 128,-1,40
 30 64 30 64 30 144 c 0,41,42
 30 250 30 250 80 319 c 128,-1,43
 130 388 130 388 218 388 c 0,44,45
 282 388 282 388 319 340 c 128,-1,46
 356 292 356 292 356 222 c 0,34,35
EndSplineSet
EndChar

StartChar: tm_ssa
Encoding: 2999 2999 80
Width: 972
GlyphClass: 2
Flags: W
LayerCount: 2
Fore
SplineSet
352 286 m 0,0,1
 352 192 352 192 306 116 c 0,2,3
 256 28 256 28 176 28 c 0,4,5
 110 28 110 28 70 81 c 128,-1,6
 30 134 30 134 30 212 c 0,7,8
 30 308 30 308 78 379 c 128,-1,9
 126 450 126 450 210 450 c 0,10,11
 274 450 274 450 313 403 c 128,-1,12
 352 356 352 356 352 286 c 0,0,1
958 226 m 0,13,14
 958 104 958 104 880 56 c 0,15,16
 828 24 828 24 662 -2 c 1,17,18
 626 -60 626 -60 626 -116 c 0,19,20
 626 -192 626 -192 672 -192 c 0,21,22
 692 -192 692 -192 729 -153 c 128,-1,23
 766 -114 766 -114 778 -114 c 0,24,25
 798 -114 798 -114 812 -164 c 0,26,27
 820 -200 820 -200 820 -234 c 0,28,29
 820 -336 820 -336 780 -414 c 0,30,31
 734 -506 734 -506 658 -506 c 0,32,33
 584 -506 584 -506 542 -436 c 0,34,35
 504 -374 504 -374 504 -278 c 0,36,37
 504 -110 504 -110 568 2 c 1,38,39
 506 -4 506 -4 422 6 c 0,40,41
 320 16 320 16 320 44 c 0,42,43
 320 48 320 48 364 132 c 128,-1,44
 408 216 408 216 408 308 c 0,45,46
 408 500 408 500 234 500 c 0,47,48
 108 500 108 500 36 346 c 1,49,50
 22 472 22 472 102 602 c 0,51,52
 190 744 190 744 320 744 c 0,53,54
 420 744 420 744 485 667 c 128,-1,55
 550 590 550 590 550 484 c 0,56,57
 550 384 550 384 514 302 c 1,58,59
 578 282 578 282 606 298 c 1,60,-1
 606 664 l 1,61,62
 736 790 736 790 824 790 c 0,63,64
 952 790 952 790 952 680 c 0,65,66
 952 564 952 564 760 306 c 1,67,68
 886 332 886 332 916 398 c 1,69,70
 958 316 958 316 958 226 c 0,13,14
808 532 m 1,71,72
 756 528 756 528 714 466 c 128,-1,73
 672 404 672 404 682 372 c 1,74,75
 710 394 710 394 756 449 c 128,-1,76
 802 504 802 504 808 532 c 1,71,72
EndSplineSet
EndChar

StartChar: tm_sa
Encoding: 3000 3000 81
Width: 1062
GlyphClass: 2
Flags: W
LayerCount: 2
Fore
SplineSet
1032 418 m 0,0,1
 1032 238 1032 238 973 133 c 128,-1,2
 914 28 914 28 812 28 c 0,3,4
 742 28 742 28 698 84 c 128,-1,5
 654 140 654 140 654 246 c 0,6,7
 654 276 654 276 658 328 c 128,-1,8
 662 380 662 380 662 406 c 0,9,10
 662 490 662 490 610 490 c 0,11,12
 550 490 550 490 550 416 c 2,13,-1
 548 -2 l 1,14,15
 520 -6 520 -6 471 33 c 128,-1,16
 422 72 422 72 414 102 c 1,17,-1
 420 292 l 2,18,19
 428 516 428 516 226 516 c 0,20,21
 114 516 114 516 30 360 c 1,22,23
 34 514 34 514 102 626 c 0,24,25
 186 764 186 764 330 764 c 0,26,27
 400 764 400 764 458 720 c 128,-1,28
 516 676 516 676 524 630 c 1,29,30
 528 680 528 680 563 723 c 128,-1,31
 598 766 598 766 652 766 c 256,32,33
 706 766 706 766 736 694 c 0,34,35
 762 632 762 632 762 548 c 0,36,37
 762 530 762 530 759 487 c 128,-1,38
 756 444 756 444 756 422 c 0,39,40
 756 314 756 314 818 314 c 0,41,42
 854 314 854 314 874 368 c 0,43,44
 890 410 890 410 890 452 c 0,45,46
 890 554 890 554 860 642 c 128,-1,47
 830 730 830 730 830 722 c 1,48,49
 830 742 830 742 858 759 c 128,-1,50
 886 776 886 776 916 776 c 256,51,52
 946 776 946 776 971 761 c 128,-1,53
 996 746 996 746 996 724 c 2,54,55
 996 724 996 724 1014 620 c 128,-1,56
 1032 516 1032 516 1032 418 c 0,0,1
356 288 m 0,57,58
 356 200 356 200 310 122 c 0,59,60
 258 34 258 34 184 34 c 256,61,62
 110 34 110 34 68 96 c 0,63,64
 30 150 30 150 30 230 c 0,65,66
 30 328 30 328 83 398 c 128,-1,67
 136 468 136 468 222 468 c 0,68,69
 288 468 288 468 322 416 c 128,-1,70
 356 364 356 364 356 288 c 0,57,58
EndSplineSet
EndChar

StartChar: tm_ha
Encoding: 3001 3001 82
Width: 1374
GlyphClass: 2
Flags: W
LayerCount: 2
Fore
SplineSet
362 252 m 0,0,1
 362 148 362 148 316 72 c 0,2,3
 264 -16 264 -16 178 -16 c 0,4,5
 112 -16 112 -16 71 41 c 128,-1,6
 30 98 30 98 30 176 c 0,7,8
 30 274 30 274 82 351 c 128,-1,9
 134 428 134 428 220 428 c 0,10,11
 288 428 288 428 328 374 c 0,12,13
 362 324 362 324 362 252 c 0,0,1
1344 418 m 0,14,15
 1344 58 1344 58 1152 -234 c 0,16,17
 944 -550 944 -550 650 -550 c 0,18,19
 558 -550 558 -550 526 -496 c 0,20,21
 496 -450 496 -450 496 -332 c 0,22,23
 496 -268 496 -268 516 -208 c 128,-1,24
 536 -148 536 -148 564 -148 c 0,25,26
 580 -148 580 -148 616 -179 c 128,-1,27
 652 -210 652 -210 724 -210 c 0,28,29
 936 -210 936 -210 1092 -38 c 0,30,31
 1242 126 1242 126 1242 328 c 0,32,33
 1242 382 1242 382 1220 420 c 0,34,35
 1192 462 1192 462 1148 462 c 0,36,37
 1068 462 1068 462 1068 200 c 0,38,39
 1068 192 1068 192 1070 128 c 0,40,41
 1074 82 1074 82 1070 62 c 0,42,43
 1066 32 1066 32 1052 32 c 0,44,45
 1036 32 1036 32 998 57 c 128,-1,46
 960 82 960 82 940 106 c 1,47,-1
 946 396 l 2,48,49
 948 466 948 466 882 466 c 0,50,51
 850 466 850 466 826 436 c 0,52,53
 792 392 792 392 792 302 c 2,54,-1
 792 0 l 1,55,56
 718 -40 718 -40 538 -40 c 0,57,58
 332 -40 332 -40 332 6 c 1,59,60
 332 2 332 2 377 92 c 128,-1,61
 422 182 422 182 422 276 c 0,62,63
 422 476 422 476 236 476 c 0,64,65
 110 476 110 476 30 308 c 1,66,67
 22 444 22 444 100 576 c 0,68,69
 190 730 190 730 328 730 c 0,70,71
 444 730 444 730 510 644 c 0,72,73
 568 568 568 568 568 456 c 0,74,75
 568 370 568 370 532 266 c 1,76,-1
 644 254 l 1,77,-1
 644 404 l 2,78,79
 644 746 644 746 824 746 c 0,80,81
 878 746 878 746 927 719 c 128,-1,82
 976 692 976 692 986 650 c 1,83,84
 1042 762 1042 762 1130 762 c 0,85,86
 1232 762 1232 762 1288 672 c 128,-1,87
 1344 582 1344 582 1344 418 c 0,14,15
EndSplineSet
EndChar

StartChar: tm_aakaar
Encoding: 3006 3006 83
Width: 598
GlyphClass: 2
Flags: W
LayerCount: 2
Fore
SplineSet
528 686 m 1,0,-1
 502 -192 l 2,1,2
 502 -234 502 -234 518 -340 c 1,3,4
 428 -302 428 -302 410 -282 c 0,5,6
 384 -252 384 -252 384 -166 c 0,7,8
 384 -62 384 -62 388 100 c 128,-1,9
 392 262 392 262 392 354 c 0,10,11
 392 398 392 398 388 413 c 128,-1,12
 384 428 384 428 362 428 c 0,13,14
 306 428 306 428 246 394 c 0,15,16
 166 348 166 348 166 270 c 0,17,18
 166 202 166 202 212 130 c 0,19,20
 244 86 244 86 274 42 c 1,21,-1
 186 -20 l 1,22,23
 30 110 30 110 30 402 c 0,24,25
 30 492 30 492 55 569 c 128,-1,26
 80 646 80 646 118 670 c 0,27,28
 176 706 176 706 346 706 c 0,29,30
 492 706 492 706 528 686 c 1,0,-1
EndSplineSet
EndChar

StartChar: tm_ikaar
Encoding: 3007 3007 84
Width: 836
GlyphClass: 2
Flags: W
LayerCount: 2
Fore
SplineSet
818 1148 m 0,0,1
 818 1102 818 1102 792 1102 c 1,2,3
 792 1102 792 1102 735 1122 c 128,-1,4
 678 1142 678 1142 600 1142 c 0,5,6
 430 1142 430 1142 430 1030 c 0,7,8
 430 970 430 970 454 932 c 1,9,-1
 376 914 l 1,10,11
 278 1044 278 1044 278 1160 c 0,12,13
 278 1272 278 1272 389 1350 c 128,-1,14
 500 1428 500 1428 652 1428 c 0,15,16
 736 1428 736 1428 782 1318 c 0,17,18
 818 1236 818 1236 818 1148 c 0,0,1
EndSplineSet
EndChar

StartChar: tm_iikaar
Encoding: 3008 3008 85
Width: 890
GlyphClass: 4
Flags: W
LayerCount: 2
Fore
SplineSet
358 910 m 1,0,1
 322 1044 322 1044 322 1150 c 0,2,3
 322 1254 322 1254 392 1368 c 0,4,5
 472 1502 472 1502 582 1502 c 0,6,7
 658 1502 658 1502 706 1434 c 128,-1,8
 754 1366 754 1366 754 1280 c 0,9,10
 754 1180 754 1180 688 1074 c 0,11,12
 612 956 612 956 520 956 c 0,13,14
 438 956 438 956 448 1200 c 1,15,16
 458 1198 458 1198 466 1198 c 0,17,18
 508 1198 508 1198 534 1238 c 0,19,20
 556 1272 556 1272 556 1304 c 0,21,22
 556 1340 556 1340 520 1340 c 0,23,24
 462 1340 462 1340 432 1266 c 0,25,26
 406 1204 406 1204 406 1114 c 0,27,28
 406 1012 406 1012 430 942 c 0,29,30
 432 934 432 934 472 894 c 1,31,-1
 358 910 l 1,0,1
EndSplineSet
EndChar

StartChar: tm_ekaar
Encoding: 3014 3014 88
Width: 686
GlyphClass: 2
Flags: W
LayerCount: 2
Fore
SplineSet
616 662 m 0,0,1
 616 586 616 586 601 124 c 128,-1,2
 586 -338 586 -338 586 -356 c 1,3,4
 444 -282 444 -282 444 -170 c 0,5,6
 444 -116 444 -116 452 145 c 128,-1,7
 460 406 460 406 460 434 c 0,8,9
 460 512 460 512 413 560 c 128,-1,10
 366 608 366 608 284 608 c 0,11,12
 206 608 206 608 139 557 c 128,-1,13
 72 506 72 506 40 438 c 1,14,15
 36 456 36 456 36 480 c 0,16,17
 36 610 36 610 130 752 c 0,18,19
 236 910 236 910 368 910 c 0,20,21
 616 910 616 910 616 662 c 0,0,1
428 304 m 0,22,23
 428 196 428 196 370 118 c 0,24,25
 308 32 308 32 210 32 c 0,26,27
 126 32 126 32 76 104 c 0,28,29
 30 168 30 168 30 260 c 0,30,31
 30 362 30 362 88 441 c 128,-1,32
 146 520 146 520 238 520 c 0,33,34
 322 520 322 520 375 456 c 128,-1,35
 428 392 428 392 428 304 c 0,22,23
EndSplineSet
EndChar

StartChar: tm_eekaar
Encoding: 3015 3015 89
Width: 610
GlyphClass: 2
Flags: W
LayerCount: 2
Fore
SplineSet
584 504 m 0,0,1
 584 432 584 432 550 386 c 0,2,3
 512 332 512 332 440 332 c 0,4,5
 374 332 374 332 336 379 c 128,-1,6
 298 426 298 426 298 496 c 0,7,8
 298 576 298 576 334 624 c 128,-1,9
 370 672 370 672 432 672 c 256,10,11
 494 672 494 672 539 626 c 128,-1,12
 584 580 584 580 584 504 c 0,0,1
582 44 m 1,13,14
 578 -116 578 -116 512 -222 c 0,15,16
 438 -336 438 -336 314 -336 c 0,17,18
 188 -336 188 -336 112 -206 c 0,19,20
 30 -68 30 -68 30 178 c 0,21,22
 30 428 30 428 118 654 c 0,23,24
 216 904 216 904 350 904 c 0,25,26
 436 904 436 904 500 814 c 0,27,28
 556 732 556 732 548 662 c 1,29,30
 492 688 492 688 432 688 c 0,31,32
 310 688 310 688 230 568 c 128,-1,33
 150 448 150 448 150 278 c 0,34,35
 150 96 150 96 236 10 c 0,36,37
 302 -56 302 -56 404 -56 c 0,38,39
 518 -56 518 -56 582 44 c 1,13,14
582 152 m 0,40,41
 582 86 582 86 532 31 c 128,-1,42
 482 -24 482 -24 414 -24 c 0,43,44
 354 -24 354 -24 314 21 c 128,-1,45
 274 66 274 66 274 132 c 0,46,47
 274 204 274 204 323 257 c 128,-1,48
 372 310 372 310 444 310 c 0,49,50
 502 310 502 310 542 262 c 128,-1,51
 582 214 582 214 582 152 c 0,40,41
EndSplineSet
EndChar

StartChar: tm_aikaar
Encoding: 3016 3016 90
Width: 1086
GlyphClass: 2
Flags: W
LayerCount: 2
Fore
SplineSet
520 714 m 1,0,1
 478 698 478 698 426 625 c 128,-1,2
 374 552 374 552 372 504 c 1,3,4
 362 504 362 504 335 508 c 128,-1,5
 308 512 308 512 290 512 c 0,6,7
 192 512 192 512 121 438 c 128,-1,8
 50 364 50 364 42 264 c 1,9,10
 30 290 30 290 30 322 c 0,11,12
 30 476 30 476 104 592 c 0,13,14
 198 734 198 734 372 734 c 0,15,16
 380 734 380 734 520 714 c 1,0,1
1056 374 m 0,17,18
 1056 238 1056 238 1000 130 c 0,19,20
 936 8 936 8 840 8 c 0,21,22
 798 8 798 8 766 50 c 128,-1,23
 734 92 734 92 738 134 c 1,24,25
 824 210 824 210 824 404 c 0,26,27
 824 568 824 568 708 666 c 1,28,29
 758 710 758 710 814 710 c 0,30,31
 928 710 928 710 996 604 c 0,32,33
 1056 508 1056 508 1056 374 c 0,17,18
774 398 m 0,34,35
 774 276 774 276 720 160 c 0,36,37
 658 24 658 24 568 24 c 0,38,39
 480 24 480 24 430 97 c 128,-1,40
 380 170 380 170 380 292 c 0,41,42
 380 428 380 428 442 555 c 128,-1,43
 504 682 504 682 574 682 c 0,44,45
 662 682 662 682 718 596 c 128,-1,46
 774 510 774 510 774 398 c 0,34,35
372 270 m 0,47,48
 372 184 372 184 336 110 c 0,49,50
 290 18 290 18 210 18 c 0,51,52
 74 18 74 18 74 206 c 0,53,54
 74 286 74 286 112 364 c 0,55,56
 158 458 158 458 230 458 c 0,57,58
 372 458 372 458 372 270 c 0,47,48
EndSplineSet
EndChar

StartChar: tm_halant
Encoding: 3021 3021 94
Width: 339
GlyphClass: 4
Flags: W
LayerCount: 2
Fore
SplineSet
223 1149 m 0,0,1
 157 1149 157 1149 109.5 1196.5 c 128,-1,2
 62 1244 62 1244 62 1310 c 0,3,4
 62 1378 62 1378 109.5 1424.5 c 128,-1,5
 157 1471 157 1471 223 1471 c 0,6,7
 290 1471 290 1471 337 1424.5 c 128,-1,8
 384 1378 384 1378 384 1310 c 0,9,10
 384 1244 384 1244 337 1196.5 c 128,-1,11
 290 1149 290 1149 223 1149 c 0,0,1
EndSplineSet
EndChar

StartChar: tm_two
Encoding: 3048 3048 97
Width: 1425
GlyphClass: 2
Flags: W
LayerCount: 2
Fore
SplineSet
1244 70 m 1,0,-1
 1226 0 l 1,1,-1
 586 0 l 2,2,3
 429 0 429 0 429 106 c 0,4,5
 429 153 429 153 478 181.5 c 128,-1,6
 527 210 527 210 586 210 c 2,7,-1
 779 210 l 2,8,9
 867 210 867 210 928 271.5 c 128,-1,10
 989 333 989 333 989 420 c 0,11,12
 989 500 989 500 945 560.5 c 128,-1,13
 901 621 901 621 831 621 c 0,14,15
 793 621 793 621 744 595 c 1,16,17
 814 555 814 555 814 437 c 0,18,19
 814 382 814 382 772.5 344.5 c 128,-1,20
 731 307 731 307 675 307 c 0,21,22
 618 307 618 307 580 351 c 128,-1,23
 542 395 542 395 542 455 c 0,24,25
 542 565 542 565 646.5 632.5 c 128,-1,26
 751 700 751 700 884 700 c 0,27,28
 987 700 987 700 1058 629 c 128,-1,29
 1129 558 1129 558 1129 455 c 0,30,31
 1129 321 1129 321 1025.5 230.5 c 128,-1,32
 922 140 922 140 779 140 c 2,33,-1
 595 140 l 2,34,35
 551 140 551 140 551 106 c 0,36,37
 551 70 551 70 604 70 c 2,38,-1
 1244 70 l 1,0,-1
675 560 m 1,39,40
 621 516 621 516 621 473 c 0,41,42
 621 386 621 386 666 386 c 0,43,44
 709 386 709 386 709 473 c 0,45,46
 709 518 709 518 675 560 c 1,39,40
EndSplineSet
EndChar

StartChar: tm_three
Encoding: 3049 3049 98
Width: 1424
GlyphClass: 2
Flags: W
LayerCount: 2
Fore
SplineSet
1270 70 m 1,0,-1
 1252 0 l 1,1,-1
 640 0 l 1,2,-1
 657 70 l 1,3,-1
 780 70 l 2,4,5
 874 70 874 70 941 130.5 c 128,-1,6
 1008 191 1008 191 1008 280 c 0,7,8
 1008 317 1008 317 982.5 342.5 c 128,-1,9
 957 368 957 368 920 368 c 0,10,11
 890 368 890 368 865 341 c 128,-1,12
 840 314 840 314 833 280 c 2,13,-1
 815 193 l 1,14,-1
 675 193 l 1,15,-1
 764 630 l 1,16,-1
 571 630 l 1,17,-1
 444 0 l 1,18,-1
 378 0 l 1,19,-1
 517 700 l 1,20,-1
 1095 700 l 1,21,-1
 1077 630 l 1,22,-1
 902 630 l 1,23,-1
 859 403 l 1,24,25
 918 455 918 455 990 455 c 0,26,27
 1057 455 1057 455 1102.5 403.5 c 128,-1,28
 1148 352 1148 352 1148 280 c 0,29,30
 1148 209 1148 209 1090 151 c 128,-1,31
 1032 93 1032 93 947 70 c 1,32,-1
 1270 70 l 1,0,-1
EndSplineSet
EndChar

StartChar: tm_four
Encoding: 3050 3050 99
Width: 1427
GlyphClass: 2
Flags: W
LayerCount: 2
Fore
SplineSet
915 316 m 1,0,-1
 644 316 l 2,1,2
 601 316 601 316 570.5 291 c 128,-1,3
 540 266 540 266 540 228 c 0,4,5
 540 158 540 158 609.5 114 c 128,-1,6
 679 70 679 70 766 70 c 0,7,8
 811 70 811 70 844 99.5 c 128,-1,9
 877 129 877 129 887 175 c 2,10,-1
 915 316 l 1,0,-1
979 630 m 1,11,-1
 784 630 l 1,12,-1
 735 386 l 1,13,-1
 930 386 l 1,14,-1
 979 630 l 1,11,-1
1042 245 m 2,15,16
 1017 125 1017 125 940 62.5 c 128,-1,17
 863 0 863 0 766 0 c 0,18,19
 651 0 651 0 559.5 64 c 128,-1,20
 468 128 468 128 468 228 c 0,21,22
 468 294 468 294 520.5 340 c 128,-1,23
 573 386 573 386 644 386 c 2,24,-1
 669 386 l 1,25,-1
 731 700 l 1,26,-1
 1344 700 l 1,27,-1
 1329 630 l 1,28,-1
 1118 630 l 1,29,-1
 1068 386 l 1,30,-1
 1232 386 l 1,31,-1
 1248 464 l 1,32,-1
 1309 464 l 1,33,-1
 1279 316 l 1,34,-1
 1055 316 l 1,35,-1
 1042 245 l 2,15,16
EndSplineSet
EndChar

StartChar: tm_five
Encoding: 3051 3051 100
Width: 1424
GlyphClass: 2
Flags: W
LayerCount: 2
Fore
SplineSet
1412 517 m 1,0,-1
 1359 526 l 1,1,2
 1369 563 1369 563 1369 598 c 0,3,4
 1369 723 1369 723 1253.5 825.5 c 128,-1,5
 1138 928 1138 928 965 928 c 0,6,7
 728 928 728 928 575.5 716 c 128,-1,8
 423 504 423 504 423 228 c 0,9,10
 423 -43 423 -43 515 -179.5 c 128,-1,11
 607 -316 607 -316 790 -316 c 0,12,13
 979 -316 979 -316 1103.5 -163.5 c 128,-1,14
 1228 -11 1228 -11 1228 193 c 0,15,16
 1228 257 1228 257 1200 304.5 c 128,-1,17
 1172 352 1172 352 1126 352 c 0,18,19
 1099 352 1099 352 1072.5 336.5 c 128,-1,20
 1046 321 1046 321 1039 298 c 2,21,-1
 980 0 l 1,22,-1
 840 0 l 1,23,-1
 965 630 l 1,24,-1
 759 630 l 1,25,-1
 634 0 l 1,26,-1
 566 0 l 1,27,-1
 706 700 l 1,28,-1
 1237 700 l 1,29,-1
 1219 630 l 1,30,-1
 1105 630 l 1,31,-1
 1057 386 l 1,32,33
 1101 437 1101 437 1171 437 c 0,34,35
 1261 437 1261 437 1314.5 368.5 c 128,-1,36
 1368 300 1368 300 1368 193 c 0,37,38
 1368 -47 1368 -47 1202.5 -216 c 128,-1,39
 1037 -385 1037 -385 799 -385 c 0,40,41
 589 -385 589 -385 471.5 -223 c 128,-1,42
 354 -61 354 -61 354 193 c 0,43,44
 354 513 354 513 519 764 c 128,-1,45
 684 1015 684 1015 948 1015 c 0,46,47
 1152 1015 1152 1015 1288.5 889.5 c 128,-1,48
 1425 764 1425 764 1425 613 c 0,49,50
 1425 566 1425 566 1412 517 c 1,0,-1
EndSplineSet
EndChar

StartChar: tm_six
Encoding: 3052 3052 101
Width: 1424
GlyphClass: 2
Flags: W
LayerCount: 2
Fore
SplineSet
784 316 m 1,0,-1
 513 316 l 2,1,2
 469 316 469 316 438 291 c 128,-1,3
 407 266 407 266 407 228 c 0,4,5
 407 158 407 158 477 114 c 128,-1,6
 547 70 547 70 635 70 c 0,7,8
 680 70 680 70 713 99.5 c 128,-1,9
 746 129 746 129 756 175 c 2,10,-1
 784 316 l 1,0,-1
846 630 m 1,11,-1
 653 630 l 1,12,-1
 603 386 l 1,13,-1
 798 386 l 1,14,-1
 846 630 l 1,11,-1
910 245 m 2,15,16
 884 125 884 125 808 62.5 c 128,-1,17
 732 0 732 0 635 0 c 0,18,19
 518 0 518 0 428 64 c 128,-1,20
 338 128 338 128 338 228 c 0,21,22
 338 294 338 294 389.5 340 c 128,-1,23
 441 386 441 386 513 386 c 2,24,-1
 537 386 l 1,25,-1
 600 700 l 1,26,-1
 1229 700 l 1,27,-1
 1213 630 l 1,28,-1
 988 630 l 1,29,-1
 938 386 l 1,30,-1
 1422 386 l 1,31,-1
 1410 316 l 1,32,-1
 1353 316 l 1,33,-1
 1291 0 l 1,34,-1
 1151 0 l 1,35,-1
 1213 316 l 1,36,-1
 1116 316 l 1,37,-1
 1055 0 l 1,38,-1
 967 0 l 1,39,-1
 1028 316 l 1,40,-1
 924 316 l 1,41,-1
 910 245 l 2,15,16
EndSplineSet
EndChar

StartChar: tm_seven
Encoding: 3053 3053 102
Width: 1425
GlyphClass: 2
Flags: W
LayerCount: 2
Fore
SplineSet
643 88 m 1,0,1
 706 88 706 88 753 128 c 128,-1,2
 800 168 800 168 800 228 c 0,3,4
 800 269 800 269 781 301 c 128,-1,5
 762 333 762 333 729 333 c 0,6,7
 684 333 684 333 654.5 296.5 c 128,-1,8
 625 260 625 260 625 210 c 0,9,10
 625 135 625 135 643 88 c 1,0,1
1042 0 m 1,11,-1
 1167 630 l 1,12,-1
 852 630 l 2,13,14
 704 630 704 630 594.5 540.5 c 128,-1,15
 485 451 485 451 485 316 c 0,16,17
 485 247 485 247 507 194.5 c 128,-1,18
 529 142 529 142 572 106 c 1,19,20
 555 135 555 135 555 228 c 256,21,22
 555 321 555 321 614.5 388 c 128,-1,23
 674 455 674 455 765 455 c 0,24,25
 837 455 837 455 884 398 c 128,-1,26
 931 341 931 341 931 263 c 0,27,28
 931 155 931 155 863 77.5 c 128,-1,29
 795 0 795 0 695 0 c 0,30,31
 576 0 576 0 495.5 94 c 128,-1,32
 415 188 415 188 415 316 c 0,33,34
 415 481 415 481 545.5 590.5 c 128,-1,35
 676 700 676 700 852 700 c 2,36,-1
 1430 700 l 1,37,-1
 1412 630 l 1,38,-1
 1307 630 l 1,39,-1
 1181 0 l 1,40,-1
 1042 0 l 1,11,-1
EndSplineSet
EndChar

StartChar: tm_eight
Encoding: 3054 3054 103
Width: 1427
GlyphClass: 2
Flags: W
LayerCount: 2
Fore
SplineSet
849 629 m 1,0,1
 745 611 745 611 670 548.5 c 128,-1,2
 595 486 595 486 595 402 c 0,3,4
 595 338 595 338 638.5 291 c 128,-1,5
 682 244 682 244 744 244 c 0,6,7
 817 244 817 244 864 307.5 c 128,-1,8
 911 371 911 371 911 454 c 0,9,10
 911 580 911 580 849 629 c 1,0,1
1024 140 m 1,11,-1
 411 140 l 2,12,13
 381 140 381 140 357 125 c 128,-1,14
 333 110 333 110 333 87 c 0,15,16
 333 43 333 43 412 -13.5 c 128,-1,17
 491 -70 491 -70 639 -70 c 0,18,19
 743 -70 743 -70 839.5 -18 c 128,-1,20
 936 34 936 34 1024 140 c 1,11,-1
1414 -245 m 1,21,-1
 1269 -245 l 1,22,-1
 1348 140 l 1,23,-1
 1164 140 l 1,24,25
 1051 4 1051 4 915 -63.5 c 128,-1,26
 779 -131 779 -131 621 -131 c 0,27,28
 421 -131 421 -131 311.5 -52.5 c 128,-1,29
 202 26 202 26 202 123 c 0,30,31
 202 160 202 160 233 184.5 c 128,-1,32
 264 209 264 209 307 209 c 2,33,-1
 666 209 l 1,34,35
 604 231 604 231 565 284.5 c 128,-1,36
 526 338 526 338 526 402 c 0,37,38
 526 534 526 534 652 617 c 128,-1,39
 778 700 778 700 937 700 c 0,40,41
 1069 700 1069 700 1169 620.5 c 128,-1,42
 1269 541 1269 541 1269 420 c 0,43,44
 1269 306 1269 306 1213 209 c 1,45,-1
 1364 209 l 1,46,-1
 1463 700 l 1,47,-1
 1603 700 l 1,48,-1
 1414 -245 l 1,21,-1
989 620 m 1,49,50
 1042 530 1042 530 1042 411 c 0,51,52
 1042 267 1042 267 919 209 c 1,53,-1
 1077 209 l 1,54,55
 1146 308 1146 308 1146 402 c 0,56,57
 1146 486 1146 486 1103 553 c 128,-1,58
 1060 620 1060 620 989 620 c 1,49,50
EndSplineSet
EndChar

StartChar: tm_nine
Encoding: 3055 3055 104
Width: 1427
GlyphClass: 2
Flags: W
LayerCount: 2
Fore
SplineSet
692 316 m 1,0,-1
 422 316 l 2,1,2
 379 316 379 316 348 291 c 128,-1,3
 317 266 317 266 317 228 c 0,4,5
 317 158 317 158 387 114 c 128,-1,6
 457 70 457 70 544 70 c 0,7,8
 589 70 589 70 622 99.5 c 128,-1,9
 655 129 655 129 665 175 c 2,10,-1
 692 316 l 1,0,-1
756 630 m 1,11,-1
 562 630 l 1,12,-1
 513 386 l 1,13,-1
 707 386 l 1,14,-1
 756 630 l 1,11,-1
1157 175 m 0,15,16
 1157 259 1157 259 1052 298 c 1,17,18
 982 240 982 240 982 158 c 0,19,20
 982 121 982 121 1007.5 95.5 c 128,-1,21
 1033 70 1033 70 1068 70 c 0,22,23
 1107 70 1107 70 1132 101.5 c 128,-1,24
 1157 133 1157 133 1157 175 c 0,15,16
1297 0 m 1,25,26
 1375 93 1375 93 1375 193 c 0,27,28
 1375 263 1375 263 1332.5 315.5 c 128,-1,29
 1290 368 1290 368 1226 368 c 0,30,31
 1163 368 1163 368 1113 342 c 1,32,33
 1167 322 1167 322 1201 276.5 c 128,-1,34
 1235 231 1235 231 1235 175 c 0,35,36
 1235 104 1235 104 1187 52 c 128,-1,37
 1139 0 1139 0 1068 0 c 0,38,39
 1005 0 1005 0 958.5 46.5 c 128,-1,40
 912 93 912 93 912 158 c 0,41,42
 912 257 912 257 982 316 c 1,43,-1
 833 316 l 1,44,-1
 819 245 l 2,45,46
 795 125 795 125 718.5 62.5 c 128,-1,47
 642 0 642 0 544 0 c 0,48,49
 428 0 428 0 337 64 c 128,-1,50
 246 128 246 128 246 228 c 0,51,52
 246 294 246 294 299 340 c 128,-1,53
 352 386 352 386 422 386 c 2,54,-1
 446 386 l 1,55,-1
 508 700 l 1,56,-1
 1122 700 l 1,57,-1
 1104 630 l 1,58,-1
 896 630 l 1,59,-1
 847 386 l 1,60,-1
 947 386 l 2,61,62
 1014 386 1014 386 1052 368 c 1,63,64
 1111 420 1111 420 1226 420 c 0,65,66
 1327 420 1327 420 1399.5 354.5 c 128,-1,67
 1472 289 1472 289 1472 193 c 0,68,69
 1472 109 1472 109 1410 0 c 1,70,-1
 1297 0 l 1,25,26
EndSplineSet
EndChar

StartChar: tm_ten
Encoding: 3056 3056 105
Width: 1260
GlyphClass: 2
Flags: W
LayerCount: 2
Fore
SplineSet
597 149 m 1,0,1
 558 74 558 74 508 37 c 128,-1,2
 458 0 458 0 395 0 c 0,3,4
 302 0 302 0 242 64 c 128,-1,5
 182 128 182 128 182 200 c 0,6,7
 182 224 182 224 186 244 c 2,8,-1
 279 700 l 1,9,-1
 419 700 l 1,10,-1
 325 244 l 2,11,12
 320 223 320 223 320 205 c 0,13,14
 320 155 320 155 346.5 112.5 c 128,-1,15
 373 70 373 70 413 70 c 0,16,17
 472 70 472 70 525 146 c 128,-1,18
 578 222 578 222 606 359 c 2,19,-1
 675 700 l 1,20,-1
 815 700 l 1,21,-1
 746 351 l 2,22,23
 728 262 728 262 728 204 c 0,24,25
 728 150 728 150 760.5 110 c 128,-1,26
 793 70 793 70 841 70 c 0,27,28
 957 70 957 70 1026 204 c 128,-1,29
 1095 338 1095 338 1095 500 c 0,30,31
 1095 691 1095 691 995.5 840 c 128,-1,32
 896 989 896 989 737 989 c 1,33,-1
 755 1042 l 1,34,35
 960 1042 960 1042 1097.5 880.5 c 128,-1,36
 1235 719 1235 719 1235 500 c 0,37,38
 1235 300 1235 300 1118.5 150 c 128,-1,39
 1002 0 1002 0 824 0 c 0,40,41
 739 0 739 0 673.5 40.5 c 128,-1,42
 608 81 608 81 597 149 c 1,0,1
EndSplineSet
EndChar

StartChar: tm_hundred
Encoding: 3057 3057 106
Width: 1166
GlyphClass: 2
Flags: W
LayerCount: 2
Fore
SplineSet
1284 700 m 1,0,-1
 1267 629 l 1,1,-1
 1117 629 l 1,2,-1
 991 0 l 1,3,-1
 851 0 l 1,4,-1
 977 629 l 1,5,-1
 770 629 l 1,6,-1
 644 0 l 1,7,-1
 504 0 l 1,8,-1
 599 472 l 2,9,10
 606 507 606 507 606 534 c 0,11,12
 606 579 606 579 589 613 c 128,-1,13
 572 647 572 647 540 647 c 0,14,15
 483 647 483 647 440 595.5 c 128,-1,16
 397 544 397 544 382 472 c 2,17,-1
 285 0 l 1,18,-1
 146 0 l 1,19,-1
 242 472 l 2,20,21
 263 577 263 577 336.5 647 c 128,-1,22
 410 717 410 717 503 717 c 0,23,24
 567 717 567 717 614 679.5 c 128,-1,25
 661 642 661 642 661 585 c 1,26,-1
 685 700 l 1,27,-1
 1284 700 l 1,0,-1
EndSplineSet
EndChar

StartChar: tm_thousand
Encoding: 3058 3058 107
Width: 1256
GlyphClass: 2
Flags: W
LayerCount: 2
Fore
SplineSet
551 316 m 1,0,-1
 280 316 l 2,1,2
 237 316 237 316 206 291 c 128,-1,3
 175 266 175 266 175 228 c 0,4,5
 175 158 175 158 245.5 114 c 128,-1,6
 316 70 316 70 402 70 c 0,7,8
 447 70 447 70 480 99.5 c 128,-1,9
 513 129 513 129 523 175 c 2,10,-1
 551 316 l 1,0,-1
615 630 m 1,11,-1
 420 630 l 1,12,-1
 371 386 l 1,13,-1
 565 386 l 1,14,-1
 615 630 l 1,11,-1
677 245 m 2,15,16
 653 125 653 125 576 62.5 c 128,-1,17
 499 0 499 0 402 0 c 0,18,19
 285 0 285 0 195 64 c 128,-1,20
 105 128 105 128 105 228 c 0,21,22
 105 294 105 294 156.5 340 c 128,-1,23
 208 386 208 386 280 386 c 2,24,-1
 304 386 l 1,25,-1
 367 700 l 1,26,-1
 997 700 l 1,27,-1
 983 630 l 1,28,-1
 755 630 l 1,29,-1
 705 386 l 1,30,-1
 1120 386 l 1,31,-1
 1105 316 l 1,32,-1
 971 316 l 1,33,-1
 945 175 l 1,34,35
 990 228 990 228 1067 228 c 0,36,37
 1134 228 1134 228 1179.5 176 c 128,-1,38
 1225 124 1225 124 1225 53 c 0,39,40
 1225 -78 1225 -78 1108 -161 c 128,-1,41
 991 -244 991 -244 840 -244 c 0,42,43
 740 -244 740 -244 542 -205 c 0,44,45
 346 -167 346 -167 244 -167 c 0,46,47
 181 -167 181 -167 134 -206.5 c 128,-1,48
 87 -246 87 -246 87 -307 c 0,49,50
 87 -384 87 -384 158 -411 c 1,51,-1
 149 -445 l 1,52,53
 82 -433 82 -433 36.5 -387 c 128,-1,54
 -9 -341 -9 -341 -9 -280 c 0,55,56
 -9 -205 -9 -205 70.5 -159.5 c 128,-1,57
 150 -114 150 -114 244 -114 c 0,58,59
 346 -114 346 -114 542 -153 c 0,60,61
 740 -192 740 -192 840 -192 c 0,62,63
 938 -192 938 -192 1011.5 -135 c 128,-1,64
 1085 -78 1085 -78 1085 9 c 0,65,66
 1085 61 1085 61 1061 100.5 c 128,-1,67
 1037 140 1037 140 997 140 c 256,68,69
 957 140 957 140 927 88 c 1,70,-1
 910 0 l 1,71,-1
 769 0 l 1,72,-1
 831 316 l 1,73,-1
 691 316 l 1,74,-1
 677 245 l 2,15,16
EndSplineSet
EndChar

StartChar: zerowidthnonjoiner
Encoding: 8204 8204 108
Width: 0
GlyphClass: 2
Flags: W
LayerCount: 2
Fore
SplineSet
315 1225 m 1,0,-1
 -34 -516 l 1,1,-1
 -103 -516 l 1,2,-1
 244 1225 l 1,3,-1
 315 1225 l 1,0,-1
EndSplineSet
EndChar

StartChar: zerowidthjoiner
Encoding: 8205 8205 109
Width: 0
GlyphClass: 2
Flags: W
LayerCount: 2
Fore
SplineSet
415 997 m 1,0,-1
 363 953 l 1,1,-1
 270 1073 l 1,2,-1
 -24 -441 l 1,3,-1
 -87 -441 l 1,4,-1
 206 1073 l 1,5,-1
 65 953 l 1,6,-1
 32 997 l 1,7,-1
 210 1145 l 1,8,-1
 89 1292 l 1,9,-1
 140 1334 l 1,10,-1
 260 1185 l 1,11,-1
 437 1334 l 1,12,-1
 472 1292 l 1,13,-1
 294 1145 l 1,14,-1
 415 997 l 1,0,-1
EndSplineSet
EndChar

StartChar: u2013
Encoding: 8211 8211 110
Width: 722
GlyphClass: 2
Flags: W
LayerCount: 2
Fore
SplineSet
733 319 m 1,0,-1
 -12 319 l 1,1,-1
 -12 370 l 1,2,-1
 733 370 l 1,3,-1
 733 319 l 1,0,-1
EndSplineSet
EndChar

StartChar: u2014
Encoding: 8212 8212 111
Width: 1284
GlyphClass: 2
Flags: W
LayerCount: 2
Fore
SplineSet
1296 318 m 1,0,-1
 -13 319 l 1,1,-1
 -13 371 l 1,2,-1
 1296 370 l 1,3,-1
 1296 318 l 1,0,-1
EndSplineSet
EndChar

StartChar: u2018
Encoding: 8216 8216 112
Width: 318
GlyphClass: 2
Flags: W
LayerCount: 2
Fore
SplineSet
286 820 m 1,0,1
 290 748 290 748 253 697 c 128,-1,2
 216 646 216 646 150 646 c 0,3,4
 96 646 96 646 62 691 c 128,-1,5
 28 736 28 736 28 798 c 0,6,7
 28 944 28 944 192 1114 c 1,8,9
 236 1106 236 1106 236 1076 c 0,10,11
 236 1072 236 1072 205 1036 c 128,-1,12
 174 1000 174 1000 174 952 c 0,13,14
 174 872 174 872 286 820 c 1,0,1
EndSplineSet
EndChar

StartChar: u2019
Encoding: 8217 8217 113
Width: 318
GlyphClass: 2
Flags: W
LayerCount: 2
Fore
SplineSet
288 966 m 0,0,1
 288 820 288 820 124 650 c 1,2,3
 80 658 80 658 80 688 c 0,4,5
 80 694 80 694 111 730 c 128,-1,6
 142 766 142 766 142 812 c 0,7,8
 142 892 142 892 30 944 c 1,9,10
 26 1016 26 1016 63 1067 c 128,-1,11
 100 1118 100 1118 166 1118 c 0,12,13
 220 1118 220 1118 254 1073 c 128,-1,14
 288 1028 288 1028 288 966 c 0,0,1
EndSplineSet
EndChar

StartChar: u201C
Encoding: 8220 8220 114
Width: 407
GlyphClass: 2
Flags: W
LayerCount: 2
Fore
SplineSet
270 920 m 1,0,1
 274 848 274 848 237 797 c 128,-1,2
 200 746 200 746 134 746 c 0,3,4
 80 746 80 746 46 791 c 128,-1,5
 12 836 12 836 12 898 c 0,6,7
 12 1044 12 1044 176 1214 c 1,8,9
 220 1206 220 1206 220 1176 c 0,10,11
 220 1172 220 1172 189 1136 c 128,-1,12
 158 1100 158 1100 158 1052 c 0,13,14
 158 972 158 972 270 920 c 1,0,1
550 920 m 1,15,16
 554 848 554 848 517 797 c 128,-1,17
 480 746 480 746 414 746 c 0,18,19
 360 746 360 746 326 791 c 128,-1,20
 292 836 292 836 292 898 c 0,21,22
 292 1044 292 1044 456 1214 c 1,23,24
 500 1206 500 1206 500 1176 c 0,25,26
 500 1172 500 1172 469 1136 c 128,-1,27
 438 1100 438 1100 438 1052 c 0,28,29
 438 972 438 972 550 920 c 1,15,16
EndSplineSet
EndChar

StartChar: u201D
Encoding: 8221 8221 115
Width: 601
GlyphClass: 2
Flags: W
LayerCount: 2
Fore
SplineSet
288 1066 m 0,0,1
 288 920 288 920 124 750 c 1,2,3
 80 758 80 758 80 788 c 0,4,5
 80 794 80 794 111 830 c 128,-1,6
 142 866 142 866 142 912 c 0,7,8
 142 992 142 992 30 1044 c 1,9,10
 26 1116 26 1116 63 1167 c 128,-1,11
 100 1218 100 1218 166 1218 c 0,12,13
 220 1218 220 1218 254 1173 c 128,-1,14
 288 1128 288 1128 288 1066 c 0,0,1
578 1066 m 0,15,16
 578 920 578 920 414 750 c 1,17,18
 370 758 370 758 370 788 c 0,19,20
 370 794 370 794 401 830 c 128,-1,21
 432 866 432 866 432 912 c 0,22,23
 432 992 432 992 320 1044 c 1,24,25
 316 1116 316 1116 353 1167 c 128,-1,26
 390 1218 390 1218 456 1218 c 0,27,28
 510 1218 510 1218 544 1173 c 128,-1,29
 578 1128 578 1128 578 1066 c 0,15,16
EndSplineSet
EndChar

StartChar: u2026
Encoding: 8230 8230 116
Width: 1283
GlyphClass: 2
Flags: W
LayerCount: 2
Fore
SplineSet
265 136 m 0,0,1
 298 136 298 136 320.5 114 c 128,-1,2
 343 92 343 92 343 58 c 0,3,4
 343 26 343 26 320.5 3 c 128,-1,5
 298 -20 298 -20 265 -20 c 0,6,7
 233 -20 233 -20 210 3 c 128,-1,8
 187 26 187 26 187 58 c 0,9,10
 187 92 187 92 210 114 c 128,-1,11
 233 136 233 136 265 136 c 0,0,1
638 136 m 256,12,13
 670 136 670 136 693 114 c 128,-1,14
 716 92 716 92 716 58 c 0,15,16
 716 26 716 26 692.5 3 c 128,-1,17
 669 -20 669 -20 638 -20 c 0,18,19
 606 -20 606 -20 583 3 c 128,-1,20
 560 26 560 26 560 58 c 0,21,22
 560 92 560 92 583 114 c 128,-1,23
 606 136 606 136 638 136 c 256,12,13
1010 136 m 0,24,25
 1043 136 1043 136 1066 114 c 128,-1,26
 1089 92 1089 92 1089 58 c 0,27,28
 1089 26 1089 26 1065.5 3 c 128,-1,29
 1042 -20 1042 -20 1010 -20 c 256,30,31
 978 -20 978 -20 955.5 3 c 128,-1,32
 933 26 933 26 933 58 c 0,33,34
 933 92 933 92 955.5 114 c 128,-1,35
 978 136 978 136 1010 136 c 0,24,25
EndSplineSet
EndChar

StartChar: u2212
Encoding: 8722 8722 117
Width: 974
GlyphClass: 2
Flags: W
LayerCount: 2
Fore
SplineSet
133 450 m 1,0,-1
 133 508 l 1,1,-1
 894 508 l 1,2,-1
 894 450 l 1,3,-1
 133 450 l 1,0,-1
EndSplineSet
EndChar

StartChar: u25CC
Encoding: 9676 9676 118
Width: 1167
GlyphClass: 2
Flags: W
LayerCount: 2
Fore
SplineSet
654 665 m 0,0,1
 626 665 626 665 612 679 c 128,-1,2
 598 693 598 693 598 724 c 0,3,4
 598 746 598 746 615 762.5 c 128,-1,5
 632 779 632 779 654 779 c 0,6,7
 683 779 683 779 697.5 765 c 128,-1,8
 712 751 712 751 712 724 c 0,9,10
 712 693 712 693 697.5 679 c 128,-1,11
 683 665 683 665 654 665 c 0,0,1
840 616 m 0,12,13
 811 616 811 616 796.5 630.5 c 128,-1,14
 782 645 782 645 782 674 c 0,15,16
 782 701 782 701 796.5 715 c 128,-1,17
 811 729 811 729 840 729 c 0,18,19
 862 729 862 729 879 713 c 128,-1,20
 896 697 896 697 896 674 c 0,21,22
 896 645 896 645 882 630.5 c 128,-1,23
 868 616 868 616 840 616 c 0,12,13
470 616 m 0,24,25
 442 616 442 616 428 630.5 c 128,-1,26
 414 645 414 645 414 674 c 0,27,28
 414 697 414 697 431 713 c 128,-1,29
 448 729 448 729 470 729 c 0,30,31
 494 729 494 729 510 713 c 128,-1,32
 526 697 526 697 526 674 c 0,33,34
 526 645 526 645 512.5 630.5 c 128,-1,35
 499 616 499 616 470 616 c 0,24,25
973 482 m 0,36,37
 951 482 951 482 933.5 498 c 128,-1,38
 916 514 916 514 916 538 c 0,39,40
 916 567 916 567 930.5 581 c 128,-1,41
 945 595 945 595 973 595 c 256,42,43
 1001 595 1001 595 1014.5 581 c 128,-1,44
 1028 567 1028 567 1028 538 c 0,45,46
 1028 514 1028 514 1012 498 c 128,-1,47
 996 482 996 482 973 482 c 0,36,37
336 482 m 0,48,49
 307 482 307 482 293 495.5 c 128,-1,50
 279 509 279 509 279 538 c 256,51,52
 279 567 279 567 293 581 c 128,-1,53
 307 595 307 595 336 595 c 0,54,55
 364 595 364 595 378 581 c 128,-1,56
 392 567 392 567 392 538 c 0,57,58
 392 514 392 514 375 498 c 128,-1,59
 358 482 358 482 336 482 c 0,48,49
1024 298 m 0,60,61
 994 298 994 298 979.5 311.5 c 128,-1,62
 965 325 965 325 965 354 c 0,63,64
 965 382 965 382 979.5 396 c 128,-1,65
 994 410 994 410 1024 410 c 0,66,67
 1046 410 1046 410 1063 393 c 128,-1,68
 1080 376 1080 376 1080 354 c 0,69,70
 1080 331 1080 331 1063 314.5 c 128,-1,71
 1046 298 1046 298 1024 298 c 0,60,61
287 298 m 0,72,73
 257 298 257 298 243 311.5 c 128,-1,74
 229 325 229 325 229 354 c 0,75,76
 229 382 229 382 243 396 c 128,-1,77
 257 410 257 410 287 410 c 0,78,79
 310 410 310 410 326.5 393 c 128,-1,80
 343 376 343 376 343 354 c 0,81,82
 343 331 343 331 326.5 314.5 c 128,-1,83
 310 298 310 298 287 298 c 0,72,73
973 112 m 256,84,85
 945 112 945 112 930.5 126.5 c 128,-1,86
 916 141 916 141 916 169 c 0,87,88
 916 193 916 193 933.5 209.5 c 128,-1,89
 951 226 951 226 973 226 c 0,90,91
 996 226 996 226 1012 209.5 c 128,-1,92
 1028 193 1028 193 1028 169 c 0,93,94
 1028 141 1028 141 1014.5 126.5 c 128,-1,95
 1001 112 1001 112 973 112 c 256,84,85
336 112 m 0,96,97
 307 112 307 112 293 126.5 c 128,-1,98
 279 141 279 141 279 169 c 0,99,100
 279 198 279 198 293 212 c 128,-1,101
 307 226 307 226 336 226 c 0,102,103
 358 226 358 226 375 209.5 c 128,-1,104
 392 193 392 193 392 169 c 0,105,106
 392 141 392 141 378 126.5 c 128,-1,107
 364 112 364 112 336 112 c 0,96,97
840 -22 m 0,108,109
 811 -22 811 -22 796.5 -8 c 128,-1,110
 782 6 782 6 782 34 c 0,111,112
 782 63 782 63 796.5 78 c 128,-1,113
 811 93 811 93 840 93 c 0,114,115
 863 93 863 93 879.5 75 c 128,-1,116
 896 57 896 57 896 34 c 256,117,118
 896 11 896 11 879 -5.5 c 128,-1,119
 862 -22 862 -22 840 -22 c 0,108,109
470 -22 m 0,120,121
 448 -22 448 -22 431 -5.5 c 128,-1,122
 414 11 414 11 414 34 c 256,123,124
 414 57 414 57 430.5 75 c 128,-1,125
 447 93 447 93 470 93 c 0,126,127
 495 93 495 93 510.5 75 c 128,-1,128
 526 57 526 57 526 34 c 256,129,130
 526 11 526 11 510 -5.5 c 128,-1,131
 494 -22 494 -22 470 -22 c 0,120,121
654 -72 m 0,132,133
 632 -72 632 -72 615 -55 c 128,-1,134
 598 -38 598 -38 598 -16 c 0,135,136
 598 14 598 14 612 28.5 c 128,-1,137
 626 43 626 43 654 43 c 0,138,139
 683 43 683 43 697.5 28.5 c 128,-1,140
 712 14 712 14 712 -16 c 0,141,142
 712 -44 712 -44 697.5 -58 c 128,-1,143
 683 -72 683 -72 654 -72 c 0,132,133
EndSplineSet
EndChar

StartChar: tm_k_ikaar
Encoding: 65539 -1 119
Width: 838
GlyphClass: 2
Flags: W
LayerCount: 2
Fore
SplineSet
818 1148 m 0,0,1
 818 1102 818 1102 792 1102 c 1,2,3
 792 1102 792 1102 735 1122 c 128,-1,4
 678 1142 678 1142 600 1142 c 0,5,6
 430 1142 430 1142 430 1030 c 0,7,8
 430 970 430 970 454 932 c 0,9,10
 486 880 486 880 492 856 c 0,11,12
 502 818 502 818 502 742 c 0,13,14
 504 608 504 608 506 558 c 1,15,16
 652 566 652 566 720 528 c 0,17,18
 808 476 808 476 808 328 c 0,19,20
 808 172 808 172 746 79 c 128,-1,21
 684 -14 684 -14 604 -14 c 0,22,23
 512 -14 512 -14 512 276 c 1,24,25
 526 272 526 272 544 272 c 0,26,27
 588 272 588 272 626 303 c 128,-1,28
 664 334 664 334 664 380 c 1,29,-1
 498 380 l 1,30,31
 498 254 498 254 450 140 c 0,32,33
 384 -24 384 -24 252 -24 c 0,34,35
 136 -24 136 -24 76 106 c 0,36,37
 30 206 30 206 30 338 c 0,38,39
 30 430 30 430 56 530 c 1,40,-1
 98 550 l 1,41,-1
 138 550 l 1,42,43
 106 610 106 610 106 722 c 0,44,45
 106 816 106 816 192 868 c 0,46,47
 268 914 268 914 376 914 c 1,48,49
 278 1044 278 1044 278 1160 c 0,50,51
 278 1272 278 1272 389 1350 c 128,-1,52
 500 1428 500 1428 652 1428 c 0,53,54
 736 1428 736 1428 782 1318 c 0,55,56
 818 1236 818 1236 818 1148 c 0,0,1
386 618 m 0,57,58
 386 670 386 670 356 670 c 256,59,60
 326 670 326 670 260 632 c 0,61,62
 184 588 184 588 190 552 c 1,63,-1
 372 552 l 1,64,65
 386 580 386 580 386 618 c 0,57,58
326 374 m 1,66,-1
 184 374 l 2,67,68
 140 374 140 374 140 354 c 0,69,70
 140 336 140 336 172 312 c 128,-1,71
 204 288 204 288 228 288 c 0,72,73
 246 288 246 288 281 321 c 128,-1,74
 316 354 316 354 326 374 c 1,66,-1
EndSplineSet
Ligature2: "'psts' Post Base Substitutions lookup 8 subtable" tm_ka tm_ikaar
EndChar

StartChar: tm_ng_ikaar
Encoding: 65540 -1 120
Width: 1265
GlyphClass: 2
Flags: W
LayerCount: 2
Fore
SplineSet
1020 88 m 2,0,1
 1020 -478 1020 -478 732 -478 c 0,2,3
 596 -478 596 -478 500 -354 c 0,4,5
 420 -252 420 -252 388 -102 c 1,6,7
 458 -72 458 -72 562 16 c 0,8,9
 698 136 698 136 698 230 c 0,10,11
 698 282 698 282 638 282 c 0,12,13
 600 282 600 282 548 222 c 0,14,15
 492 156 492 156 492 90 c 2,16,-1
 492 10 l 2,17,18
 492 -40 492 -40 456 -40 c 0,19,20
 358 -40 358 -40 362 90 c 2,21,-1
 372 442 l 1,22,23
 186 442 186 442 186 306 c 0,24,25
 186 196 186 196 278 68 c 1,26,-1
 154 2 l 1,27,28
 30 184 30 184 30 410 c 0,29,30
 30 602 30 602 152 678 c 0,31,32
 258 744 258 744 506 744 c 0,33,34
 624 744 624 744 652 719 c 128,-1,35
 680 694 680 694 680 598 c 2,36,-1
 680 466 l 1,37,38
 658 442 658 442 498 442 c 1,39,-1
 498 296 l 1,40,41
 526 330 526 330 576 362 c 0,42,43
 642 404 642 404 698 404 c 0,44,45
 752 404 752 404 786 364 c 128,-1,46
 820 324 820 324 820 256 c 0,47,48
 820 148 820 148 720 28 c 1,49,50
 648 -46 648 -46 576 -118 c 1,51,52
 652 -156 652 -156 700 -156 c 0,53,54
 770 -156 770 -156 826 -88 c 128,-1,55
 882 -20 882 -20 882 52 c 2,56,-1
 882 683 l 1,57,58
 814 810 814 810 814 880 c 0,59,60
 814 1006 814 1006 928 1084 c 0,61,62
 1030 1156 1030 1156 1168 1156 c 0,63,64
 1246 1156 1246 1156 1292 1074 c 0,65,66
 1336 1000 1336 1000 1336 890 c 0,67,68
 1336 836 1336 836 1314 836 c 0,69,70
 1312 836 1312 836 1257 856 c 128,-1,71
 1202 876 1202 876 1132 876 c 0,72,73
 960 876 960 876 960 762 c 0,74,75
 960 726 960 726 975 686 c 1,76,-1
 1020 658 l 1,77,-1
 1020 88 l 2,0,1
EndSplineSet
Ligature2: "'psts' Post Base Substitutions lookup 8 subtable" tm_nga tm_ikaar
EndChar

StartChar: tm_c_ikaar
Encoding: 65541 -1 121
Width: 844
GlyphClass: 2
Flags: W
LayerCount: 2
Fore
SplineSet
832 558 m 1,0,1
 788 466 788 466 764 434 c 0,2,3
 722 382 722 382 660 382 c 2,4,-1
 500 382 l 1,5,6
 474 -20 474 -20 250 -20 c 0,7,8
 144 -20 144 -20 84 90 c 0,9,10
 30 190 30 190 30 340 c 0,11,12
 30 446 30 446 56 532 c 1,13,-1
 98 552 l 1,14,-1
 140 552 l 1,15,16
 104 630 104 630 104 722 c 0,17,18
 104 812 104 812 186 864 c 0,19,20
 256 910 256 910 360 914 c 1,21,22
 308 1000 308 1000 300 1016 c 0,23,24
 262 1094 262 1094 262 1166 c 0,25,26
 262 1276 262 1276 376 1355 c 128,-1,27
 490 1434 490 1434 632 1434 c 0,28,29
 734 1434 734 1434 774 1306 c 0,30,31
 800 1222 800 1222 800 1152 c 0,32,33
 800 1104 800 1104 774 1104 c 1,34,35
 774 1104 774 1104 720 1125 c 128,-1,36
 666 1146 666 1146 590 1146 c 0,37,38
 414 1146 414 1146 414 1036 c 0,39,40
 414 946 414 946 457 911 c 128,-1,41
 500 876 500 876 500 800 c 2,42,-1
 500 558 l 1,43,-1
 832 558 l 1,0,1
382 618 m 0,44,45
 382 670 382 670 354 670 c 0,46,47
 324 670 324 670 258 632 c 0,48,49
 184 590 184 590 190 554 c 1,50,-1
 372 554 l 1,51,52
 382 574 382 574 382 618 c 0,44,45
324 376 m 1,53,-1
 182 376 l 2,54,55
 138 376 138 376 138 354 c 0,56,57
 138 338 138 338 174 315 c 128,-1,58
 210 292 210 292 230 292 c 0,59,60
 270 292 270 292 324 376 c 1,53,-1
EndSplineSet
Ligature2: "'psts' Post Base Substitutions lookup 8 subtable" tm_ca tm_ikaar
EndChar

StartChar: tm_j_ikaar
Encoding: 65542 -1 122
Width: 874
GlyphClass: 2
Flags: W
LayerCount: 2
Fore
SplineSet
992 1070 m 0,0,1
 992 1008 992 1008 970 1008 c 1,2,3
 976 1008 976 1008 924 1029 c 128,-1,4
 872 1050 872 1050 778 1050 c 0,5,6
 606 1050 606 1050 606 940 c 0,7,8
 606 908 606 908 621 867 c 128,-1,9
 636 826 636 826 648 816 c 0,10,11
 752 738 752 738 752 640 c 0,12,13
 752 534 752 534 644 448 c 0,14,15
 584 400 584 400 424 320 c 0,16,17
 362 290 362 290 305 259 c 128,-1,18
 248 228 248 228 248 188 c 0,19,20
 248 162 248 162 286 162 c 0,21,22
 316 162 316 162 437 256 c 128,-1,23
 558 350 558 350 638 350 c 0,24,25
 714 350 714 350 784 290 c 0,26,27
 860 224 860 224 860 136 c 0,28,29
 860 6 860 6 732 -134 c 0,30,31
 612 -264 612 -264 530 -264 c 0,32,33
 470 -264 470 -264 386 -186 c 0,34,35
 310 -116 310 -116 310 -90 c 0,36,37
 310 -54 310 -54 363 -33 c 128,-1,38
 416 -12 416 -12 472 8 c 1,39,40
 642 86 642 86 642 178 c 0,41,42
 642 234 642 234 592 234 c 0,43,44
 538 234 538 234 471 159 c 128,-1,45
 404 84 404 84 338 12 c 1,46,47
 256 -66 256 -66 170 -66 c 0,48,49
 110 -66 110 -66 66 -22 c 0,50,51
 14 28 14 28 14 106 c 0,52,53
 14 238 14 238 116 296 c 0,54,55
 144 314 144 314 326 370 c 0,56,57
 586 450 586 450 586 532 c 0,58,59
 586 588 586 588 522 588 c 0,60,61
 494 588 494 588 478 561 c 128,-1,62
 462 534 462 534 462 504 c 0,63,64
 462 472 462 472 488 464 c 1,65,66
 432 440 432 440 374 440 c 0,67,68
 358 440 358 440 352 444 c 1,69,70
 358 490 358 490 358 522 c 0,71,72
 358 594 358 594 306 638 c 0,73,74
 258 676 258 676 186 676 c 0,75,76
 56 676 56 676 42 574 c 1,77,78
 26 584 26 584 26 610 c 0,79,80
 26 690 26 690 94 759 c 128,-1,81
 162 828 162 828 250 828 c 0,82,83
 308 828 308 828 359 804 c 128,-1,84
 410 780 410 780 424 740 c 1,85,86
 454 816 454 816 544 832 c 1,87,88
 456 970 456 970 456 1054 c 0,89,90
 456 1186 456 1186 580 1268 c 0,91,92
 688 1340 688 1340 830 1340 c 0,93,94
 912 1340 912 1340 958 1232 c 0,95,96
 992 1152 992 1152 992 1070 c 0,0,1
336 500 m 0,97,98
 336 442 336 442 281 398 c 128,-1,99
 226 354 226 354 166 354 c 0,100,101
 112 354 112 354 79 396 c 128,-1,102
 46 438 46 438 46 496 c 0,103,104
 46 564 46 564 84 607 c 128,-1,105
 122 650 122 650 182 650 c 0,106,107
 246 650 246 650 291 608 c 128,-1,108
 336 566 336 566 336 500 c 0,97,98
EndSplineSet
Ligature2: "'psts' Post Base Substitutions lookup 8 subtable" tm_ja tm_ikaar
EndChar

StartChar: tm_ny_ikaar
Encoding: 65543 -1 123
Width: 881
GlyphClass: 2
Flags: W
LayerCount: 2
Fore
SplineSet
800 278 m 0,0,1
 800 156 800 156 698 0 c 0,2,3
 610 -130 610 -130 502 -216 c 0,4,5
 452 -256 452 -256 382 -288 c 0,6,7
 322 -318 322 -318 302 -318 c 0,8,9
 246 -318 246 -318 246 -254 c 0,10,11
 246 -212 246 -212 270 -144 c 0,12,13
 296 -64 296 -64 326 -64 c 0,14,15
 340 -64 340 -64 359 -79 c 128,-1,16
 378 -94 378 -94 428 -94 c 0,17,18
 526 -94 526 -94 618 2 c 0,19,20
 704 90 704 90 704 168 c 0,21,22
 704 220 704 220 662 220 c 0,23,24
 640 220 640 220 614 200 c 0,25,26
 582 174 582 174 582 142 c 2,27,-1
 582 -20 l 1,28,-1
 466 62 l 1,29,-1
 466 512 l 1,30,31
 300 518 300 518 214 492 c 0,32,33
 80 452 80 452 50 328 c 1,34,35
 30 382 30 382 30 380 c 1,36,37
 30 564 30 564 162 672 c 0,38,39
 258 750 258 750 494 759 c 1,40,41
 456 822 456 822 450 836 c 0,42,43
 412 914 412 914 412 986 c 0,44,45
 412 1096 412 1096 526 1175 c 128,-1,46
 640 1254 640 1254 782 1254 c 0,47,48
 884 1254 884 1254 924 1126 c 0,49,50
 950 1042 950 1042 950 972 c 0,51,52
 950 924 950 924 924 924 c 1,53,-1
 870 945 l 2,54,55
 816 966 816 966 740 966 c 0,56,57
 564 966 564 966 564 856 c 0,58,59
 564 795 564 795 583 759 c 1,60,61
 650 755 650 755 674 733 c 0,62,63
 702 706 702 706 702 622 c 2,64,-1
 702 462 l 1,65,-1
 592 506 l 1,66,-1
 584 386 l 1,67,68
 634 442 634 442 696 442 c 0,69,70
 746 442 746 442 776 390 c 0,71,72
 800 344 800 344 800 278 c 0,0,1
376 246 m 0,73,74
 376 164 376 164 330 106 c 0,75,76
 282 42 282 42 204 42 c 0,77,78
 132 42 132 42 94 102 c 0,79,80
 60 152 60 152 60 230 c 0,81,82
 60 312 60 312 103 377 c 128,-1,83
 146 442 146 442 218 442 c 0,84,85
 376 442 376 442 376 246 c 0,73,74
EndSplineSet
Ligature2: "'psts' Post Base Substitutions lookup 8 subtable" tm_nya tm_ikaar
EndChar

StartChar: tm_tt_ikaar
Encoding: 65544 -1 124
Width: 646
GlyphClass: 2
Flags: W
LayerCount: 2
Fore
SplineSet
632 674 m 0,0,1
 632 606 632 606 556 474 c 0,2,3
 500 384 500 384 444 294 c 1,4,5
 526 316 526 316 574 336 c 1,6,7
 596 314 596 314 596 262 c 0,8,9
 596 90 596 90 544 34 c 128,-1,10
 492 -22 492 -22 332 -22 c 1,11,12
 302 -94 302 -94 302 -134 c 0,13,14
 302 -210 302 -210 352 -210 c 0,15,16
 368 -210 368 -210 404 -170 c 128,-1,17
 440 -130 440 -130 454 -130 c 0,18,19
 500 -130 500 -130 500 -244 c 0,20,21
 500 -350 500 -350 460 -428 c 0,22,23
 414 -520 414 -520 338 -520 c 0,24,25
 256 -520 256 -520 216 -444 c 0,26,27
 182 -382 182 -382 182 -290 c 0,28,29
 182 -162 182 -162 250 -12 c 1,30,31
 30 26 30 26 30 274 c 0,32,33
 30 382 30 382 76 558 c 0,34,35
 116 716 116 716 144 760 c 0,36,37
 162 782 162 782 226 782 c 2,38,-1
 332 782 l 1,39,40
 276 722 276 722 228 616 c 0,41,42
 178 502 178 502 178 422 c 0,43,44
 178 298 178 298 284 288 c 1,45,-1
 284 650 l 1,46,47
 314 694 314 694 386 736 c 128,-1,48
 458 778 458 778 508 778 c 0,49,50
 556 778 556 778 594 748 c 128,-1,51
 632 718 632 718 632 674 c 0,0,1
484 514 m 1,52,53
 450 528 450 528 399 458 c 128,-1,54
 348 388 348 388 358 360 c 1,55,56
 414 412 414 412 426 426 c 0,57,58
 476 478 476 478 484 514 c 1,52,53
EndSplineSet
Ligature2: "'psts' Post Base Substitutions lookup 8 subtable" tm_tta tm_ikaar
EndChar

StartChar: tm_nn_ikaar
Encoding: 65545 -1 125
Width: 1412
GlyphClass: 2
Flags: W
LayerCount: 2
Fore
SplineSet
1566 922 m 0,0,1
 1566 872 1566 872 1544 872 c 1,2,3
 1544 872 1544 872 1490 893 c 128,-1,4
 1436 914 1436 914 1358 914 c 0,5,6
 1182 914 1182 914 1182 804 c 0,7,8
 1182 734 1182 734 1214 686 c 1,9,-1
 1270 686 l 2,10,11
 1348 686 1348 686 1373 665 c 128,-1,12
 1398 644 1398 644 1398 572 c 0,13,14
 1398 538 1398 538 1393 473 c 128,-1,15
 1388 408 1388 408 1388 390 c 1,16,17
 1308 406 1308 406 1280 406 c 0,18,19
 1248 406 1248 406 1248 364 c 2,20,-1
 1248 -48 l 2,21,22
 1248 -98 1248 -98 1228 -98 c 0,23,24
 1212 -98 1212 -98 1169 -63 c 128,-1,25
 1126 -28 1126 -28 1120 -12 c 1,26,-1
 1120 406 l 1,27,-1
 1108 406 l 1,28,29
 1108 576 1108 576 1022 654 c 1,30,-1
 1022 686 l 1,31,-1
 1124 686 l 1,32,33
 1030 838 1030 838 1030 934 c 0,34,35
 1030 1044 1030 1044 1146 1124 c 0,36,37
 1256 1200 1256 1200 1400 1200 c 0,38,39
 1484 1200 1484 1200 1530 1098 c 0,40,41
 1566 1018 1566 1018 1566 922 c 0,0,1
496 690 m 1,42,43
 446 622 446 622 422 588 c 0,44,45
 364 502 364 502 356 472 c 1,46,47
 326 508 326 508 270 508 c 0,48,49
 202 508 202 508 138 458 c 0,50,51
 66 404 66 404 34 316 c 1,52,53
 30 336 30 336 30 358 c 0,54,55
 30 482 30 482 130 596 c 128,-1,56
 230 710 230 710 360 710 c 0,57,58
 412 710 412 710 496 690 c 1,42,43
1072 390 m 0,59,60
 1072 246 1072 246 1012 122 c 0,61,62
 944 -16 944 -16 844 -16 c 0,63,64
 804 -16 804 -16 770 15 c 128,-1,65
 736 46 736 46 736 72 c 1,66,67
 736 70 736 70 764 157 c 128,-1,68
 792 244 792 244 792 346 c 0,69,70
 792 436 792 436 766 500 c 128,-1,71
 740 564 740 564 740 586 c 0,72,73
 740 624 740 624 784 652 c 128,-1,74
 828 680 828 680 880 680 c 0,75,76
 962 680 962 680 1017 594 c 128,-1,77
 1072 508 1072 508 1072 390 c 0,59,60
746 320 m 0,78,79
 746 186 746 186 700 96 c 0,80,81
 642 -12 642 -12 532 -12 c 0,82,83
 450 -12 450 -12 410 74 c 0,84,85
 376 142 376 142 376 244 c 0,86,87
 376 394 376 394 420 510 c 0,88,89
 472 644 472 644 560 644 c 0,90,91
 660 644 660 644 708 536 c 0,92,93
 746 450 746 450 746 320 c 0,78,79
356 234 m 0,94,95
 356 142 356 142 305 66 c 128,-1,96
 254 -10 254 -10 176 -10 c 0,97,98
 104 -10 104 -10 70 66 c 0,99,100
 40 126 40 126 40 218 c 0,101,102
 40 302 40 302 78 360 c 0,103,104
 122 426 122 426 194 426 c 0,105,106
 270 426 270 426 313 369 c 128,-1,107
 356 312 356 312 356 234 c 0,94,95
EndSplineSet
Ligature2: "'psts' Post Base Substitutions lookup 8 subtable" tm_nna tm_ikaar
EndChar

StartChar: tm_t_ikaar
Encoding: 65546 -1 126
Width: 846
GlyphClass: 2
Flags: W
LayerCount: 2
Fore
SplineSet
816 272 m 0,0,1
 816 -54 816 -54 624 -303 c 128,-1,2
 432 -552 432 -552 184 -552 c 0,3,4
 96 -552 96 -552 42 -442 c 0,5,6
 -2 -350 -2 -350 -2 -254 c 0,7,8
 -2 -196 -2 -196 34 -174 c 1,9,10
 58 -186 58 -186 85 -198 c 128,-1,11
 112 -210 112 -210 162 -210 c 0,12,13
 364 -210 364 -210 522 -71 c 128,-1,14
 680 68 680 68 680 248 c 0,15,16
 680 338 680 338 588 338 c 0,17,18
 576 338 576 338 548 338 c 0,19,20
 520 336 520 336 506 336 c 1,21,22
 510 212 510 212 458 92 c 0,23,24
 390 -64 390 -64 266 -64 c 0,25,26
 146 -64 146 -64 82 72 c 0,27,28
 30 180 30 180 30 328 c 0,29,30
 30 420 30 420 44 454 c 0,31,32
 68 512 68 512 144 518 c 1,33,34
 106 586 106 586 106 662 c 0,35,36
 106 858 106 858 362 890 c 1,37,38
 266 986 266 986 266 1150 c 0,39,40
 266 1274 266 1274 384 1350 c 0,41,42
 490 1418 490 1418 634 1418 c 0,43,44
 712 1418 712 1418 758 1312 c 0,45,46
 794 1228 794 1228 794 1150 c 0,47,48
 794 1092 794 1092 768 1092 c 0,49,50
 766 1092 766 1092 707 1110 c 128,-1,51
 648 1128 648 1128 584 1128 c 0,52,53
 410 1128 410 1128 410 1012 c 0,54,55
 410 938 410 938 448 882 c 1,56,57
 510 868 510 868 510 638 c 0,58,59
 510 584 510 584 506 532 c 1,60,61
 648 540 648 540 714 502 c 0,62,63
 816 446 816 446 816 272 c 0,0,1
394 562 m 256,64,65
 394 586 394 586 382 610 c 128,-1,66
 370 634 370 634 354 634 c 0,67,68
 318 634 318 634 257 598 c 128,-1,69
 196 562 196 562 196 530 c 0,70,71
 196 524 196 524 198 518 c 1,72,-1
 374 518 l 1,73,74
 394 538 394 538 394 562 c 256,64,65
338 336 m 1,75,-1
 194 336 l 2,76,77
 156 336 156 336 156 308 c 0,78,79
 156 254 156 254 228 254 c 0,80,81
 268 254 268 254 338 336 c 1,75,-1
EndSplineSet
Ligature2: "'psts' Post Base Substitutions lookup 8 subtable" tm_ta tm_ikaar
EndChar

StartChar: tm_n_ikaar
Encoding: 65547 -1 127
Width: 854
GlyphClass: 2
Flags: W
LayerCount: 2
Fore
SplineSet
824 246 m 0,0,1
 824 116 824 116 660 -42 c 0,2,3
 538 -160 538 -160 426 -218 c 1,4,5
 394 -134 394 -134 394 -104 c 0,6,7
 394 -102 394 -102 472 -50 c 0,8,9
 566 12 566 12 618 66 c 0,10,11
 696 150 696 150 696 226 c 0,12,13
 696 248 696 248 681 267 c 128,-1,14
 666 286 666 286 644 286 c 0,15,16
 604 286 604 286 554 224 c 0,17,18
 492 148 492 148 492 42 c 0,19,20
 492 -8 492 -8 490 -18 c 0,21,22
 484 -44 484 -44 456 -44 c 0,23,24
 414 -44 414 -44 389 -9 c 128,-1,25
 364 26 364 26 364 68 c 2,26,-1
 372 438 l 1,27,28
 190 438 190 438 190 302 c 0,29,30
 190 234 190 234 226 160 c 0,31,32
 252 114 252 114 276 68 c 1,33,-1
 156 0 l 1,34,35
 30 164 30 164 30 416 c 0,36,37
 30 728 30 728 384 738 c 1,38,39
 280 894 280 894 280 994 c 0,40,41
 280 1116 280 1116 389 1194 c 128,-1,42
 498 1272 498 1272 664 1272 c 0,43,44
 728 1272 728 1272 776 1172 c 0,45,46
 818 1082 818 1082 818 994 c 0,47,48
 818 946 818 946 792 946 c 1,49,50
 792 946 792 946 737 966 c 128,-1,51
 682 986 682 986 600 986 c 0,52,53
 430 986 430 986 430 868 c 0,54,55
 430 802 430 802 472 744 c 1,56,57
 538 740 538 740 606 738 c 1,58,59
 680 722 680 722 680 628 c 2,60,-1
 680 452 l 1,61,62
 630 440 630 440 504 438 c 1,63,-1
 498 282 l 1,64,65
 570 402 570 402 712 402 c 0,66,67
 764 402 764 402 794 355 c 128,-1,68
 824 308 824 308 824 246 c 0,0,1
EndSplineSet
Ligature2: "'psts' Post Base Substitutions lookup 8 subtable" tm_na tm_ikaar
EndChar

StartChar: tm_nnn_ikaar
Encoding: 65548 -1 128
Width: 1080
GlyphClass: 2
Flags: W
LayerCount: 2
Fore
SplineSet
1216 938 m 0,0,1
 1216 896 1216 896 1186 896 c 0,2,3
 1184 896 1184 896 1131 917 c 128,-1,4
 1078 938 1078 938 1008 938 c 0,5,6
 828 938 828 938 828 820 c 0,7,8
 828 758 828 758 870 690 c 1,9,-1
 932 690 l 2,10,11
 1024 690 1024 690 1050 660 c 0,12,13
 1066 642 1066 642 1066 580 c 0,14,15
 1066 502 1066 502 1056 392 c 1,16,17
 952 414 952 414 948 414 c 0,18,19
 922 414 922 414 922 362 c 2,20,-1
 916 -22 l 2,21,22
 914 -90 914 -90 894 -90 c 0,23,24
 878 -90 878 -90 836 -56 c 0,25,26
 788 -18 788 -18 782 10 c 1,27,-1
 792 408 l 1,28,-1
 776 408 l 1,29,30
 784 578 784 578 686 664 c 1,31,-1
 686 690 l 1,32,-1
 780 690 l 1,33,34
 676 858 676 858 676 942 c 0,35,36
 676 1064 676 1064 792 1144 c 0,37,38
 900 1220 900 1220 1046 1220 c 0,39,40
 1130 1220 1130 1220 1178 1120 c 0,41,42
 1216 1038 1216 1038 1216 938 c 0,0,1
502 694 m 1,43,44
 476 674 476 674 422 593 c 128,-1,45
 368 512 368 512 360 478 c 1,46,47
 336 514 336 514 278 514 c 0,48,49
 206 514 206 514 136 462 c 0,50,51
 60 406 60 406 34 316 c 1,52,53
 30 336 30 336 30 358 c 0,54,55
 30 484 30 484 128 596 c 0,56,57
 234 716 234 716 366 716 c 0,58,59
 418 716 418 716 502 694 c 1,43,44
750 330 m 0,60,61
 750 196 750 196 702 104 c 0,62,63
 644 -6 644 -6 536 -6 c 0,64,65
 454 -6 454 -6 414 82 c 0,66,67
 380 152 380 152 380 254 c 0,68,69
 380 426 380 426 429 539 c 128,-1,70
 478 652 478 652 562 652 c 0,71,72
 662 652 662 652 710 546 c 0,73,74
 750 460 750 460 750 330 c 0,60,61
360 238 m 0,75,76
 360 146 360 146 310 76 c 0,77,78
 258 0 258 0 180 0 c 0,79,80
 48 0 48 0 48 222 c 0,81,82
 48 306 48 306 84 366 c 0,83,84
 126 434 126 434 198 434 c 0,85,86
 274 434 274 434 318 372 c 0,87,88
 360 318 360 318 360 238 c 0,75,76
EndSplineSet
Ligature2: "'psts' Post Base Substitutions lookup 8 subtable" tm_nnna tm_ikaar
EndChar

StartChar: tm_p_ikaar
Encoding: 65549 -1 129
Width: 658
GlyphClass: 2
Flags: W
LayerCount: 2
Fore
SplineSet
906 900 m 0,0,1
 906 846 906 846 884 846 c 0,2,3
 882 846 882 846 827 866 c 128,-1,4
 772 886 772 886 702 886 c 0,5,6
 530 886 530 886 530 772 c 0,7,8
 530 722 530 722 560 666 c 128,-1,9
 590 610 590 610 588 552 c 2,10,-1
 578 4 l 1,11,12
 428 -22 428 -22 326 -22 c 0,13,14
 30 -22 30 -22 30 218 c 0,15,16
 30 332 30 332 106 504 c 0,17,18
 178 664 178 664 232 706 c 1,19,-1
 384 718 l 1,20,21
 332 668 332 668 272 558 c 0,22,23
 208 440 208 440 208 380 c 0,24,25
 208 326 208 326 248 296 c 128,-1,26
 288 266 288 266 342 266 c 0,27,28
 382 266 382 266 456 286 c 1,29,-1
 456 686 l 1,30,31
 384 818 384 818 384 890 c 0,32,33
 384 1016 384 1016 498 1094 c 0,34,35
 600 1166 600 1166 738 1166 c 0,36,37
 816 1166 816 1166 862 1084 c 0,38,39
 906 1010 906 1010 906 900 c 0,0,1
EndSplineSet
Ligature2: "'psts' Post Base Substitutions lookup 8 subtable" tm_pa tm_ikaar
EndChar

StartChar: tm_m_ikaar
Encoding: 65550 -1 130
Width: 806
GlyphClass: 2
Flags: W
LayerCount: 2
Fore
SplineSet
1000 978 m 0,0,1
 1000 922 1000 922 980 922 c 0,2,3
 978 922 978 922 918 944 c 128,-1,4
 858 966 858 966 788 966 c 0,5,6
 616 966 616 966 616 844 c 0,7,8
 616 774 616 774 696 674 c 128,-1,9
 776 574 776 574 776 448 c 0,10,11
 776 266 776 266 656 131 c 128,-1,12
 536 -4 536 -4 358 -4 c 0,13,14
 202 -4 202 -4 114 86 c 0,15,16
 30 170 30 170 30 312 c 0,17,18
 30 530 30 530 216 754 c 1,19,-1
 418 770 l 1,20,21
 336 722 336 722 269 613 c 128,-1,22
 202 504 202 504 202 422 c 0,23,24
 202 352 202 352 252 312 c 0,25,26
 296 278 296 278 358 278 c 0,27,28
 388 278 388 278 388 328 c 2,29,-1
 388 618 l 2,30,31
 388 672 388 672 444 708 c 0,32,33
 492 740 492 740 550 744 c 1,34,35
 462 896 462 896 462 972 c 0,36,37
 462 1088 462 1088 580 1174 c 0,38,39
 692 1254 692 1254 828 1254 c 0,40,41
 900 1254 900 1254 950 1174 c 128,-1,42
 1000 1094 1000 1094 1000 978 c 0,0,1
664 392 m 0,43,44
 664 422 664 422 636 443 c 128,-1,45
 608 464 608 464 576 464 c 0,46,47
 538 464 538 464 484 414 c 0,48,49
 416 352 416 352 408 276 c 1,50,51
 510 270 510 270 590 314 c 0,52,53
 664 352 664 352 664 392 c 0,43,44
EndSplineSet
Ligature2: "'psts' Post Base Substitutions lookup 8 subtable" tm_ma tm_ikaar
EndChar

StartChar: tm_y_ikaar
Encoding: 65551 -1 131
Width: 888
GlyphClass: 2
Flags: W
LayerCount: 2
Fore
SplineSet
1118 868 m 0,0,1
 1118 820 1118 820 1092 820 c 1,2,3
 1094 820 1094 820 1040 841 c 128,-1,4
 986 862 986 862 902 862 c 0,5,6
 730 862 730 862 730 740 c 0,7,8
 730 646 730 646 818 610 c 1,9,-1
 808 0 l 1,10,11
 780 -12 780 -12 686 -28 c 0,12,13
 582 -44 582 -44 512 -44 c 0,14,15
 454 -44 454 -44 436 -40 c 0,16,17
 392 -30 392 -30 386 8 c 0,18,19
 382 24 382 24 382 54 c 0,20,21
 382 86 382 86 388 150 c 128,-1,22
 394 214 394 214 392 244 c 1,23,24
 356 166 356 166 320 88 c 0,25,26
 260 -30 260 -30 206 -30 c 0,27,28
 136 -30 136 -30 86 30 c 0,29,30
 30 94 30 94 30 194 c 0,31,32
 30 298 30 298 76 434 c 0,33,34
 126 588 126 588 212 696 c 1,35,-1
 378 696 l 1,36,37
 316 652 316 652 253 525 c 128,-1,38
 190 398 190 398 190 340 c 0,39,40
 190 250 190 250 290 250 c 0,41,42
 404 250 404 250 404 334 c 2,43,-1
 404 680 l 1,44,45
 496 656 496 656 522 594 c 1,46,47
 522 512 522 512 512 318 c 0,48,49
 510 288 510 288 526 280 c 0,50,51
 534 276 534 276 570 276 c 0,52,53
 676 276 676 276 694 292 c 1,54,-1
 694 602 l 1,55,56
 580 756 580 756 580 868 c 0,57,58
 580 988 580 988 691 1068 c 128,-1,59
 802 1148 802 1148 952 1148 c 0,60,61
 1048 1148 1048 1148 1092 1018 c 0,62,63
 1118 940 1118 940 1118 868 c 0,0,1
EndSplineSet
Ligature2: "'psts' Post Base Substitutions lookup 8 subtable" tm_ya tm_ikaar
EndChar

StartChar: tm_r_ikaar
Encoding: 65552 -1 132
Width: 600
GlyphClass: 2
Flags: W
LayerCount: 2
Fore
SplineSet
600 240 m 0,0,1
 600 -158 600 -158 448 -398 c 0,2,3
 310 -614 310 -614 112 -614 c 0,4,5
 62 -614 62 -614 24 -532 c 128,-1,6
 -14 -450 -14 -450 -14 -344 c 0,7,8
 -14 -240 -14 -240 24 -240 c 0,9,10
 40 -240 40 -240 64 -256 c 128,-1,11
 88 -272 88 -272 118 -272 c 0,12,13
 274 -272 274 -272 392 -129 c 128,-1,14
 510 14 510 14 510 230 c 0,15,16
 510 316 510 316 477 382 c 128,-1,17
 444 448 444 448 398 448 c 0,18,19
 324 448 324 448 262 416 c 0,20,21
 176 374 176 374 176 290 c 0,22,23
 176 202 176 202 286 64 c 1,24,-1
 194 2 l 1,25,26
 40 130 40 130 40 418 c 0,27,28
 40 530 40 530 70 605 c 128,-1,29
 100 680 100 680 148 698 c 0,30,31
 224 726 224 726 362 726 c 0,32,33
 388 726 388 726 410 725 c 1,34,35
 326 854 326 854 326 950 c 0,36,37
 326 1070 326 1070 440 1152 c 0,38,39
 548 1230 548 1230 700 1230 c 0,40,41
 796 1230 796 1230 836 1096 c 0,42,43
 858 1024 858 1024 858 950 c 0,44,45
 858 898 858 898 836 898 c 1,46,-1
 781 920 l 2,47,48
 726 942 726 942 644 942 c 0,49,50
 474 942 474 942 474 824 c 0,51,52
 474 770 474 770 506 714 c 1,53,54
 528 709 528 709 542 702 c 1,55,56
 600 474 600 474 600 240 c 0,0,1
EndSplineSet
Ligature2: "'psts' Post Base Substitutions lookup 8 subtable" tm_ra tm_ikaar
EndChar

StartChar: tm_rr_ikaar
Encoding: 65553 -1 133
Width: 758
GlyphClass: 2
Flags: W
LayerCount: 2
Fore
SplineSet
900 942 m 0,0,1
 900 902 900 902 870 902 c 0,2,3
 868 902 868 902 816 922 c 128,-1,4
 764 942 764 942 694 942 c 0,5,6
 512 942 512 942 512 824 c 0,7,8
 512 804 512 804 552 698 c 1,9,10
 728 658 728 658 728 362 c 0,11,12
 728 10 728 10 538 -278 c 0,13,14
 334 -588 334 -588 44 -588 c 0,15,16
 -34 -588 -34 -588 -70 -543 c 128,-1,17
 -106 -498 -106 -498 -106 -374 c 0,18,19
 -106 -308 -106 -308 -87 -251 c 128,-1,20
 -68 -194 -68 -194 -40 -194 c 0,21,22
 -24 -194 -24 -194 12 -223 c 128,-1,23
 48 -252 48 -252 116 -252 c 0,24,25
 324 -252 324 -252 478 -84 c 0,26,27
 626 76 626 76 626 274 c 0,28,29
 626 324 626 324 601 364 c 128,-1,30
 576 404 576 404 532 404 c 0,31,32
 490 404 490 404 468 316 c 0,33,34
 454 256 454 256 454 192 c 0,35,36
 454 182 454 182 456 130 c 128,-1,37
 458 78 458 78 458 62 c 0,38,39
 458 -16 458 -16 442 -16 c 0,40,41
 420 -16 420 -16 374 18 c 128,-1,42
 328 52 328 52 328 80 c 0,43,44
 328 124 328 124 331 223 c 128,-1,45
 334 322 334 322 334 358 c 0,46,47
 334 408 334 408 266 408 c 0,48,49
 238 408 238 408 211 365 c 128,-1,50
 184 322 184 322 184 278 c 1,51,52
 184 288 184 288 168 -16 c 1,53,54
 44 44 44 44 44 96 c 2,55,-1
 44 414 l 2,56,57
 44 684 44 684 214 684 c 0,58,59
 270 684 270 684 319 659 c 128,-1,60
 368 634 368 634 372 590 c 1,61,62
 420 670 420 670 470 690 c 1,63,64
 362 860 362 860 362 944 c 0,65,66
 362 1080 362 1080 480 1158 c 0,67,68
 588 1228 588 1228 754 1228 c 0,69,70
 818 1228 818 1228 860 1132 c 0,71,72
 900 1046 900 1046 900 942 c 0,0,1
EndSplineSet
Ligature2: "'psts' Post Base Substitutions lookup 8 subtable" tm_rra tm_ikaar
EndChar

StartChar: tm_l_ikaar
Encoding: 65554 -1 134
Width: 770
GlyphClass: 2
Flags: W
LayerCount: 2
Fore
SplineSet
1004 922 m 0,0,1
 1004 886 1004 886 974 886 c 1,2,3
 974 886 974 886 919 905 c 128,-1,4
 864 924 864 924 786 924 c 0,5,6
 616 924 616 924 616 818 c 0,7,8
 616 744 616 744 665 663 c 128,-1,9
 714 582 714 582 714 540 c 0,10,11
 714 490 714 490 688 450 c 0,12,13
 658 404 658 404 612 404 c 0,14,15
 556 404 556 404 522 456 c 0,16,17
 492 500 492 500 492 566 c 0,18,19
 492 658 492 658 560 686 c 1,20,21
 530 740 530 740 498 796 c 1,22,23
 464 866 464 866 464 934 c 0,24,25
 464 1046 464 1046 572 1128 c 128,-1,26
 680 1210 680 1210 838 1210 c 0,27,28
 918 1210 918 1210 966 1096 c 0,29,30
 1004 1008 1004 1008 1004 922 c 0,0,1
740 354 m 0,31,32
 740 242 740 242 690 132 c 0,33,34
 626 -12 626 -12 518 -12 c 0,35,36
 414 -12 414 -12 388 108 c 1,37,38
 372 218 372 218 356 330 c 1,39,40
 326 450 326 450 210 450 c 0,41,42
 130 450 130 450 56 368 c 1,43,44
 60 470 60 470 134 578 c 0,45,46
 214 694 214 694 304 694 c 0,47,48
 412 694 412 694 460 604 c 1,49,50
 488 520 488 520 516 436 c 0,51,52
 548 346 548 346 612 346 c 0,53,54
 696 346 696 346 726 462 c 1,55,56
 740 396 740 396 740 354 c 0,31,32
336 228 m 0,57,58
 336 130 336 130 292 62 c 0,59,60
 244 -16 244 -16 160 -16 c 0,61,62
 98 -16 98 -16 62 52 c 0,63,64
 30 110 30 110 30 192 c 0,65,66
 30 276 30 276 74 340 c 128,-1,67
 118 404 118 404 190 404 c 0,68,69
 256 404 256 404 296 350 c 128,-1,70
 336 296 336 296 336 228 c 0,57,58
EndSplineSet
Ligature2: "'psts' Post Base Substitutions lookup 8 subtable" tm_la tm_ikaar
EndChar

StartChar: tm_ll_ikaar
Encoding: 65555 -1 135
Width: 954
GlyphClass: 2
Flags: W
LayerCount: 2
Fore
SplineSet
1084 920 m 0,0,1
 1084 878 1084 878 1058 878 c 0,2,3
 1056 878 1056 878 1002 899 c 128,-1,4
 948 920 948 920 878 920 c 0,5,6
 696 920 696 920 696 802 c 0,7,8
 696 750 696 750 736 686 c 1,9,10
 784 698 784 698 844 698 c 0,11,12
 908 698 908 698 928 658 c 0,13,14
 940 634 940 634 940 574 c 0,15,16
 940 448 940 448 928 366 c 1,17,18
 902 392 902 392 814 392 c 0,19,20
 778 392 778 392 778 64 c 0,21,22
 778 10 778 10 764 -326 c 1,23,24
 738 -304 738 -304 644 -222 c 1,25,26
 652 -106 652 -106 652 86 c 0,27,28
 652 286 652 286 658 370 c 1,29,30
 528 342 528 342 528 136 c 2,31,-1
 528 -90 l 1,32,33
 492 -64 492 -64 456 -37 c 128,-1,34
 420 -10 420 -10 408 12 c 1,35,-1
 408 250 l 2,36,37
 408 442 408 442 234 442 c 0,38,39
 176 442 176 442 122 406 c 0,40,41
 76 372 76 372 30 336 c 1,42,43
 38 450 38 450 110 548 c 0,44,45
 194 662 194 662 312 662 c 0,46,47
 382 662 382 662 455 617 c 128,-1,48
 528 572 528 572 530 528 c 1,49,50
 580 618 580 618 660 660 c 1,51,52
 626 718 626 718 590 778 c 0,53,54
 546 860 546 860 546 930 c 0,55,56
 546 1032 546 1032 640 1114 c 0,57,58
 750 1206 750 1206 928 1206 c 0,59,60
 1006 1206 1006 1206 1050 1106 c 0,61,62
 1084 1026 1084 1026 1084 920 c 0,0,1
358 210 m 0,63,64
 358 120 358 120 320 58 c 0,65,66
 278 -14 278 -14 202 -14 c 0,67,68
 128 -14 128 -14 84 44 c 128,-1,69
 40 102 40 102 40 184 c 0,70,71
 40 268 40 268 84 333 c 128,-1,72
 128 398 128 398 202 398 c 0,73,74
 358 398 358 398 358 210 c 0,63,64
EndSplineSet
Ligature2: "'psts' Post Base Substitutions lookup 8 subtable" tm_lla tm_ikaar
EndChar

StartChar: tm_lll_ikaar
Encoding: 65556 -1 136
Width: 806
GlyphClass: 2
Flags: W
LayerCount: 2
Fore
SplineSet
984 976 m 0,0,1
 984 934 984 934 958 934 c 0,2,3
 956 934 956 934 903 953 c 128,-1,4
 850 972 850 972 780 972 c 0,5,6
 596 972 596 972 596 856 c 0,7,8
 596 784 596 784 646 726 c 0,9,10
 688 678 688 678 730 628 c 1,11,12
 776 558 776 558 776 446 c 0,13,14
 776 290 776 290 684 162 c 0,15,16
 586 28 586 28 438 2 c 1,17,18
 476 -58 476 -58 562 -58 c 0,19,20
 580 -58 580 -58 608 -42 c 128,-1,21
 636 -26 636 -26 652 -26 c 0,22,23
 684 -26 684 -26 684 -86 c 0,24,25
 684 -296 684 -296 548 -296 c 0,26,27
 496 -296 496 -296 447 -260 c 128,-1,28
 398 -224 398 -224 386 -182 c 1,29,30
 274 -492 274 -492 64 -492 c 0,31,32
 -8 -492 -8 -492 -32 -424 c 0,33,34
 -44 -388 -44 -388 -44 -296 c 0,35,36
 -44 -154 -44 -154 -2 -154 c 0,37,38
 10 -154 10 -154 38 -175 c 128,-1,39
 66 -196 66 -196 112 -196 c 0,40,41
 192 -196 192 -196 256 -144 c 128,-1,42
 320 -92 320 -92 330 -4 c 1,43,44
 184 10 184 10 107 93 c 128,-1,45
 30 176 30 176 30 308 c 0,46,47
 30 516 30 516 216 752 c 1,48,-1
 418 768 l 1,49,50
 336 720 336 720 270 610 c 128,-1,51
 204 500 204 500 204 420 c 0,52,53
 204 354 204 354 254 314 c 0,54,55
 296 278 296 278 352 278 c 0,56,57
 374 278 374 278 392 286 c 1,58,-1
 392 640 l 1,59,60
 414 726 414 726 548 738 c 1,61,62
 448 860 448 860 448 980 c 0,63,64
 448 1104 448 1104 558 1183 c 128,-1,65
 668 1262 668 1262 822 1262 c 0,66,67
 898 1262 898 1262 946 1156 c 0,68,69
 984 1070 984 1070 984 976 c 0,0,1
668 394 m 0,70,71
 668 424 668 424 639 443 c 128,-1,72
 610 462 610 462 578 462 c 0,73,74
 540 462 540 462 486 412 c 0,75,76
 418 352 418 352 412 272 c 1,77,78
 516 268 516 268 598 314 c 0,79,80
 668 354 668 354 668 394 c 0,70,71
EndSplineSet
Ligature2: "'psts' Post Base Substitutions lookup 8 subtable" tm_llla tm_ikaar
EndChar

StartChar: tm_v_ikaar
Encoding: 65557 -1 137
Width: 878
GlyphClass: 2
Flags: W
LayerCount: 2
Fore
SplineSet
1102 872 m 0,0,1
 1102 820 1102 820 1078 820 c 1,2,3
 1078 820 1078 820 1022 839 c 128,-1,4
 966 858 966 858 884 858 c 0,5,6
 710 858 710 858 710 738 c 0,7,8
 710 696 710 696 759 657 c 128,-1,9
 808 618 808 618 808 586 c 0,10,11
 808 492 808 492 803 324 c 128,-1,12
 798 156 798 156 798 82 c 0,13,14
 798 -68 798 -68 448 -68 c 0,15,16
 324 -68 324 -68 324 -24 c 1,17,18
 324 -24 324 -24 369 64 c 128,-1,19
 414 152 414 152 414 244 c 0,20,21
 414 440 414 440 232 440 c 0,22,23
 158 440 158 440 110 396 c 0,24,25
 74 362 74 362 34 282 c 1,26,27
 20 414 20 414 100 542 c 0,28,29
 188 686 188 686 326 686 c 0,30,31
 428 686 428 686 493 608 c 128,-1,32
 558 530 558 530 558 422 c 0,33,34
 558 362 558 362 522 218 c 1,35,-1
 598 218 l 2,36,37
 656 218 656 218 656 270 c 0,38,39
 656 300 656 300 661 423 c 128,-1,40
 666 546 666 546 666 618 c 1,41,42
 666 616 666 616 614 704 c 128,-1,43
 562 792 562 792 562 868 c 0,44,45
 562 988 562 988 675 1068 c 128,-1,46
 788 1148 788 1148 962 1148 c 0,47,48
 1016 1148 1016 1148 1062 1046 c 0,49,50
 1102 952 1102 952 1102 872 c 0,0,1
356 222 m 0,51,52
 356 122 356 122 308 42 c 0,53,54
 256 -46 256 -46 180 -46 c 0,55,56
 114 -46 114 -46 72 8 c 128,-1,57
 30 62 30 62 30 146 c 0,58,59
 30 242 30 242 80 316 c 128,-1,60
 130 390 130 390 216 390 c 0,61,62
 280 390 280 390 318 340 c 128,-1,63
 356 290 356 290 356 222 c 0,51,52
EndSplineSet
Ligature2: "'psts' Post Base Substitutions lookup 8 subtable" tm_va tm_ikaar
EndChar

StartChar: tm_ss_ikaar
Encoding: 65558 -1 138
Width: 970
GlyphClass: 2
Flags: W
LayerCount: 2
Fore
SplineSet
1246 1004 m 0,0,1
 1246 962 1246 962 1220 962 c 1,2,3
 1224 962 1224 962 1168 983 c 128,-1,4
 1112 1004 1112 1004 1042 1004 c 0,5,6
 868 1004 868 1004 868 892 c 0,7,8
 868 824 868 824 907 777 c 128,-1,9
 946 730 946 730 946 680 c 0,10,11
 946 564 946 564 758 304 c 1,12,13
 836 326 836 326 842 328 c 0,14,15
 892 350 892 350 914 398 c 1,16,17
 956 314 956 314 956 226 c 0,18,19
 956 106 956 106 880 58 c 0,20,21
 828 24 828 24 664 -2 c 1,22,23
 624 -66 624 -66 624 -116 c 0,24,25
 624 -192 624 -192 672 -192 c 0,26,27
 690 -192 690 -192 727 -153 c 128,-1,28
 764 -114 764 -114 778 -114 c 256,29,30
 792 -114 792 -114 805 -148 c 128,-1,31
 818 -182 818 -182 818 -236 c 0,32,33
 818 -336 818 -336 782 -414 c 0,34,35
 736 -506 736 -506 660 -506 c 256,36,37
 584 -506 584 -506 543 -440 c 128,-1,38
 502 -374 502 -374 502 -278 c 0,39,40
 502 -122 502 -122 570 2 c 1,41,42
 506 -4 506 -4 422 4 c 0,43,44
 320 16 320 16 320 42 c 0,45,46
 320 46 320 46 363 129 c 128,-1,47
 406 212 406 212 406 308 c 0,48,49
 406 500 406 500 236 500 c 0,50,51
 112 500 112 500 38 346 c 1,52,53
 24 472 24 472 104 602 c 0,54,55
 192 744 192 744 320 744 c 0,56,57
 420 744 420 744 486 666 c 128,-1,58
 552 588 552 588 552 482 c 0,59,60
 552 404 552 404 516 302 c 1,61,62
 574 280 574 280 604 298 c 1,63,-1
 604 664 l 1,64,65
 628 694 628 694 684 734 c 0,66,67
 752 780 752 780 806 790 c 1,68,69
 720 932 720 932 720 1006 c 0,70,71
 720 1128 720 1128 827 1206 c 128,-1,72
 934 1284 934 1284 1092 1284 c 0,73,74
 1168 1284 1168 1284 1212 1174 c 0,75,76
 1246 1092 1246 1092 1246 1004 c 0,0,1
350 286 m 0,77,78
 350 186 350 186 308 112 c 0,79,80
 260 28 260 28 178 28 c 0,81,82
 114 28 114 28 74 81 c 128,-1,83
 34 134 34 134 34 212 c 0,84,85
 34 308 34 308 82 379 c 128,-1,86
 130 450 130 450 212 450 c 0,87,88
 280 450 280 450 318 400 c 0,89,90
 350 356 350 356 350 286 c 0,77,78
808 534 m 1,91,92
 760 530 760 530 722 479 c 128,-1,93
 684 428 684 428 684 388 c 0,94,95
 684 380 684 380 686 374 c 1,96,97
 714 398 714 398 758 453 c 128,-1,98
 802 508 802 508 808 534 c 1,91,92
EndSplineSet
Ligature2: "'psts' Post Base Substitutions lookup 8 subtable" tm_ssa tm_ikaar
EndChar

StartChar: tm_s_ikaar
Encoding: 65559 -1 139
Width: 1064
GlyphClass: 2
Flags: W
LayerCount: 2
Fore
SplineSet
1330 998 m 0,0,1
 1330 952 1330 952 1304 952 c 0,2,3
 1302 952 1302 952 1247 973 c 128,-1,4
 1192 994 1192 994 1122 994 c 0,5,6
 944 994 944 994 944 880 c 0,7,8
 944 846 944 846 964 800 c 0,9,10
 992 736 992 736 992 734 c 0,11,12
 1034 596 1034 596 1034 422 c 0,13,14
 1034 272 1034 272 986 164 c 0,15,16
 926 28 926 28 810 28 c 0,17,18
 744 28 744 28 699 88 c 128,-1,19
 654 148 654 148 654 240 c 0,20,21
 654 274 654 274 657 320 c 128,-1,22
 660 366 660 366 660 402 c 0,23,24
 660 494 660 494 612 494 c 0,25,26
 556 494 556 494 554 418 c 2,27,-1
 546 2 l 1,28,29
 498 -10 498 -10 416 86 c 1,30,-1
 416 314 l 2,31,32
 416 520 416 520 228 520 c 0,33,34
 118 520 118 520 32 360 c 1,35,36
 22 500 22 500 98 624 c 0,37,38
 186 766 186 766 332 766 c 0,39,40
 402 766 402 766 462 722 c 128,-1,41
 522 678 522 678 528 634 c 1,42,43
 530 686 530 686 564 728 c 128,-1,44
 598 770 598 770 654 770 c 0,45,46
 712 770 712 770 742 688 c 0,47,48
 764 628 764 628 764 552 c 0,49,50
 764 532 764 532 760 486 c 128,-1,51
 756 440 756 440 756 418 c 0,52,53
 756 318 756 318 820 318 c 0,54,55
 856 318 856 318 876 370 c 0,56,57
 892 410 892 410 892 454 c 0,58,59
 892 560 892 560 861 647 c 128,-1,60
 830 734 830 734 830 724 c 1,61,62
 830 762 830 762 886 772 c 1,63,64
 794 900 794 900 794 1000 c 0,65,66
 794 1124 794 1124 908 1206 c 0,67,68
 1016 1284 1016 1284 1162 1284 c 0,69,70
 1242 1284 1242 1284 1290 1186 c 0,71,72
 1330 1102 1330 1102 1330 998 c 0,0,1
354 294 m 0,73,74
 354 204 354 204 308 124 c 0,75,76
 258 34 258 34 182 34 c 0,77,78
 108 34 108 34 68 98 c 0,79,80
 30 154 30 154 30 236 c 0,81,82
 30 334 30 334 82 402 c 128,-1,83
 134 470 134 470 222 470 c 0,84,85
 354 470 354 470 354 294 c 0,73,74
EndSplineSet
Ligature2: "'psts' Post Base Substitutions lookup 8 subtable" tm_sa tm_ikaar
EndChar

StartChar: tm_h_ikaar
Encoding: 65560 -1 140
Width: 1382
GlyphClass: 2
Flags: W
LayerCount: 2
Fore
SplineSet
1566 1004 m 0,0,1
 1566 958 1566 958 1540 958 c 1,2,3
 1540 958 1540 958 1484 979 c 128,-1,4
 1428 1000 1428 1000 1354 1000 c 0,5,6
 1172 1000 1172 1000 1172 888 c 0,7,8
 1172 826 1172 826 1212 746 c 1,9,10
 1352 688 1352 688 1352 418 c 0,11,12
 1352 58 1352 58 1158 -234 c 0,13,14
 948 -550 948 -550 654 -550 c 0,15,16
 556 -550 556 -550 520 -476 c 0,17,18
 498 -428 498 -428 498 -332 c 0,19,20
 498 -268 498 -268 520 -208 c 128,-1,21
 542 -148 542 -148 568 -148 c 0,22,23
 576 -148 576 -148 620 -180 c 128,-1,24
 664 -212 664 -212 734 -212 c 0,25,26
 922 -212 922 -212 1080 -56 c 0,27,28
 1244 108 1244 108 1244 326 c 0,29,30
 1244 462 1244 462 1152 462 c 0,31,32
 1072 462 1072 462 1072 200 c 0,33,34
 1072 188 1072 188 1076 130 c 0,35,36
 1080 84 1080 84 1076 62 c 0,37,38
 1074 32 1074 32 1058 32 c 256,39,40
 1042 32 1042 32 1000 60 c 128,-1,41
 958 88 958 88 946 110 c 1,42,43
 940 196 940 196 944 284 c 0,44,45
 950 404 950 404 950 402 c 1,46,47
 950 466 950 466 886 466 c 0,48,49
 854 466 854 466 830 434 c 0,50,51
 798 390 798 390 798 302 c 2,52,-1
 798 0 l 1,53,54
 720 -38 720 -38 538 -38 c 0,55,56
 332 -38 332 -38 332 6 c 1,57,58
 332 2 332 2 379 92 c 128,-1,59
 426 182 426 182 426 276 c 0,60,61
 426 478 426 478 238 478 c 0,62,63
 108 478 108 478 34 316 c 1,64,65
 26 450 26 450 104 580 c 0,66,67
 192 730 192 730 332 730 c 0,68,69
 448 730 448 730 512 648 c 0,70,71
 570 574 570 574 570 460 c 0,72,73
 570 368 570 368 534 264 c 1,74,-1
 648 264 l 1,75,-1
 648 406 l 2,76,77
 648 746 648 746 826 746 c 0,78,79
 884 746 884 746 932 720 c 128,-1,80
 980 694 980 694 988 650 c 1,81,82
 1034 746 1034 746 1116 762 c 1,83,84
 1020 898 1020 898 1020 1006 c 0,85,86
 1020 1134 1020 1134 1126 1213 c 128,-1,87
 1232 1292 1232 1292 1396 1292 c 0,88,89
 1484 1292 1484 1292 1532 1182 c 0,90,91
 1566 1100 1566 1100 1566 1004 c 0,0,1
362 252 m 0,92,93
 362 154 362 154 318 74 c 0,94,95
 266 -16 266 -16 184 -16 c 0,96,97
 116 -16 116 -16 73 42 c 128,-1,98
 30 100 30 100 30 176 c 0,99,100
 30 276 30 276 80 348 c 0,101,102
 136 428 136 428 222 428 c 0,103,104
 290 428 290 428 326 377 c 128,-1,105
 362 326 362 326 362 252 c 0,92,93
EndSplineSet
Ligature2: "'psts' Post Base Substitutions lookup 8 subtable" tm_ha tm_ikaar
EndChar

StartChar: tm_k_iikaar
Encoding: 65561 -1 141
Width: 836
GlyphClass: 2
Flags: W
LayerCount: 2
Fore
SplineSet
806 324 m 0,0,1
 806 170 806 170 742 74 c 0,2,3
 682 -12 682 -12 602 -12 c 0,4,5
 550 -12 550 -12 524 106 c 0,6,7
 508 184 508 184 508 272 c 1,8,9
 560 264 560 264 612 295 c 128,-1,10
 664 326 664 326 664 380 c 1,11,-1
 498 380 l 1,12,13
 498 254 498 254 450 140 c 0,14,15
 382 -24 382 -24 250 -24 c 0,16,17
 134 -24 134 -24 76 104 c 0,18,19
 30 202 30 202 30 334 c 0,20,21
 30 440 30 440 56 526 c 1,22,-1
 98 548 l 1,23,-1
 140 548 l 1,24,25
 100 622 100 622 100 718 c 0,26,27
 100 806 100 806 182 860 c 0,28,29
 254 906 254 906 358 910 c 1,30,31
 322 1044 322 1044 322 1150 c 0,32,33
 322 1254 322 1254 392 1368 c 0,34,35
 472 1502 472 1502 582 1502 c 0,36,37
 658 1502 658 1502 706 1434 c 128,-1,38
 754 1366 754 1366 754 1280 c 0,39,40
 754 1180 754 1180 688 1074 c 0,41,42
 612 956 612 956 520 956 c 0,43,44
 438 956 438 956 448 1200 c 1,45,46
 458 1198 458 1198 466 1198 c 0,47,48
 508 1198 508 1198 534 1238 c 0,49,50
 556 1272 556 1272 556 1304 c 0,51,52
 556 1340 556 1340 520 1340 c 0,53,54
 462 1340 462 1340 432 1266 c 0,55,56
 406 1204 406 1204 406 1114 c 0,57,58
 406 1012 406 1012 430 942 c 0,59,60
 432 934 432 934 472 894 c 0,61,62
 500 864 500 864 500 796 c 2,63,-1
 500 558 l 1,64,65
 534 560 534 560 562 560 c 0,66,67
 806 560 806 560 806 324 c 0,0,1
384 614 m 0,68,69
 384 670 384 670 354 670 c 256,70,71
 324 670 324 670 258 632 c 0,72,73
 182 588 182 588 188 552 c 1,74,-1
 370 552 l 1,75,76
 384 580 384 580 384 614 c 0,68,69
326 372 m 1,77,-1
 182 372 l 2,78,79
 136 372 136 372 136 350 c 0,80,81
 136 334 136 334 172 311 c 128,-1,82
 208 288 208 288 228 288 c 0,83,84
 246 288 246 288 282 322 c 0,85,86
 312 350 312 350 326 372 c 1,77,-1
EndSplineSet
Ligature2: "'abvs' Above Base Substitutions lookup 6 subtable" tm_ka tm_iikaar
EndChar

StartChar: tm_ng_iikaar
Encoding: 65562 -1 142
Width: 1259
GlyphClass: 2
Flags: W
LayerCount: 2
Fore
SplineSet
1020 88 m 2,0,1
 1020 -478 1020 -478 732 -478 c 0,2,3
 596 -478 596 -478 500 -354 c 0,4,5
 420 -252 420 -252 388 -102 c 1,6,7
 458 -72 458 -72 562 16 c 0,8,9
 698 136 698 136 698 230 c 0,10,11
 698 282 698 282 638 282 c 0,12,13
 600 282 600 282 548 222 c 0,14,15
 492 156 492 156 492 90 c 2,16,-1
 492 10 l 2,17,18
 492 -40 492 -40 456 -40 c 0,19,20
 358 -40 358 -40 362 90 c 2,21,-1
 372 442 l 1,22,23
 186 442 186 442 186 306 c 0,24,25
 186 196 186 196 278 68 c 1,26,-1
 154 2 l 1,27,28
 30 184 30 184 30 410 c 0,29,30
 30 602 30 602 152 678 c 0,31,32
 258 744 258 744 506 744 c 0,33,34
 624 744 624 744 652 719 c 128,-1,35
 680 694 680 694 680 598 c 2,36,-1
 680 466 l 1,37,38
 658 442 658 442 498 442 c 1,39,-1
 498 296 l 1,40,41
 526 330 526 330 576 362 c 0,42,43
 642 404 642 404 698 404 c 0,44,45
 752 404 752 404 786 364 c 128,-1,46
 820 324 820 324 820 256 c 0,47,48
 820 148 820 148 720 28 c 1,49,50
 648 -46 648 -46 576 -118 c 1,51,52
 652 -156 652 -156 700 -156 c 0,53,54
 770 -156 770 -156 826 -88 c 128,-1,55
 882 -20 882 -20 882 52 c 2,56,-1
 882 676 l 1,57,58
 848 781 848 781 848 890 c 0,59,60
 848 1018 848 1018 929 1131 c 128,-1,61
 1010 1244 1010 1244 1100 1244 c 0,62,63
 1176 1244 1176 1244 1222 1182 c 128,-1,64
 1268 1120 1268 1120 1268 1034 c 0,65,66
 1268 914 1268 914 1198 814 c 0,67,68
 1126 708 1126 708 1034 708 c 0,69,70
 1006 708 1006 708 988 764 c 128,-1,71
 970 820 970 820 970 886 c 0,72,73
 970 918 970 918 974 944 c 1,74,75
 1018 938 1018 938 1048 971 c 128,-1,76
 1078 1004 1078 1004 1078 1048 c 0,77,78
 1078 1088 1078 1088 1040 1088 c 0,79,80
 932 1088 932 1088 932 854 c 0,81,82
 932 742 932 742 951 723 c 128,-1,83
 970 704 970 704 992 684 c 0,84,85
 1001 675 1001 675 1008 666 c 2,86,-1
 1020 658 l 1,87,-1
 1020 88 l 2,0,1
EndSplineSet
Ligature2: "'abvs' Above Base Substitutions lookup 6 subtable" tm_nga tm_iikaar
EndChar

StartChar: tm_c_iikaar
Encoding: 65563 -1 143
Width: 848
GlyphClass: 2
Flags: W
LayerCount: 2
Fore
SplineSet
834 556 m 1,0,1
 772 382 772 382 672 382 c 2,2,-1
 498 382 l 1,3,4
 488 200 488 200 426 92 c 0,5,6
 360 -24 360 -24 252 -24 c 256,7,8
 144 -24 144 -24 82 92 c 0,9,10
 30 190 30 190 30 334 c 0,11,12
 30 432 30 432 56 532 c 1,13,-1
 98 548 l 1,14,-1
 140 548 l 1,15,16
 102 630 102 630 102 718 c 0,17,18
 102 810 102 810 180 864 c 0,19,20
 246 908 246 908 350 914 c 1,21,22
 310 1018 310 1018 310 1164 c 0,23,24
 310 1272 310 1272 384 1386 c 0,25,26
 466 1516 466 1516 570 1516 c 0,27,28
 648 1516 648 1516 697 1448 c 128,-1,29
 746 1380 746 1380 746 1294 c 0,30,31
 746 1194 746 1194 680 1086 c 0,32,33
 604 968 604 968 512 968 c 0,34,35
 434 968 434 968 434 1150 c 0,36,37
 434 1180 434 1180 436 1210 c 1,38,39
 446 1206 446 1206 458 1206 c 0,40,41
 496 1206 496 1206 524 1252 c 0,42,43
 548 1288 548 1288 548 1320 c 0,44,45
 548 1332 548 1332 534 1344 c 128,-1,46
 520 1356 520 1356 508 1356 c 0,47,48
 454 1356 454 1356 422 1280 c 0,49,50
 394 1214 394 1214 394 1128 c 0,51,52
 394 1022 394 1022 414 956 c 0,53,54
 422 934 422 934 464 900 c 0,55,56
 498 874 498 874 498 810 c 2,57,-1
 498 556 l 1,58,-1
 834 556 l 1,0,1
384 620 m 0,59,60
 384 672 384 672 356 672 c 0,61,62
 326 672 326 672 260 634 c 0,63,64
 184 592 184 592 190 556 c 1,65,-1
 378 556 l 1,66,67
 384 566 384 566 384 620 c 0,59,60
324 376 m 1,68,-1
 180 376 l 2,69,70
 138 376 138 376 138 356 c 256,71,72
 138 336 138 336 170 314 c 128,-1,73
 202 292 202 292 228 292 c 0,74,75
 270 292 270 292 324 376 c 1,68,-1
EndSplineSet
Ligature2: "'abvs' Above Base Substitutions lookup 6 subtable" tm_ca tm_iikaar
EndChar

StartChar: tm_j_iikaar
Encoding: 65564 -1 144
Width: 874
GlyphClass: 2
Flags: W
LayerCount: 2
Fore
SplineSet
890 1186 m 0,0,1
 890 1056 890 1056 815 957 c 128,-1,2
 740 858 740 858 654 858 c 0,3,4
 580 858 580 858 584 1098 c 1,5,6
 632 1090 632 1090 662 1126 c 0,7,8
 690 1156 690 1156 690 1202 c 0,9,10
 690 1242 690 1242 646 1242 c 0,11,12
 598 1242 598 1242 566 1162 c 0,13,14
 538 1094 538 1094 538 1010 c 0,15,16
 538 904 538 904 570 832 c 1,17,18
 646 830 646 830 699 770 c 128,-1,19
 752 710 752 710 752 636 c 0,20,21
 752 528 752 528 644 442 c 0,22,23
 580 390 580 390 428 318 c 0,24,25
 334 274 334 274 304 254 c 0,26,27
 252 218 252 218 252 184 c 0,28,29
 252 158 252 158 294 158 c 0,30,31
 322 158 322 158 441 252 c 128,-1,32
 560 346 560 346 642 346 c 0,33,34
 718 346 718 346 786 288 c 0,35,36
 860 224 860 224 860 132 c 0,37,38
 860 -2 860 -2 732 -140 c 0,39,40
 614 -268 614 -268 532 -268 c 0,41,42
 468 -268 468 -268 384 -188 c 0,43,44
 310 -116 310 -116 310 -90 c 0,45,46
 310 -54 310 -54 363 -34 c 128,-1,47
 416 -14 416 -14 472 4 c 1,48,49
 646 82 646 82 646 178 c 0,50,51
 646 230 646 230 594 230 c 0,52,53
 540 230 540 230 473 155 c 128,-1,54
 406 80 406 80 340 8 c 1,55,56
 256 -70 256 -70 170 -70 c 0,57,58
 110 -70 110 -70 66 -26 c 0,59,60
 14 24 14 24 14 102 c 0,61,62
 14 256 14 256 164 318 c 1,63,64
 294 358 294 358 424 396 c 1,65,66
 590 468 590 468 590 528 c 0,67,68
 590 548 590 548 569 568 c 128,-1,69
 548 588 548 588 522 588 c 256,70,71
 496 588 496 588 479 557 c 128,-1,72
 462 526 462 526 462 500 c 0,73,74
 462 472 462 472 488 464 c 1,75,76
 456 436 456 436 376 436 c 0,77,78
 360 436 360 436 352 440 c 1,79,80
 358 486 358 486 358 520 c 0,81,82
 358 672 358 672 186 672 c 0,83,84
 134 672 134 672 91 644 c 128,-1,85
 48 616 48 616 44 572 c 1,86,87
 30 578 30 578 30 606 c 0,88,89
 30 682 30 682 98 755 c 128,-1,90
 166 828 166 828 252 828 c 0,91,92
 306 828 306 828 360 801 c 128,-1,93
 414 774 414 774 424 738 c 1,94,95
 434 768 434 768 492 808 c 1,96,97
 456 926 456 926 456 1040 c 0,98,99
 456 1172 456 1172 539 1288 c 128,-1,100
 622 1404 622 1404 716 1404 c 0,101,102
 792 1404 792 1404 841 1337 c 128,-1,103
 890 1270 890 1270 890 1186 c 0,0,1
336 496 m 0,104,105
 336 438 336 438 281 394 c 128,-1,106
 226 350 226 350 166 350 c 0,107,108
 116 350 116 350 81 394 c 128,-1,109
 46 438 46 438 46 492 c 0,110,111
 46 560 46 560 84 603 c 128,-1,112
 122 646 122 646 184 646 c 256,113,114
 246 646 246 646 291 604 c 128,-1,115
 336 562 336 562 336 496 c 0,104,105
EndSplineSet
Ligature2: "'abvs' Above Base Substitutions lookup 6 subtable" tm_ja tm_iikaar
EndChar

StartChar: tm_ny_iikaar
Encoding: 65565 -1 145
Width: 874
GlyphClass: 2
Flags: W
LayerCount: 2
Fore
SplineSet
800 278 m 0,0,1
 800 156 800 156 698 0 c 0,2,3
 610 -130 610 -130 502 -216 c 0,4,5
 452 -256 452 -256 382 -288 c 0,6,7
 322 -318 322 -318 302 -318 c 0,8,9
 246 -318 246 -318 246 -254 c 0,10,11
 246 -212 246 -212 270 -144 c 0,12,13
 296 -64 296 -64 326 -64 c 0,14,15
 340 -64 340 -64 359 -79 c 128,-1,16
 378 -94 378 -94 428 -94 c 0,17,18
 526 -94 526 -94 618 2 c 0,19,20
 704 90 704 90 704 168 c 0,21,22
 704 220 704 220 662 220 c 0,23,24
 640 220 640 220 614 200 c 0,25,26
 582 174 582 174 582 142 c 2,27,-1
 582 -20 l 1,28,-1
 466 62 l 1,29,-1
 466 512 l 1,30,31
 300 518 300 518 214 492 c 0,32,33
 80 452 80 452 50 328 c 1,34,35
 30 382 30 382 30 380 c 1,36,37
 30 564 30 564 162 672 c 0,38,39
 261 753 261 753 511 759 c 1,40,41
 480 854 480 854 480 984 c 0,42,43
 480 1092 480 1092 554 1206 c 0,44,45
 636 1336 636 1336 740 1336 c 0,46,47
 818 1336 818 1336 867 1268 c 128,-1,48
 916 1200 916 1200 916 1114 c 0,49,50
 916 1014 916 1014 850 906 c 0,51,52
 774 788 774 788 682 788 c 0,53,54
 604 788 604 788 604 970 c 0,55,56
 604 1000 604 1000 606 1030 c 1,57,58
 616 1026 616 1026 628 1026 c 0,59,60
 666 1026 666 1026 694 1072 c 0,61,62
 718 1108 718 1108 718 1140 c 0,63,64
 718 1152 718 1152 704 1164 c 128,-1,65
 690 1176 690 1176 678 1176 c 0,66,67
 624 1176 624 1176 592 1100 c 0,68,69
 564 1034 564 1034 564 948 c 0,70,71
 564 842 564 842 584 776 c 0,72,73
 586 768 586 768 593 758 c 1,74,75
 652 754 652 754 674 733 c 0,76,77
 702 706 702 706 702 622 c 2,78,-1
 702 462 l 1,79,-1
 592 506 l 1,80,-1
 584 386 l 1,81,82
 634 442 634 442 696 442 c 0,83,84
 746 442 746 442 776 390 c 0,85,86
 800 344 800 344 800 278 c 0,0,1
376 246 m 0,87,88
 376 164 376 164 330 106 c 0,89,90
 282 42 282 42 204 42 c 0,91,92
 132 42 132 42 94 102 c 0,93,94
 60 152 60 152 60 230 c 0,95,96
 60 312 60 312 103 377 c 128,-1,97
 146 442 146 442 218 442 c 0,98,99
 376 442 376 442 376 246 c 0,87,88
EndSplineSet
Ligature2: "'abvs' Above Base Substitutions lookup 6 subtable" tm_nya tm_iikaar
EndChar

StartChar: tm_tt_iikaar
Encoding: 65566 -1 146
Width: 710
GlyphClass: 2
Flags: W
LayerCount: 2
Fore
SplineSet
696 676 m 0,0,1
 696 578 696 578 630 472 c 0,2,3
 558 356 558 356 466 356 c 0,4,5
 392 356 392 356 392 536 c 0,6,7
 392 566 392 566 394 596 c 1,8,9
 448 586 448 586 478 634 c 0,10,11
 502 668 502 668 502 702 c 256,12,13
 502 736 502 736 464 736 c 0,14,15
 408 736 408 736 378 662 c 0,16,17
 352 600 352 600 352 514 c 0,18,19
 352 292 352 292 426 292 c 0,20,21
 452 292 452 292 511 314 c 128,-1,22
 570 336 570 336 576 336 c 0,23,24
 598 336 598 336 598 260 c 0,25,26
 598 196 598 196 581 127 c 128,-1,27
 564 58 564 58 542 32 c 0,28,29
 498 -20 498 -20 364 -20 c 0,30,31
 212 -20 212 -20 136 32 c 0,32,33
 30 100 30 100 30 274 c 0,34,35
 30 380 30 380 76 558 c 0,36,37
 118 714 118 714 144 758 c 1,38,39
 166 784 166 784 228 784 c 2,40,-1
 330 784 l 1,41,42
 272 726 272 726 224 614 c 128,-1,43
 176 502 176 502 176 420 c 0,44,45
 176 294 176 294 308 286 c 1,46,47
 268 400 268 400 268 548 c 0,48,49
 268 682 268 682 358 792 c 0,50,51
 442 892 442 892 526 892 c 0,52,53
 600 892 600 892 648 826 c 128,-1,54
 696 760 696 760 696 676 c 0,0,1
EndSplineSet
Ligature2: "'abvs' Above Base Substitutions lookup 5 subtable" tm_tta tm_iikaar
EndChar

StartChar: tm_nn_iikaar
Encoding: 65567 -1 147
Width: 1412
GlyphClass: 2
Flags: W
LayerCount: 2
Fore
SplineSet
1590 1074 m 0,0,1
 1590 956 1590 956 1516 852 c 128,-1,2
 1442 748 1442 748 1356 748 c 0,3,4
 1268 748 1268 748 1284 992 c 1,5,6
 1294 990 1294 990 1304 990 c 0,7,8
 1344 990 1344 990 1372 1032 c 0,9,10
 1394 1068 1394 1068 1394 1100 c 0,11,12
 1394 1112 1394 1112 1381 1124 c 128,-1,13
 1368 1136 1368 1136 1356 1136 c 0,14,15
 1312 1136 1312 1136 1282 1090 c 0,16,17
 1242 1030 1242 1030 1242 908 c 0,18,19
 1242 780 1242 780 1264 732 c 0,20,21
 1280 696 1280 696 1346 678 c 0,22,23
 1398 662 1398 662 1398 596 c 0,24,25
 1398 560 1398 560 1393 484 c 128,-1,26
 1388 408 1388 408 1388 390 c 1,27,28
 1374 392 1374 392 1336 402 c 0,29,30
 1306 410 1306 410 1288 410 c 0,31,32
 1254 410 1254 410 1254 364 c 2,33,-1
 1248 -26 l 2,34,35
 1246 -94 1246 -94 1232 -94 c 0,36,37
 1214 -94 1214 -94 1171 -61 c 128,-1,38
 1128 -28 1128 -28 1114 0 c 1,39,-1
 1128 404 l 1,40,41
 1118 400 1118 400 1112 404 c 1,42,43
 1112 592 1112 592 1020 660 c 1,44,-1
 1020 686 l 1,45,-1
 1192 686 l 1,46,47
 1158 816 1158 816 1158 944 c 0,48,49
 1158 1054 1158 1054 1232 1168 c 0,50,51
 1314 1294 1314 1294 1418 1294 c 0,52,53
 1494 1294 1494 1294 1542 1229 c 128,-1,54
 1590 1164 1590 1164 1590 1074 c 0,0,1
506 690 m 1,55,56
 482 676 482 676 424 591 c 128,-1,57
 366 506 366 506 356 472 c 1,58,59
 330 508 330 508 274 508 c 0,60,61
 202 508 202 508 134 456 c 0,62,63
 58 400 58 400 34 316 c 1,64,65
 30 336 30 336 30 358 c 0,66,67
 30 482 30 482 130 596 c 128,-1,68
 230 710 230 710 360 710 c 0,69,70
 400 710 400 710 506 690 c 1,55,56
1072 386 m 0,71,72
 1072 242 1072 242 1014 120 c 0,73,74
 948 -16 948 -16 848 -16 c 0,75,76
 808 -16 808 -16 773 14 c 128,-1,77
 738 44 738 44 738 72 c 1,78,79
 738 70 738 70 767 161 c 128,-1,80
 796 252 796 252 796 342 c 0,81,82
 796 442 796 442 768 504 c 128,-1,83
 740 566 740 566 740 586 c 0,84,85
 740 624 740 624 783 652 c 128,-1,86
 826 680 826 680 884 680 c 0,87,88
 962 680 962 680 1017 597 c 128,-1,89
 1072 514 1072 514 1072 386 c 0,71,72
748 318 m 256,90,91
 748 186 748 186 700 98 c 0,92,93
 642 -10 642 -10 532 -10 c 0,94,95
 450 -10 450 -10 410 74 c 0,96,97
 376 142 376 142 376 244 c 0,98,99
 376 394 376 394 422 510 c 0,100,101
 474 644 474 644 562 644 c 0,102,103
 662 644 662 644 710 536 c 0,104,105
 748 450 748 450 748 318 c 256,90,91
356 230 m 0,106,107
 356 138 356 138 307 66 c 128,-1,108
 258 -6 258 -6 180 -6 c 0,109,110
 108 -6 108 -6 72 68 c 0,111,112
 40 128 40 128 40 218 c 0,113,114
 40 300 40 300 83 363 c 128,-1,115
 126 426 126 426 198 426 c 0,116,117
 274 426 274 426 316 364 c 0,118,119
 356 310 356 310 356 230 c 0,106,107
EndSplineSet
Ligature2: "'abvs' Above Base Substitutions lookup 6 subtable" tm_nna tm_iikaar
EndChar

StartChar: tm_t_iikaar
Encoding: 65568 -1 148
Width: 850
GlyphClass: 2
Flags: W
LayerCount: 2
Fore
SplineSet
820 264 m 0,0,1
 820 -60 820 -60 628 -304 c 128,-1,2
 436 -548 436 -548 188 -548 c 0,3,4
 102 -548 102 -548 46 -442 c 0,5,6
 0 -352 0 -352 0 -256 c 0,7,8
 0 -202 0 -202 36 -174 c 1,9,10
 108 -210 108 -210 158 -210 c 0,11,12
 360 -210 360 -210 525 -68 c 128,-1,13
 690 74 690 74 690 246 c 0,14,15
 690 340 690 340 570 340 c 0,16,17
 544 340 544 340 508 336 c 1,18,19
 500 160 500 160 440 52 c 0,20,21
 376 -64 376 -64 266 -64 c 0,22,23
 148 -64 148 -64 82 72 c 0,24,25
 30 180 30 180 30 326 c 0,26,27
 30 416 30 416 42 446 c 0,28,29
 66 506 66 506 146 512 c 1,30,31
 110 576 110 576 110 662 c 0,32,33
 110 858 110 858 366 882 c 1,34,35
 316 1008 316 1008 316 1096 c 0,36,37
 316 1242 316 1242 394 1364 c 0,38,39
 476 1494 476 1494 582 1494 c 0,40,41
 656 1494 656 1494 707 1433 c 128,-1,42
 758 1372 758 1372 758 1284 c 0,43,44
 758 1166 758 1166 686 1055 c 128,-1,45
 614 944 614 944 534 944 c 0,46,47
 450 944 450 944 450 1106 c 0,48,49
 450 1142 450 1142 456 1174 c 1,50,51
 488 1184 488 1184 523 1224 c 128,-1,52
 558 1264 558 1264 558 1296 c 0,53,54
 558 1330 558 1330 510 1330 c 0,55,56
 468 1330 468 1330 435 1261 c 128,-1,57
 402 1192 402 1192 402 1100 c 0,58,59
 402 1042 402 1042 442 896 c 1,60,61
 486 874 486 874 500 800 c 0,62,63
 510 754 510 754 509 657 c 128,-1,64
 508 560 508 560 516 530 c 1,65,66
 670 532 670 532 726 498 c 0,67,68
 820 444 820 444 820 264 c 0,0,1
394 562 m 0,69,70
 394 582 394 582 382 605 c 128,-1,71
 370 628 370 628 354 628 c 0,72,73
 320 628 320 628 259 593 c 128,-1,74
 198 558 198 558 198 530 c 0,75,76
 198 524 198 524 202 518 c 1,77,-1
 372 518 l 1,78,79
 394 534 394 534 394 562 c 0,69,70
336 336 m 1,80,-1
 194 336 l 2,81,82
 154 336 154 336 154 308 c 0,83,84
 154 288 154 288 178 272 c 128,-1,85
 202 256 202 256 230 256 c 0,86,87
 274 256 274 256 336 336 c 1,80,-1
EndSplineSet
Ligature2: "'abvs' Above Base Substitutions lookup 6 subtable" tm_ta tm_iikaar
EndChar

StartChar: tm_n_iikaar
Encoding: 65569 -1 149
Width: 854
GlyphClass: 2
Flags: W
LayerCount: 2
Fore
SplineSet
824 244 m 0,0,1
 824 120 824 120 662 -40 c 0,2,3
 556 -146 556 -146 430 -224 c 1,4,5
 392 -126 392 -126 392 -110 c 0,6,7
 392 -106 392 -106 470 -54 c 0,8,9
 564 10 564 10 618 64 c 0,10,11
 696 148 696 148 696 224 c 0,12,13
 696 246 696 246 681 265 c 128,-1,14
 666 284 666 284 644 284 c 0,15,16
 606 284 606 284 556 224 c 0,17,18
 492 148 492 148 492 42 c 0,19,20
 492 -6 492 -6 488 -18 c 0,21,22
 482 -42 482 -42 452 -42 c 0,23,24
 420 -42 420 -42 396 -20 c 128,-1,25
 372 2 372 2 372 40 c 2,26,-1
 372 436 l 1,27,28
 190 436 190 436 190 300 c 0,29,30
 190 230 190 230 228 158 c 0,31,32
 252 112 252 112 278 68 c 1,33,-1
 156 0 l 1,34,35
 30 192 30 192 30 414 c 0,36,37
 30 722 30 722 382 736 c 1,38,39
 348 872 348 872 348 982 c 0,40,41
 348 1118 348 1118 428 1231 c 128,-1,42
 508 1344 508 1344 600 1344 c 0,43,44
 678 1344 678 1344 728 1280 c 128,-1,45
 778 1216 778 1216 778 1122 c 0,46,47
 778 1004 778 1004 703 901 c 128,-1,48
 628 798 628 798 540 798 c 0,49,50
 506 798 506 798 484 864 c 0,51,52
 468 918 468 918 468 988 c 0,53,54
 468 1018 468 1018 472 1038 c 1,55,56
 518 1030 518 1030 549 1068 c 128,-1,57
 580 1106 580 1106 580 1146 c 0,58,59
 580 1182 580 1182 540 1182 c 0,60,61
 484 1182 484 1182 455 1111 c 128,-1,62
 426 1040 426 1040 426 940 c 0,63,64
 426 820 426 820 476 738 c 1,65,66
 518 740 518 740 544 740 c 0,67,68
 622 740 622 740 651 716 c 128,-1,69
 680 692 680 692 680 622 c 2,70,-1
 680 450 l 1,71,72
 586 436 586 436 504 436 c 1,73,-1
 504 290 l 1,74,75
 586 400 586 400 714 400 c 0,76,77
 764 400 764 400 794 352 c 128,-1,78
 824 304 824 304 824 244 c 0,0,1
EndSplineSet
Ligature2: "'abvs' Above Base Substitutions lookup 6 subtable" tm_na tm_iikaar
EndChar

StartChar: tm_nnn_iikaar
Encoding: 65570 -1 150
Width: 1084
GlyphClass: 2
Flags: W
LayerCount: 2
Fore
SplineSet
1252 1082 m 0,0,1
 1252 956 1252 956 1186 856 c 0,2,3
 1114 748 1114 748 1008 748 c 0,4,5
 946 748 946 748 946 926 c 0,6,7
 946 962 946 962 950 992 c 1,8,9
 962 988 962 988 974 988 c 0,10,11
 1008 988 1008 988 1032 1022 c 128,-1,12
 1056 1056 1056 1056 1056 1096 c 0,13,14
 1056 1132 1056 1132 1022 1132 c 0,15,16
 966 1132 966 1132 935 1065 c 128,-1,17
 904 998 904 998 904 900 c 0,18,19
 904 768 904 768 950 692 c 1,20,21
 1026 688 1026 688 1050 654 c 0,22,23
 1064 634 1064 634 1064 578 c 0,24,25
 1064 502 1064 502 1048 390 c 1,26,27
 994 412 994 412 950 412 c 0,28,29
 918 412 918 412 918 372 c 2,30,-1
 914 12 l 2,31,32
 912 -92 912 -92 894 -92 c 0,33,34
 878 -92 878 -92 831 -53 c 128,-1,35
 784 -14 784 -14 780 2 c 1,36,-1
 786 408 l 1,37,38
 778 406 778 406 770 408 c 1,39,40
 784 586 784 586 682 662 c 1,41,-1
 682 688 l 1,42,-1
 856 688 l 1,43,44
 822 838 822 838 822 936 c 0,45,46
 822 1066 822 1066 903 1178 c 128,-1,47
 984 1290 984 1290 1076 1290 c 0,48,49
 1156 1290 1156 1290 1204 1230 c 128,-1,50
 1252 1170 1252 1170 1252 1082 c 0,0,1
498 696 m 1,51,52
 376 544 376 544 358 478 c 1,53,54
 330 514 330 514 276 514 c 0,55,56
 206 514 206 514 138 462 c 0,57,58
 62 406 62 406 36 318 c 1,59,60
 32 340 32 340 32 364 c 0,61,62
 32 488 32 488 126 598 c 0,63,64
 228 714 228 714 360 714 c 0,65,66
 400 714 400 714 498 696 c 1,51,52
748 330 m 0,67,68
 748 198 748 198 700 106 c 0,69,70
 640 -4 640 -4 530 -4 c 0,71,72
 450 -4 450 -4 408 84 c 0,73,74
 374 154 374 154 374 256 c 0,75,76
 374 404 374 404 420 520 c 0,77,78
 474 650 474 650 562 650 c 0,79,80
 660 650 660 650 710 540 c 0,81,82
 748 454 748 454 748 330 c 0,67,68
358 236 m 0,83,84
 358 148 358 148 308 76 c 0,85,86
 254 -2 254 -2 178 -2 c 0,87,88
 108 -2 108 -2 72 72 c 0,89,90
 44 132 44 132 44 220 c 0,91,92
 44 302 44 302 84 367 c 128,-1,93
 124 432 124 432 194 432 c 0,94,95
 270 432 270 432 316 370 c 0,96,97
 358 316 358 316 358 236 c 0,83,84
EndSplineSet
Ligature2: "'abvs' Above Base Substitutions lookup 6 subtable" tm_nnna tm_iikaar
EndChar

StartChar: tm_p_iikaar
Encoding: 65571 -1 151
Width: 756
GlyphClass: 2
Flags: W
LayerCount: 2
Fore
SplineSet
828 1014 m 0,0,1
 828 894 828 894 758 794 c 0,2,3
 686 688 686 688 594 688 c 0,4,5
 566 688 566 688 548 744 c 128,-1,6
 530 800 530 800 530 866 c 0,7,8
 530 898 530 898 534 924 c 1,9,10
 578 918 578 918 608 951 c 128,-1,11
 638 984 638 984 638 1028 c 0,12,13
 638 1068 638 1068 600 1068 c 0,14,15
 492 1068 492 1068 492 834 c 0,16,17
 492 722 492 722 511 703 c 128,-1,18
 530 684 530 684 552 664 c 0,19,20
 584 636 584 636 584 594 c 2,21,-1
 584 10 l 1,22,23
 438 -24 438 -24 330 -24 c 0,24,25
 30 -24 30 -24 30 218 c 0,26,27
 30 328 30 328 106 502 c 0,28,29
 178 666 178 666 236 708 c 1,30,-1
 386 718 l 1,31,32
 334 666 334 666 276 554 c 0,33,34
 212 436 212 436 212 382 c 0,35,36
 212 326 212 326 249 295 c 128,-1,37
 286 264 286 264 344 264 c 0,38,39
 388 264 388 264 458 286 c 1,40,-1
 458 612 l 1,41,42
 408 738 408 738 408 870 c 0,43,44
 408 998 408 998 489 1111 c 128,-1,45
 570 1224 570 1224 660 1224 c 0,46,47
 736 1224 736 1224 782 1162 c 128,-1,48
 828 1100 828 1100 828 1014 c 0,0,1
EndSplineSet
Ligature2: "'abvs' Above Base Substitutions lookup 6 subtable" tm_pa tm_iikaar
EndChar

StartChar: tm_m_iikaar
Encoding: 65572 -1 152
Width: 810
GlyphClass: 2
Flags: W
LayerCount: 2
Fore
SplineSet
896 1122 m 0,0,1
 896 998 896 998 824 894 c 128,-1,2
 752 790 752 790 650 790 c 0,3,4
 622 790 622 790 604 852 c 0,5,6
 586 906 586 906 586 976 c 0,7,8
 586 1004 586 1004 590 1026 c 1,9,10
 634 1022 634 1022 666 1057 c 128,-1,11
 698 1092 698 1092 698 1138 c 0,12,13
 698 1174 698 1174 662 1174 c 0,14,15
 606 1174 606 1174 574 1102 c 0,16,17
 546 1038 546 1038 546 938 c 0,18,19
 546 806 546 806 584 740 c 1,20,21
 668 732 668 732 724 644 c 128,-1,22
 780 556 780 556 780 444 c 0,23,24
 780 260 780 260 660 128 c 128,-1,25
 540 -4 540 -4 360 -4 c 0,26,27
 204 -4 204 -4 117 82 c 128,-1,28
 30 168 30 168 30 308 c 0,29,30
 30 516 30 516 220 750 c 1,31,-1
 418 766 l 1,32,33
 336 718 336 718 270 609 c 128,-1,34
 204 500 204 500 204 418 c 0,35,36
 204 348 204 348 256 310 c 0,37,38
 298 278 298 278 362 278 c 0,39,40
 386 278 386 278 389 283 c 128,-1,41
 392 288 392 288 392 308 c 2,42,-1
 392 614 l 2,43,44
 392 700 392 700 500 730 c 1,45,46
 464 848 464 848 464 974 c 0,47,48
 464 1106 464 1106 546 1221 c 128,-1,49
 628 1336 628 1336 718 1336 c 0,50,51
 796 1336 796 1336 846 1272 c 128,-1,52
 896 1208 896 1208 896 1122 c 0,0,1
668 388 m 0,53,54
 668 416 668 416 640 438 c 128,-1,55
 612 460 612 460 580 460 c 0,56,57
 544 460 544 460 488 410 c 0,58,59
 420 348 420 348 412 272 c 1,60,61
 506 268 506 268 592 312 c 0,62,63
 668 350 668 350 668 388 c 0,53,54
EndSplineSet
Ligature2: "'abvs' Above Base Substitutions lookup 6 subtable" tm_ma tm_iikaar
EndChar

StartChar: tm_y_iikaar
Encoding: 65573 -1 153
Width: 1016
GlyphClass: 2
Flags: W
LayerCount: 2
Fore
SplineSet
1088 1004 m 0,0,1
 1088 886 1088 886 1013 780 c 128,-1,2
 938 674 938 674 850 674 c 0,3,4
 816 674 816 674 798 738 c 0,5,6
 782 792 782 792 782 862 c 0,7,8
 782 900 782 900 786 922 c 1,9,10
 832 914 832 914 864 952 c 0,11,12
 890 986 890 986 890 1026 c 0,13,14
 890 1062 890 1062 854 1062 c 0,15,16
 798 1062 798 1062 767 994 c 128,-1,17
 736 926 736 926 736 824 c 0,18,19
 736 720 736 720 758 670 c 0,20,21
 774 630 774 630 818 604 c 1,22,-1
 808 -6 l 1,23,24
 780 -16 780 -16 686 -30 c 0,25,26
 582 -44 582 -44 512 -44 c 0,27,28
 434 -44 434 -44 414 -34 c 0,29,30
 382 -16 382 -16 382 56 c 0,31,32
 382 86 382 86 390 154 c 0,33,34
 396 216 396 216 394 246 c 1,35,36
 358 168 358 168 322 88 c 0,37,38
 262 -34 262 -34 210 -34 c 0,39,40
 140 -34 140 -34 88 26 c 0,41,42
 30 92 30 92 30 196 c 0,43,44
 30 302 30 302 74 434 c 0,45,46
 126 588 126 588 212 694 c 1,47,-1
 382 694 l 1,48,49
 316 650 316 650 253 529 c 128,-1,50
 190 408 190 408 190 342 c 0,51,52
 190 248 190 248 290 248 c 0,53,54
 402 248 402 248 404 336 c 2,55,-1
 408 684 l 1,56,-1
 526 604 l 1,57,58
 526 522 526 522 512 320 c 0,59,60
 510 288 510 288 526 280 c 0,61,62
 536 274 536 274 570 274 c 0,63,64
 672 274 672 274 694 294 c 1,65,-1
 700 600 l 1,66,67
 682 630 682 630 668 736 c 0,68,69
 656 824 656 824 656 864 c 0,70,71
 656 1002 656 1002 738 1113 c 128,-1,72
 820 1224 820 1224 912 1224 c 0,73,74
 990 1224 990 1224 1039 1160 c 128,-1,75
 1088 1096 1088 1096 1088 1004 c 0,0,1
EndSplineSet
Ligature2: "'abvs' Above Base Substitutions lookup 6 subtable" tm_ya tm_iikaar
EndChar

StartChar: tm_r_iikaar
Encoding: 65574 -1 154
Width: 600
GlyphClass: 2
Flags: W
LayerCount: 2
Fore
SplineSet
590 233 m 0,0,1
 590 -165 590 -165 438 -405 c 0,2,3
 300 -621 300 -621 102 -621 c 0,4,5
 52 -621 52 -621 14 -539 c 128,-1,6
 -24 -457 -24 -457 -24 -351 c 0,7,8
 -24 -247 -24 -247 14 -247 c 0,9,10
 30 -247 30 -247 54 -263 c 128,-1,11
 78 -279 78 -279 108 -279 c 0,12,13
 264 -279 264 -279 382 -136 c 128,-1,14
 500 7 500 7 500 223 c 0,15,16
 500 309 500 309 467 375 c 128,-1,17
 434 441 434 441 388 441 c 0,18,19
 314 441 314 441 252 409 c 0,20,21
 166 367 166 367 166 283 c 0,22,23
 166 195 166 195 276 57 c 1,24,-1
 184 -5 l 1,25,26
 30 123 30 123 30 411 c 0,27,28
 30 523 30 523 60 598 c 128,-1,29
 90 673 90 673 138 691 c 0,30,31
 214 719 214 719 352 719 c 1,32,-1
 364 725 l 1,33,34
 336 859 336 859 336 936 c 0,35,36
 336 1076 336 1076 416 1188 c 128,-1,37
 496 1300 496 1300 590 1300 c 0,38,39
 668 1300 668 1300 716 1236 c 128,-1,40
 764 1172 764 1172 764 1080 c 0,41,42
 764 960 764 960 692 857 c 128,-1,43
 620 754 620 754 524 754 c 0,44,45
 456 754 456 754 456 954 c 0,46,47
 456 982 456 982 458 998 c 1,48,49
 470 994 470 994 480 994 c 0,50,51
 520 994 520 994 546 1036 c 0,52,53
 566 1070 566 1070 566 1102 c 0,54,55
 566 1138 566 1138 528 1138 c 0,56,57
 472 1138 472 1138 442 1066 c 0,58,59
 416 1002 416 1002 416 900 c 0,60,61
 416 777 416 777 453 714 c 1,62,63
 507 708 507 708 532 695 c 1,64,65
 590 467 590 467 590 233 c 0,0,1
EndSplineSet
Ligature2: "'abvs' Above Base Substitutions lookup 5 subtable" tm_ra tm_iikaar
EndChar

StartChar: tm_rr_iikaar
Encoding: 65575 -1 155
Width: 758
GlyphClass: 2
Flags: W
LayerCount: 2
Fore
SplineSet
864 1084 m 0,0,1
 864 958 864 958 796 858 c 0,2,3
 722 750 722 750 616 750 c 0,4,5
 588 750 588 750 570 814 c 0,6,7
 554 870 554 870 554 942 c 0,8,9
 554 970 554 970 558 994 c 1,10,11
 570 990 570 990 582 990 c 0,12,13
 616 990 616 990 641 1024 c 128,-1,14
 666 1058 666 1058 666 1098 c 0,15,16
 666 1134 666 1134 630 1134 c 0,17,18
 574 1134 574 1134 543 1067 c 128,-1,19
 512 1000 512 1000 512 902 c 0,20,21
 512 814 512 814 546 704 c 1,22,23
 728 652 728 652 728 358 c 0,24,25
 728 14 728 14 538 -274 c 0,26,27
 334 -588 334 -588 48 -588 c 0,28,29
 -50 -588 -50 -588 -84 -520 c 0,30,31
 -106 -476 -106 -476 -106 -376 c 0,32,33
 -106 -312 -106 -312 -86 -255 c 128,-1,34
 -66 -198 -66 -198 -38 -198 c 0,35,36
 -22 -198 -22 -198 15 -226 c 128,-1,37
 52 -254 52 -254 118 -254 c 0,38,39
 326 -254 326 -254 480 -86 c 0,40,41
 626 74 626 74 626 270 c 0,42,43
 626 336 626 336 594 376 c 0,44,45
 566 408 566 408 536 408 c 0,46,47
 508 408 508 408 484 360 c 0,48,49
 458 306 458 306 458 232 c 0,50,51
 458 216 458 216 460 152 c 0,52,53
 460 88 460 88 460 50 c 0,54,55
 460 -12 460 -12 442 -12 c 0,56,57
 410 -12 410 -12 369 21 c 128,-1,58
 328 54 328 54 328 86 c 0,59,60
 328 128 328 128 331 220 c 128,-1,61
 334 312 334 312 334 358 c 0,62,63
 334 408 334 408 276 408 c 0,64,65
 236 408 236 408 210 363 c 128,-1,66
 184 318 184 318 184 267 c 128,-1,67
 184 216 184 216 176 120 c 0,68,69
 168 12 168 12 168 -18 c 1,70,71
 90 32 90 32 86 36 c 0,72,73
 44 70 44 70 44 104 c 2,74,-1
 44 374 l 2,75,76
 44 684 44 684 216 684 c 0,77,78
 272 684 272 684 322 657 c 128,-1,79
 372 630 372 630 376 586 c 1,80,81
 410 658 410 658 468 688 c 1,82,83
 432 804 432 804 432 938 c 0,84,85
 432 1074 432 1074 520 1190 c 0,86,87
 604 1296 604 1296 686 1296 c 0,88,89
 764 1296 764 1296 814 1234 c 128,-1,90
 864 1172 864 1172 864 1084 c 0,0,1
EndSplineSet
Ligature2: "'abvs' Above Base Substitutions lookup 6 subtable" tm_rra tm_iikaar
EndChar

StartChar: tm_l_iikaar
Encoding: 65576 -1 156
Width: 772
GlyphClass: 2
Flags: W
LayerCount: 2
Fore
SplineSet
930 1062 m 0,0,1
 930 942 930 942 858 839 c 128,-1,2
 786 736 786 736 690 736 c 0,3,4
 614 736 614 736 624 980 c 1,5,6
 636 976 636 976 646 976 c 0,7,8
 686 976 686 976 712 1018 c 0,9,10
 732 1052 732 1052 732 1084 c 0,11,12
 732 1120 732 1120 694 1120 c 0,13,14
 638 1120 638 1120 609 1051 c 128,-1,15
 580 982 580 982 580 882 c 0,16,17
 580 776 580 776 612 700 c 1,18,19
 658 692 658 692 685 644 c 128,-1,20
 712 596 712 596 712 540 c 0,21,22
 712 486 712 486 685 448 c 128,-1,23
 658 410 658 410 612 410 c 0,24,25
 554 410 554 410 522 460 c 0,26,27
 494 502 494 502 494 570 c 0,28,29
 494 636 494 636 534 670 c 1,30,31
 498 800 498 800 498 918 c 0,32,33
 498 1054 498 1054 584 1170 c 0,34,35
 666 1280 666 1280 752 1280 c 0,36,37
 832 1280 832 1280 881 1217 c 128,-1,38
 930 1154 930 1154 930 1062 c 0,0,1
742 358 m 0,39,40
 742 240 742 240 692 132 c 0,41,42
 630 -6 630 -6 520 -6 c 0,43,44
 418 -6 418 -6 390 112 c 1,45,46
 374 222 374 222 358 334 c 1,47,48
 326 452 326 452 214 452 c 0,49,50
 132 452 132 452 62 374 c 1,51,52
 48 442 48 442 126 564 c 0,53,54
 210 696 210 696 306 696 c 0,55,56
 416 696 416 696 462 606 c 1,57,58
 490 524 490 524 518 442 c 0,59,60
 550 352 550 352 624 352 c 0,61,62
 690 352 690 352 728 462 c 1,63,64
 742 396 742 396 742 358 c 0,39,40
338 232 m 0,65,66
 338 134 338 134 296 66 c 0,67,68
 248 -10 248 -10 166 -10 c 0,69,70
 102 -10 102 -10 64 54 c 0,71,72
 32 110 32 110 32 196 c 256,73,74
 32 282 32 282 77 345 c 128,-1,75
 122 408 122 408 196 408 c 0,76,77
 262 408 262 408 300 355 c 128,-1,78
 338 302 338 302 338 232 c 0,65,66
EndSplineSet
Ligature2: "'abvs' Above Base Substitutions lookup 5 subtable" tm_la tm_iikaar
EndChar

StartChar: tm_ll_iikaar
Encoding: 65577 -1 157
Width: 962
GlyphClass: 2
Flags: W
LayerCount: 2
Fore
SplineSet
1140 1074 m 0,0,1
 1140 944 1140 944 1068 840 c 128,-1,2
 996 736 996 736 900 736 c 0,3,4
 834 736 834 736 834 908 c 0,5,6
 834 942 834 942 838 982 c 1,7,8
 850 976 850 976 862 976 c 0,9,10
 896 976 896 976 919 1012 c 128,-1,11
 942 1048 942 1048 942 1084 c 0,12,13
 942 1122 942 1122 906 1122 c 0,14,15
 858 1122 858 1122 828 1066 c 0,16,17
 792 1002 792 1002 792 892 c 0,18,19
 792 760 792 760 824 702 c 1,20,21
 906 700 906 700 930 668 c 0,22,23
 948 644 948 644 948 576 c 0,24,25
 948 546 948 546 942 474 c 0,26,27
 936 388 936 388 936 374 c 1,28,29
 904 394 904 394 818 394 c 0,30,31
 786 394 786 394 786 170 c 0,32,33
 786 -200 786 -200 770 -326 c 1,34,-1
 648 -218 l 1,35,36
 656 -70 656 -70 656 88 c 0,37,38
 656 298 656 298 662 370 c 1,39,40
 608 370 608 370 572 311 c 128,-1,41
 536 252 536 252 536 176 c 2,42,-1
 536 -88 l 1,43,44
 490 -58 490 -58 412 10 c 1,45,-1
 412 266 l 2,46,47
 412 344 412 344 365 395 c 128,-1,48
 318 446 318 446 242 446 c 0,49,50
 186 446 186 446 126 408 c 1,51,52
 78 372 78 372 30 336 c 1,53,54
 92 664 92 664 316 664 c 0,55,56
 382 664 382 664 448 627 c 128,-1,57
 514 590 514 590 536 534 c 1,58,59
 596 654 596 654 740 692 c 1,60,61
 710 816 710 816 710 928 c 0,62,63
 710 1064 710 1064 796 1176 c 0,64,65
 878 1282 878 1282 964 1282 c 0,66,67
 1044 1282 1044 1282 1092 1222 c 128,-1,68
 1140 1162 1140 1162 1140 1074 c 0,0,1
366 214 m 0,69,70
 366 126 366 126 324 60 c 0,71,72
 278 -14 278 -14 204 -14 c 256,73,74
 130 -14 130 -14 84 50 c 0,75,76
 44 108 44 108 44 188 c 0,77,78
 44 272 44 272 88 336 c 128,-1,79
 132 400 132 400 206 400 c 0,80,81
 366 400 366 400 366 214 c 0,69,70
EndSplineSet
Ligature2: "'abvs' Above Base Substitutions lookup 6 subtable" tm_lla tm_iikaar
EndChar

StartChar: tm_lll_iikaar
Encoding: 65578 -1 158
Width: 810
GlyphClass: 2
Flags: W
LayerCount: 2
Fore
SplineSet
874 1116 m 0,0,1
 874 990 874 990 806 888 c 0,2,3
 732 778 732 778 626 778 c 0,4,5
 598 778 598 778 582 842 c 0,6,7
 566 898 566 898 566 970 c 0,8,9
 566 1000 566 1000 570 1024 c 1,10,11
 582 1020 582 1020 594 1020 c 0,12,13
 628 1020 628 1020 651 1053 c 128,-1,14
 674 1086 674 1086 674 1126 c 0,15,16
 674 1162 674 1162 640 1162 c 0,17,18
 526 1162 526 1162 526 934 c 0,19,20
 526 800 526 800 560 738 c 1,21,22
 648 752 648 752 714 657 c 128,-1,23
 780 562 780 562 780 446 c 0,24,25
 780 284 780 284 679 153 c 128,-1,26
 578 22 578 22 434 2 c 1,27,28
 470 -60 470 -60 570 -60 c 0,29,30
 586 -60 586 -60 606 -45 c 128,-1,31
 626 -30 626 -30 652 -30 c 0,32,33
 684 -30 684 -30 684 -86 c 0,34,35
 684 -296 684 -296 552 -296 c 0,36,37
 502 -296 502 -296 450 -262 c 0,38,39
 390 -224 390 -224 388 -180 c 1,40,41
 344 -306 344 -306 272 -390 c 0,42,43
 178 -496 178 -496 64 -496 c 0,44,45
 -8 -496 -8 -496 -32 -426 c 0,46,47
 -44 -388 -44 -388 -44 -296 c 0,48,49
 -44 -156 -44 -156 2 -156 c 0,50,51
 14 -156 14 -156 41 -176 c 128,-1,52
 68 -196 68 -196 118 -196 c 0,53,54
 198 -196 198 -196 257 -146 c 128,-1,55
 316 -96 316 -96 334 -4 c 1,56,57
 192 6 192 6 111 90 c 128,-1,58
 30 174 30 174 30 308 c 0,59,60
 30 518 30 518 220 752 c 1,61,-1
 418 768 l 1,62,63
 336 720 336 720 270 610 c 128,-1,64
 204 500 204 500 204 420 c 0,65,66
 204 350 204 350 260 310 c 0,67,68
 304 278 304 278 356 278 c 0,69,70
 382 278 382 278 392 286 c 1,71,-1
 392 640 l 1,72,73
 420 704 420 704 476 718 c 1,74,75
 444 832 444 832 444 970 c 0,76,77
 444 1100 444 1100 526 1212 c 128,-1,78
 608 1324 608 1324 698 1324 c 0,79,80
 778 1324 778 1324 826 1264 c 128,-1,81
 874 1204 874 1204 874 1116 c 0,0,1
668 394 m 0,82,83
 668 418 668 418 640 440 c 128,-1,84
 612 462 612 462 584 462 c 0,85,86
 544 462 544 462 490 418 c 0,87,88
 424 362 424 362 414 276 c 1,89,90
 516 270 516 270 598 314 c 0,91,92
 668 354 668 354 668 394 c 0,82,83
EndSplineSet
Ligature2: "'abvs' Above Base Substitutions lookup 6 subtable" tm_llla tm_iikaar
EndChar

StartChar: tm_v_iikaar
Encoding: 65579 -1 159
Width: 988
GlyphClass: 2
Flags: W
LayerCount: 2
Fore
SplineSet
1064 1014 m 0,0,1
 1064 894 1064 894 992 791 c 128,-1,2
 920 688 920 688 826 688 c 0,3,4
 786 688 786 688 768 766 c 0,5,6
 752 836 752 836 758 932 c 1,7,8
 770 928 770 928 780 928 c 0,9,10
 820 928 820 928 844 970 c 0,11,12
 864 1002 864 1002 864 1034 c 0,13,14
 864 1072 864 1072 826 1072 c 0,15,16
 774 1072 774 1072 744 1002 c 128,-1,17
 714 932 714 932 714 836 c 0,18,19
 714 728 714 728 738 680 c 0,20,21
 748 662 748 662 786 634 c 0,22,23
 810 614 810 614 810 574 c 0,24,25
 810 478 810 478 805 327 c 128,-1,26
 800 176 800 176 800 102 c 0,27,28
 800 18 800 18 746 -18 c 0,29,30
 670 -66 670 -66 448 -66 c 0,31,32
 324 -66 324 -66 324 -24 c 1,33,34
 324 -26 324 -26 370 59 c 128,-1,35
 416 144 416 144 416 240 c 0,36,37
 416 434 416 434 234 434 c 0,38,39
 104 434 104 434 32 278 c 1,40,41
 18 406 18 406 102 540 c 0,42,43
 192 686 192 686 324 686 c 0,44,45
 432 686 432 686 498 604 c 0,46,47
 558 528 558 528 558 418 c 0,48,49
 558 376 558 376 520 220 c 1,50,-1
 594 220 l 2,51,52
 656 220 656 220 656 268 c 0,53,54
 656 336 656 336 659 442 c 128,-1,55
 662 548 662 548 662 624 c 0,56,57
 662 646 662 646 648 718 c 128,-1,58
 634 790 634 790 634 870 c 0,59,60
 634 1010 634 1010 720 1124 c 0,61,62
 800 1232 800 1232 884 1232 c 0,63,64
 964 1232 964 1232 1014 1172 c 128,-1,65
 1064 1112 1064 1112 1064 1014 c 0,0,1
356 220 m 0,66,67
 356 120 356 120 310 42 c 0,68,69
 256 -46 256 -46 174 -46 c 0,70,71
 112 -46 112 -46 70 13 c 128,-1,72
 28 72 28 72 28 146 c 0,73,74
 28 242 28 242 81 316 c 128,-1,75
 134 390 134 390 220 390 c 0,76,77
 284 390 284 390 320 340 c 128,-1,78
 356 290 356 290 356 220 c 0,66,67
EndSplineSet
Ligature2: "'abvs' Above Base Substitutions lookup 6 subtable" tm_va tm_iikaar
EndChar

StartChar: tm_ss_iikaar
Encoding: 65580 -1 160
Width: 966
GlyphClass: 2
Flags: W
LayerCount: 2
Fore
SplineSet
1180 1174 m 0,0,1
 1180 1052 1180 1052 1114 952 c 0,2,3
 1044 844 1044 844 942 844 c 0,4,5
 876 844 876 844 876 1030 c 0,6,7
 876 1064 876 1064 880 1082 c 1,8,9
 890 1078 890 1078 900 1078 c 0,10,11
 934 1078 934 1078 959 1113 c 128,-1,12
 984 1148 984 1148 984 1188 c 0,13,14
 984 1220 984 1220 950 1220 c 0,15,16
 838 1220 838 1220 838 996 c 0,17,18
 838 876 838 876 880 782 c 1,19,20
 950 760 950 760 950 682 c 0,21,22
 950 586 950 586 758 304 c 1,23,24
 826 320 826 320 842 328 c 0,25,26
 892 350 892 350 914 396 c 1,27,28
 952 320 952 320 952 224 c 0,29,30
 952 104 952 104 876 56 c 0,31,32
 822 22 822 22 658 -2 c 1,33,34
 624 -62 624 -62 624 -116 c 0,35,36
 624 -198 624 -198 668 -198 c 0,37,38
 686 -198 686 -198 725 -155 c 128,-1,39
 764 -112 764 -112 778 -112 c 0,40,41
 818 -112 818 -112 818 -234 c 0,42,43
 818 -340 818 -340 780 -418 c 0,44,45
 734 -508 734 -508 656 -508 c 0,46,47
 582 -508 582 -508 540 -438 c 0,48,49
 502 -374 502 -374 502 -280 c 0,50,51
 502 -136 502 -136 566 0 c 1,52,53
 506 -4 506 -4 428 2 c 0,54,55
 316 12 316 12 316 42 c 0,56,57
 316 46 316 46 361 129 c 128,-1,58
 406 212 406 212 406 308 c 0,59,60
 406 498 406 498 230 498 c 0,61,62
 104 498 104 498 34 346 c 1,63,64
 20 470 20 470 100 602 c 0,65,66
 188 744 188 744 316 744 c 0,67,68
 418 744 418 744 483 668 c 128,-1,69
 548 592 548 592 548 484 c 0,70,71
 548 380 548 380 512 300 c 1,72,73
 570 280 570 280 604 298 c 1,74,-1
 604 666 l 1,75,76
 624 690 624 690 674 726 c 0,77,78
 740 774 740 774 790 786 c 1,79,80
 758 914 758 914 758 1028 c 0,81,82
 758 1156 758 1156 836 1267 c 128,-1,83
 914 1378 914 1378 1002 1378 c 0,84,85
 1080 1378 1080 1378 1130 1319 c 128,-1,86
 1180 1260 1180 1260 1180 1174 c 0,0,1
350 286 m 0,87,88
 350 188 350 188 306 112 c 0,89,90
 258 26 258 26 178 26 c 0,91,92
 112 26 112 26 71 80 c 128,-1,93
 30 134 30 134 30 212 c 0,94,95
 30 308 30 308 76 376 c 0,96,97
 128 452 128 452 212 452 c 0,98,99
 276 452 276 452 313 403 c 128,-1,100
 350 354 350 354 350 286 c 0,87,88
804 530 m 1,101,102
 756 526 756 526 718 475 c 128,-1,103
 680 424 680 424 680 386 c 0,104,105
 680 378 680 378 682 372 c 1,106,107
 708 392 708 392 753 448 c 128,-1,108
 798 504 798 504 804 530 c 1,101,102
EndSplineSet
Ligature2: "'abvs' Above Base Substitutions lookup 6 subtable" tm_ssa tm_iikaar
EndChar

StartChar: tm_s_iikaar
Encoding: 65581 -1 161
Width: 1062
GlyphClass: 2
Flags: W
LayerCount: 2
Fore
SplineSet
1234 1126 m 0,0,1
 1234 1002 1234 1002 1168 900 c 0,2,3
 1096 790 1096 790 994 790 c 0,4,5
 962 790 962 790 944 850 c 0,6,7
 928 902 928 902 928 972 c 0,8,9
 928 1006 928 1006 932 1034 c 1,10,11
 942 1030 942 1030 952 1030 c 0,12,13
 986 1030 986 1030 1013 1067 c 128,-1,14
 1040 1104 1040 1104 1040 1138 c 0,15,16
 1040 1174 1040 1174 1004 1174 c 0,17,18
 948 1174 948 1174 917 1108 c 128,-1,19
 886 1042 886 1042 886 944 c 0,20,21
 886 844 886 844 912 774 c 1,22,23
 922 778 922 778 934 778 c 0,24,25
 958 778 958 778 977 761 c 128,-1,26
 996 744 996 744 996 726 c 2,27,28
 996 726 996 726 1014 622 c 128,-1,29
 1032 518 1032 518 1032 420 c 0,30,31
 1032 268 1032 268 982 158 c 0,32,33
 922 26 922 26 812 26 c 0,34,35
 744 26 744 26 700 86 c 128,-1,36
 656 146 656 146 656 248 c 0,37,38
 656 278 656 278 660 328 c 128,-1,39
 664 378 664 378 664 406 c 0,40,41
 664 494 664 494 610 494 c 0,42,43
 560 494 560 494 558 410 c 2,44,-1
 544 -4 l 1,45,46
 524 -6 524 -6 475 30 c 128,-1,47
 426 66 426 66 418 94 c 1,48,-1
 418 318 l 2,49,50
 418 518 418 518 226 518 c 0,51,52
 116 518 116 518 30 358 c 1,53,54
 34 510 34 510 104 628 c 0,55,56
 188 768 188 768 332 768 c 0,57,58
 404 768 404 768 466 722 c 0,59,60
 522 678 522 678 524 632 c 1,61,62
 532 684 532 684 562 722 c 0,63,64
 598 770 598 770 652 770 c 0,65,66
 710 770 710 770 742 688 c 0,67,68
 766 626 766 626 766 550 c 0,69,70
 766 530 766 530 761 481 c 128,-1,71
 756 432 756 432 756 408 c 0,72,73
 756 316 756 316 818 316 c 0,74,75
 854 316 854 316 874 368 c 0,76,77
 890 408 890 408 890 452 c 0,78,79
 890 564 890 564 861 645 c 128,-1,80
 832 726 832 726 832 724 c 1,81,82
 832 734 832 734 838 742 c 1,83,84
 804 866 804 866 804 980 c 0,85,86
 804 1110 804 1110 886 1224 c 128,-1,87
 968 1338 968 1338 1058 1338 c 0,88,89
 1136 1338 1136 1338 1185 1276 c 128,-1,90
 1234 1214 1234 1214 1234 1126 c 0,0,1
356 292 m 0,91,92
 356 202 356 202 310 122 c 0,93,94
 258 32 258 32 184 32 c 0,95,96
 112 32 112 32 72 96 c 0,97,98
 36 152 36 152 36 234 c 0,99,100
 36 334 36 334 86 401 c 128,-1,101
 136 468 136 468 222 468 c 0,102,103
 356 468 356 468 356 292 c 0,91,92
EndSplineSet
Ligature2: "'abvs' Above Base Substitutions lookup 5 subtable" tm_sa tm_iikaar
EndChar

StartChar: tm_h_iikaar
Encoding: 65582 -1 162
Width: 1376
GlyphClass: 2
Flags: W
LayerCount: 2
Fore
SplineSet
1442 1156 m 0,0,1
 1442 1028 1442 1028 1374 924 c 0,2,3
 1302 810 1302 810 1196 810 c 0,4,5
 1128 810 1128 810 1128 1006 c 0,6,7
 1128 1038 1128 1038 1130 1058 c 1,8,9
 1142 1054 1142 1054 1152 1054 c 0,10,11
 1188 1054 1188 1054 1213 1090 c 128,-1,12
 1238 1126 1238 1126 1238 1168 c 0,13,14
 1238 1202 1238 1202 1204 1202 c 0,15,16
 1088 1202 1088 1202 1088 970 c 0,17,18
 1088 862 1088 862 1120 770 c 1,19,20
 1346 770 1346 770 1346 422 c 0,21,22
 1346 62 1346 62 1154 -234 c 0,23,24
 946 -552 946 -552 652 -552 c 0,25,26
 496 -552 496 -552 496 -328 c 0,27,28
 496 -264 496 -264 517 -207 c 128,-1,29
 538 -150 538 -150 566 -150 c 0,30,31
 576 -150 576 -150 616 -179 c 128,-1,32
 656 -208 656 -208 724 -208 c 0,33,34
 936 -208 936 -208 1094 -34 c 0,35,36
 1244 130 1244 130 1244 332 c 0,37,38
 1244 384 1244 384 1218 424 c 128,-1,39
 1192 464 1192 464 1148 464 c 0,40,41
 1070 464 1070 464 1070 204 c 0,42,43
 1070 194 1070 194 1074 132 c 0,44,45
 1076 86 1076 86 1074 66 c 0,46,47
 1070 36 1070 36 1054 36 c 0,48,49
 1032 36 1032 36 942 104 c 1,50,-1
 946 406 l 2,51,52
 946 468 946 468 884 468 c 0,53,54
 854 468 854 468 828 436 c 0,55,56
 792 392 792 392 792 306 c 2,57,-1
 792 0 l 1,58,59
 702 -40 702 -40 536 -40 c 0,60,61
 332 -40 332 -40 332 10 c 1,62,63
 332 6 332 6 378 96 c 128,-1,64
 424 186 424 186 424 280 c 0,65,66
 424 478 424 478 238 478 c 0,67,68
 104 478 104 478 32 320 c 1,69,70
 22 458 22 458 102 588 c 0,71,72
 190 734 190 734 332 734 c 0,73,74
 446 734 446 734 512 650 c 0,75,76
 570 572 570 572 570 462 c 0,77,78
 570 392 570 392 534 266 c 1,79,-1
 646 266 l 1,80,-1
 646 410 l 2,81,82
 646 750 646 750 824 750 c 0,83,84
 880 750 880 750 929 723 c 128,-1,85
 978 696 978 696 988 654 c 1,86,87
 1014 710 1014 710 1048 734 c 1,88,89
 1004 826 1004 826 1004 1004 c 0,90,91
 1004 1138 1004 1138 1085 1253 c 128,-1,92
 1166 1368 1166 1368 1260 1368 c 0,93,94
 1340 1368 1340 1368 1391 1307 c 128,-1,95
 1442 1246 1442 1246 1442 1156 c 0,0,1
360 256 m 0,96,97
 360 154 360 154 314 76 c 0,98,99
 260 -12 260 -12 178 -12 c 0,100,101
 110 -12 110 -12 70 44 c 128,-1,102
 30 100 30 100 30 180 c 0,103,104
 30 280 30 280 78 352 c 0,105,106
 130 432 130 432 216 432 c 0,107,108
 284 432 284 432 322 380 c 128,-1,109
 360 328 360 328 360 256 c 0,96,97
EndSplineSet
Ligature2: "'abvs' Above Base Substitutions lookup 6 subtable" tm_ha tm_iikaar
EndChar

StartChar: tm_k_ukaar
Encoding: 65583 -1 163
Width: 1070
GlyphClass: 2
Flags: W
LayerCount: 2
Fore
SplineSet
1040 324 m 0,0,1
 1040 82 1040 82 944 -108 c 0,2,3
 810 -376 810 -376 532 -376 c 0,4,5
 276 -376 276 -376 144 -192 c 0,6,7
 30 -32 30 -32 30 236 c 0,8,9
 30 434 30 434 96 610 c 0,10,11
 158 776 158 776 222 780 c 1,12,13
 258 762 258 762 286 705 c 128,-1,14
 314 648 314 648 310 600 c 1,15,16
 164 550 164 550 164 288 c 0,17,18
 164 134 164 134 258 24 c 128,-1,19
 352 -86 352 -86 508 -86 c 0,20,21
 674 -86 674 -86 793 13 c 128,-1,22
 912 112 912 112 912 272 c 0,23,24
 912 310 912 310 896 378 c 1,25,-1
 730 378 l 1,26,27
 730 252 730 252 682 138 c 0,28,29
 614 -24 614 -24 482 -24 c 0,30,31
 368 -24 368 -24 310 102 c 0,32,33
 262 202 262 202 262 334 c 0,34,35
 262 442 262 442 284 526 c 1,36,-1
 326 548 l 1,37,-1
 368 548 l 1,38,39
 336 652 336 652 336 718 c 0,40,41
 336 812 336 812 412 862 c 0,42,43
 482 910 482 910 600 910 c 0,44,45
 682 910 682 910 706 892 c 128,-1,46
 730 874 730 874 730 802 c 2,47,-1
 730 562 l 1,48,49
 890 564 890 564 960 516 c 0,50,51
 1040 462 1040 462 1040 324 c 0,0,1
614 614 m 0,52,53
 614 668 614 668 584 668 c 256,54,55
 554 668 554 668 490 630 c 0,56,57
 416 588 416 588 422 552 c 1,58,-1
 600 552 l 1,59,60
 614 578 614 578 614 614 c 0,52,53
558 372 m 1,61,-1
 412 372 l 2,62,63
 372 372 372 372 372 350 c 0,64,65
 372 330 372 330 403 311 c 128,-1,66
 434 292 434 292 456 292 c 0,67,68
 474 292 474 292 510 322 c 128,-1,69
 546 352 546 352 558 372 c 1,61,-1
EndSplineSet
Ligature2: "'psts' Post Base Substitutions lookup 7 subtable" tm_ka tm_ukaar
EndChar

StartChar: tm_ng_ukaar
Encoding: 65584 -1 164
Width: 1064
GlyphClass: 2
Flags: W
LayerCount: 2
Fore
SplineSet
1012 -821 m 1,0,1
 965 -794 965 -794 930 -750 c 0,2,3
 906 -723 906 -723 896 -702 c 128,-1,4
 886 -681 886 -681 886 -655 c 2,5,-1
 886 -506 l 1,6,-1
 887 -420 l 1,7,8
 825 -478 825 -478 733 -478 c 0,9,10
 596 -478 596 -478 500 -355 c 0,11,12
 427 -260 427 -260 387 -102 c 1,13,14
 462 -71 462 -71 562 16 c 0,15,16
 698 136 698 136 698 231 c 0,17,18
 698 282 698 282 638 282 c 0,19,20
 602 282 602 282 547 222 c 1,21,22
 493 153 493 153 493 91 c 2,23,-1
 493 11 l 2,24,25
 493 -40 493 -40 456 -40 c 0,26,27
 362 -40 362 -40 362 91 c 1,28,-1
 373 442 l 1,29,30
 185 442 185 442 185 305 c 0,31,32
 185 202 185 202 278 67 c 1,33,-1
 155 2 l 1,34,35
 31 184 31 184 31 411 c 0,36,37
 31 600 31 600 153 678 c 0,38,39
 256 744 256 744 505 744 c 0,40,41
 625 744 625 744 652.5 718.5 c 128,-1,42
 680 693 680 693 680 598 c 2,43,-1
 680 465 l 1,44,45
 656 442 656 442 498 442 c 1,46,-1
 498 296 l 1,47,48
 527 331 527 331 576 362 c 0,49,50
 640 404 640 404 698 404 c 0,51,52
 753 404 753 404 786.5 364 c 128,-1,53
 820 324 820 324 820 256 c 0,54,55
 820 145 820 145 720 27 c 1,56,-1
 576 -118 l 1,57,58
 611 -135 611 -135 644.5 -145.5 c 128,-1,59
 678 -156 678 -156 700 -156 c 0,60,61
 769 -156 769 -156 825.5 -88 c 128,-1,62
 882 -20 882 -20 882 53 c 2,63,-1
 882 685 l 1,64,-1
 898 736 l 1,65,-1
 1020 658 l 1,66,-1
 1012 -821 l 1,0,1
EndSplineSet
Ligature2: "'psts' Post Base Substitutions lookup 7 subtable" tm_nga tm_ukaar
EndChar

StartChar: tm_c_ukaar
Encoding: 65585 -1 165
Width: 844
GlyphClass: 2
Flags: W
LayerCount: 2
Fore
SplineSet
830 556 m 1,0,1
 764 382 764 382 674 382 c 1,2,-1
 670 -92 l 1,3,-1
 554 -18 l 1,4,-1
 556 380 l 1,5,-1
 498 380 l 1,6,7
 498 252 498 252 452 140 c 0,8,9
 386 -24 386 -24 254 -24 c 0,10,11
 138 -24 138 -24 78 106 c 0,12,13
 30 206 30 206 30 338 c 0,14,15
 30 444 30 444 56 530 c 1,16,-1
 94 552 l 1,17,-1
 138 552 l 1,18,19
 104 616 104 616 104 722 c 0,20,21
 104 814 104 814 186 866 c 0,22,23
 258 914 258 914 362 914 c 0,24,25
 446 914 446 914 471 896 c 128,-1,26
 496 878 496 878 498 806 c 2,27,-1
 504 556 l 1,28,-1
 830 556 l 1,0,1
384 608 m 0,29,30
 384 670 384 670 352 670 c 0,31,32
 322 670 322 670 256 632 c 0,33,34
 180 588 180 588 186 552 c 1,35,-1
 372 552 l 1,36,37
 384 572 384 572 384 608 c 0,29,30
322 376 m 1,38,-1
 180 376 l 2,39,40
 140 376 140 376 140 356 c 0,41,42
 140 338 140 338 171 315 c 128,-1,43
 202 292 202 292 232 292 c 0,44,45
 276 292 276 292 322 376 c 1,38,-1
EndSplineSet
Ligature2: "'psts' Post Base Substitutions lookup 7 subtable" tm_ca tm_ukaar
EndChar

StartChar: glyph167
Encoding: 65586 -1 166
Width: 1012
GlyphClass: 2
Flags: W
LayerCount: 2
Fore
SplineSet
68 876 m 1,0,-1
 943 876 l 1,1,-1
 943 0 l 1,2,-1
 68 0 l 1,3,-1
 68 876 l 1,0,-1
873 70 m 1,4,-1
 873 804 l 1,5,-1
 138 804 l 1,6,-1
 138 70 l 1,7,-1
 873 70 l 1,4,-1
EndSplineSet
EndChar

StartChar: tm_ny_ukaar
Encoding: 65587 -1 167
Width: 1034
GlyphClass: 2
Flags: W
LayerCount: 2
Fore
SplineSet
787 -33 m 1,0,1
 803 -38 803 -38 857 -38 c 0,2,3
 885 -38 885 -38 885 43 c 2,4,-1
 885 594 l 1,5,-1
 996 709 l 1,6,-1
 996 -169 l 1,7,-1
 745 -169 l 1,8,9
 714 -266 714 -266 643 -358 c 0,10,11
 547 -475 547 -475 437 -475 c 0,12,13
 290 -475 290 -475 159 -346 c 0,14,15
 92 -277 92 -277 62 -200.5 c 128,-1,16
 32 -124 32 -124 32 -28 c 1,17,-1
 654 -33 l 1,18,19
 697 63 697 63 705.5 141.5 c 128,-1,20
 714 220 714 220 672 220 c 0,21,22
 650 220 650 220 625 200 c 0,23,24
 592 173 592 173 592 142 c 2,25,-1
 592 -20 l 1,26,-1
 475 62 l 1,27,-1
 475 513 l 1,28,-1
 365 513 l 1,29,30
 279 509 279 509 225 493 c 0,31,32
 94 453 94 453 61 327 c 1,33,-1
 41 380 l 1,34,35
 41 560 41 560 172 673 c 1,36,37
 281 760 281 760 566 760 c 0,38,39
 657 760 657 760 684.5 733.5 c 128,-1,40
 712 707 712 707 712 622 c 2,41,-1
 712 462 l 1,42,-1
 603 505 l 1,43,-1
 594 385 l 1,44,45
 645 442 645 442 706 442 c 0,46,47
 754 442 754 442 786 391 c 1,48,49
 810 345 810 345 810 278 c 0,50,51
 810 227 810 227 787 -33 c 1,0,1
386 245 m 0,52,53
 386 164 386 164 339 103 c 128,-1,54
 292 42 292 42 214 42 c 0,55,56
 143 42 143 42 106.5 98.5 c 128,-1,57
 70 155 70 155 70 231 c 0,58,59
 70 309 70 309 112.5 375.5 c 128,-1,60
 155 442 155 442 228 442 c 0,61,62
 386 442 386 442 386 245 c 0,52,53
547 -169 m 1,63,-1
 219 -169 l 1,64,65
 290 -237 290 -237 403 -237 c 0,66,67
 443 -237 443 -237 487.5 -214 c 128,-1,68
 532 -191 532 -191 547 -169 c 1,63,-1
EndSplineSet
Ligature2: "'psts' Post Base Substitutions lookup 7 subtable" tm_nya tm_ukaar
EndChar

StartChar: tm_tt_ukaar
Encoding: 65588 -1 168
Width: 720
GlyphClass: 2
Flags: W
LayerCount: 2
Fore
SplineSet
690 208 m 0,0,1
 690 -28 690 -28 598 -238 c 0,2,3
 494 -474 494 -474 346 -474 c 0,4,5
 184 -474 184 -474 100 -250 c 0,6,7
 30 -60 30 -60 30 246 c 0,8,9
 30 592 30 592 159 839 c 128,-1,10
 288 1086 288 1086 476 1086 c 0,11,12
 556 1086 556 1086 607 1020 c 128,-1,13
 658 954 658 954 658 838 c 1,14,15
 584 884 584 884 524 884 c 0,16,17
 316 884 316 884 224 658 c 0,18,19
 158 496 158 496 158 252 c 0,20,21
 158 -108 158 -108 306 -108 c 0,22,23
 408 -108 408 -108 490 8 c 0,24,25
 564 112 564 112 564 208 c 0,26,27
 564 262 564 262 518 262 c 0,28,29
 474 262 474 262 442 190 c 0,30,31
 404 110 404 110 402 -20 c 1,32,33
 342 6 342 6 326 16 c 0,34,35
 290 40 290 40 290 74 c 2,36,-1
 306 702 l 1,37,38
 354 708 354 708 390 664 c 0,39,40
 420 624 420 624 420 582 c 2,41,-1
 420 412 l 1,42,43
 478 484 478 484 538 484 c 0,44,45
 608 484 608 484 652 392 c 0,46,47
 690 310 690 310 690 208 c 0,0,1
EndSplineSet
Ligature2: "'psts' Post Base Substitutions lookup 7 subtable" tm_tta tm_ukaar
EndChar

StartChar: tm_nn_ukaar
Encoding: 65589 -1 169
Width: 1562
GlyphClass: 2
Flags: W
LayerCount: 2
Fore
SplineSet
492 692 m 1,0,1
 374 542 374 542 352 474 c 1,2,3
 326 508 326 508 270 508 c 0,4,5
 202 508 202 508 134 460 c 0,6,7
 60 406 60 406 34 326 c 1,8,9
 30 346 30 346 30 370 c 0,10,11
 30 492 30 492 128 601 c 128,-1,12
 226 710 226 710 356 710 c 0,13,14
 416 710 416 710 492 692 c 1,0,1
1068 390 m 0,15,16
 1068 244 1068 244 1010 124 c 0,17,18
 944 -14 944 -14 844 -14 c 0,19,20
 804 -14 804 -14 769 17 c 128,-1,21
 734 48 734 48 734 74 c 1,22,23
 734 74 734 74 763 164 c 128,-1,24
 792 254 792 254 792 344 c 0,25,26
 792 436 792 436 764 501 c 128,-1,27
 736 566 736 566 736 588 c 0,28,29
 736 626 736 626 782 655 c 128,-1,30
 828 684 828 684 880 684 c 0,31,32
 958 684 958 684 1013 598 c 128,-1,33
 1068 512 1068 512 1068 390 c 0,15,16
744 322 m 0,34,35
 744 188 744 188 696 100 c 0,36,37
 638 -6 638 -6 528 -6 c 0,38,39
 446 -6 446 -6 406 78 c 0,40,41
 372 146 372 146 372 246 c 0,42,43
 372 398 372 398 418 514 c 0,44,45
 470 648 470 648 558 648 c 0,46,47
 656 648 656 648 704 540 c 0,48,49
 744 452 744 452 744 322 c 0,34,35
352 234 m 0,50,51
 352 146 352 146 304 74 c 0,52,53
 250 -6 250 -6 174 -6 c 0,54,55
 106 -6 106 -6 70 68 c 0,56,57
 40 128 40 128 40 218 c 0,58,59
 40 300 40 300 80 365 c 128,-1,60
 120 430 120 430 190 430 c 0,61,62
 266 430 266 430 312 368 c 0,63,64
 352 314 352 314 352 234 c 0,50,51
1492 -182 m 1,65,-1
 1198 -182 l 1,66,67
 1092 -362 1092 -362 954 -472 c 0,68,69
 774 -616 774 -616 574 -616 c 0,70,71
 364 -616 364 -616 214 -473 c 128,-1,72
 64 -330 64 -330 64 -118 c 0,73,74
 64 -60 64 -60 82 -24 c 1,75,-1
 1016 -40 l 1,76,77
 1048 -16 1048 -16 1072 78 c 0,78,79
 1098 180 1098 180 1098 308 c 0,80,81
 1098 466 1098 466 1075 546 c 128,-1,82
 1052 626 1052 626 990 676 c 1,83,-1
 1032 700 l 1,84,85
 1172 680 1172 680 1240 546 c 0,86,87
 1296 436 1296 436 1296 270 c 0,88,89
 1296 120 1296 120 1248 -42 c 1,90,-1
 1372 -42 l 1,91,-1
 1372 654 l 1,92,-1
 1404 670 l 1,93,94
 1464 636 1464 636 1478 613 c 128,-1,95
 1492 590 1492 590 1492 524 c 2,96,-1
 1492 -182 l 1,65,-1
890 -176 m 1,97,-1
 248 -176 l 1,98,99
 352 -280 352 -280 562 -280 c 0,100,101
 746 -280 746 -280 890 -176 c 1,97,-1
EndSplineSet
Ligature2: "'psts' Post Base Substitutions lookup 7 subtable" tm_nna tm_ukaar
EndChar

